<ttFont>
<head>
    <!-- Most of this table will be recalculated by the compiler -->
    <tableVersion value="1.0"/>
    <fontRevision value="1.0"/>
    <checkSumAdjustment value="0x6d8b1184"/>
    <magicNumber value="0x5f0f3cf5"/>
    <flags value="00000000 00000011"/>
    <unitsPerEm value="1000"/>
    <created value="Wed Nov 27 23:53:32 2019"/>
    <modified value="Wed Nov 27 23:53:32 2019"/>
    <xMin value="31"/>
    <yMin value="-83"/>
    <xMax value="995"/>
    <yMax value="855"/>
    <macStyle value="00000000 00000000"/>
    <lowestRecPPEM value="3"/>
    <fontDirectionHint value="2"/>
    <indexToLocFormat value="0"/>
    <glyphDataFormat value="0"/>
  </head>
        <CharString name=".notdef" fdSelectIndex="0">
          66 33 rmoveto
          600 199 -600 vlineto
          -232 -33 rmoveto
          265 666 -265 hlineto
          endchar
        </CharString>
        <CharString name="cid00842" fdSelectIndex="0">
          577 -14 rmoveto
          11 -42 72.67 13.33 56.83 27 41 40.67 rlinecurve
          41 40.67 20.5 49.66 58.67 vvcurveto
          66 -24.67 52.33 -49.33 38.67 vhcurveto
          38.67 -49.33 -68 19.33 -86.67 hhcurveto
          -40.67 -38 -4 -8 -35.33 hvcurveto
          113 363 39 -363 105 -44 -105 -175 -39 175 -125 vlineto
          -62.67 -20.67 -49.66 -31.83 -36.67 -43 rrcurveto
          -36.67 -43 -18.33 -49.17 -55.33 vvcurveto
          -43.33 11.33 -33.84 22.67 -24.33 vhcurveto
          -24.33 22.67 31 -12.17 39.33 hhcurveto
          64.67 66.16 31.33 62.67 67.67 hvcurveto
          67.67 62.67 51.16 83.66 34.67 104.67 rrcurveto
          77.33 -26.67 38.67 -51.66 -76.67 vvcurveto
          -47.33 -17.33 -40.34 -34.67 -33.33 vhcurveto
          -34.67 -33.33 -48.66 -22.34 -62.67 -11.33 rrcurveto
          41 354 rmoveto
          -20.67 -60.67 -27.16 -53.66 -33.67 -46.67 -33.67 -46.67 -36.16 -36.66 -38.67 -26.67 rrcurveto
          265 vlineto
          8.66 34 38 4.34 42 hhcurveto
          24 25.33 -2.33 -4.67 26.67 hvcurveto
          -234 -20 rmoveto
          -277 vlineto
          -11.33 -24.67 -24.66 -5.67 -24.67 hhcurveto
          -27.33 -21 8.5 17 -14.67 hvcurveto
          -14.67 17 -7.33 24.5 32 vvcurveto
          42 14.33 38.33 28.67 34.67 vhcurveto
          28.67 34.67 38.66 26.66 48.67 18.67 rrcurveto
          endchar
        </CharString>
        <CharString name="cid00843" fdSelectIndex="0">
          597 -13 rmoveto
          11 -44 90 16.67 70.67 33.5 51.33 50.33 rlinecurve
          51.33 50.33 25.67 61.5 72.67 vvcurveto
          82 -30.67 64.67 -61.33 47.33 vhcurveto
          47.33 -61.33 -84.34 23.67 -107.33 hhcurveto
          -54.67 -49 -5.33 -10.67 -43.33 hvcurveto
          150 458 41 -458 134 -47 -134 -221 -41 221 -163 vlineto
          -78 -26 -62 -39.67 -46 -53.33 rrcurveto
          -46 -53.33 -23 -61 -68.67 vvcurveto
          -52.67 13.67 -41.33 27.33 -30 vhcurveto
          -30 27.33 37.67 -15 48 hhcurveto
          80.67 82.5 39.67 79.33 84.33 hvcurveto
          84.33 79.33 63.84 105.67 43.33 132 49.33 -16.67 38 -25.5 26.67 -34.33 rrcurveto
          26.67 -34.33 13.33 -41.5 -48.67 vvcurveto
          -61.33 -22.17 -51.84 -44.33 -42.33 vhcurveto
          -44.33 -42.33 -62.17 -28.5 -80 -14.67 rrcurveto
          56 454 rmoveto
          -26.67 -80.67 -35.33 -70.83 -44 -61 -44 -61 -47.33 -47.17 -50.67 -33.33 rrcurveto
          345 vlineto
          12 44.67 49 6 53.33 hhcurveto
          36 33.67 -3 -6 31.33 hvcurveto
          -295 -24 rmoveto
          -356 vlineto
          -16 -34 -32.67 -8 -31.33 hhcurveto
          -35.33 -27.17 11 22 -19 hvcurveto
          -19 22 -9.5 31.67 41.33 vvcurveto
          55.33 18.67 49.84 37.33 44.33 vhcurveto
          37.33 44.33 50.67 34.17 64 24 rrcurveto
          endchar
        </CharString>
        <CharString name="cid00844" fdSelectIndex="0">
          672 531 rmoveto
          34 -62.67 26.5 -73.66 19 -84.67 rrcurveto
          19 -84.67 9.5 -86.33 -88 vvcurveto
          46 hlineto
          92 -9.83 89.17 -19.67 86.33 vhcurveto
          -19.67 86.33 -27.5 75.84 -35.33 65.33 rrcurveto
          -483 -3 rmoveto
          -23.33 -84.67 -11.67 -90.33 -96 vvcurveto
          -84 17 -71.67 34 -59.33 vhcurveto
          -59.33 34 37.33 -29.67 40.67 hhcurveto
          30.67 34 21 42 37.33 hvcurveto
          37.33 42 31.67 57.67 26 73.33 -42 15 rcurveline
          -24 -65.33 -26.5 -50.34 -29 -35.33 rrcurveto
          -35.33 -29 -24.17 -17.67 -19.33 hhcurveto
          -26.67 -26.5 24.67 49.33 -26.33 hvcurveto
          -26.33 49.33 -13.17 61 72.67 vvcurveto
          94.67 11 88 22 81.33 vhcurveto
          endchar
        </CharString>
        <CharString name="cid00845" fdSelectIndex="0">
          721 674 rmoveto
          42.67 -78 33.33 -91.83 24 -105.67 rrcurveto
          24 -105.67 12 -107.83 -110 vvcurveto
          48 hlineto
          114.67 -12.17 111.33 -24.33 108 vhcurveto
          -24.33 108 -34.5 94 -44.67 80 rrcurveto
          -552 -11 rmoveto
          -47 7 rlineto
          -28.67 -103.33 -14.33 -112.34 -121.33 vvcurveto
          -104 21 -88.83 42 -73.67 vhcurveto
          -73.67 42 45.67 -36.83 49.33 hhcurveto
          37.33 41.34 25.83 51.67 45.33 hvcurveto
          45.33 51.67 39 71.5 32.67 91.33 -44 17 rcurveline
          -30.67 -82.67 -34 -64 -37.33 -45.33 rrcurveto
          -45.33 -37.33 -30.67 -22.67 -24 hhcurveto
          -34.67 -34.33 31.5 63 -34 hvcurveto
          -34 63 -17 77.83 92.67 vvcurveto
          119.33 13.67 110 27.33 100.67 vhcurveto
          endchar
        </CharString>
        <CharString name="cid00846" fdSelectIndex="0">
          210 361 rmoveto
          10 -42 rlineto
          32.67 141.33 113.67 16.33 86 hhcurveto
          124.67 62.33 -39.67 -79.33 -62.67 -34.5 -53.66 -69 -44.67 hvcurveto
          -69 -44.67 -94.83 -27.66 -120.67 -10.67 8 -43 rcurveline
          133.33 10.67 104.34 31.33 75.33 52 rrcurveto
          75.33 52 37.67 65 78 vvcurveto
          46 -17.67 38.17 -35.33 30.33 vhcurveto
          30.33 -35.33 -59.67 15.17 -84 hhcurveto
          -96 -117.33 -16.67 -33.33 -138.67 hvcurveto
          113 203 rmoveto
          -20.66 125.33 117.34 -10.34 109.33 hhcurveto
          43 vlineto
          -110 -115.67 10 20 -121.33 hvcurveto
          endchar
        </CharString>
        <CharString name="cid00847" fdSelectIndex="0">
          140 460 rmoveto
          10 -44 rlineto
          40.67 174.67 142.33 20.33 110 hhcurveto
          160 80 -51.33 -102.67 -80.67 -43.67 -68.83 -87.33 -57 hvcurveto
          -87.33 -57 -120 -35.5 -152.67 -14 10 -45 rcurveline
          164 14 129.17 39.33 94.33 64.67 rrcurveto
          94.33 64.67 47.17 80.66 96.67 vvcurveto
          26 -4.5 24 -9 22 vhcurveto
          -9 22 -14.67 20.67 -20.33 19.33 -20.33 19.33 -29.67 15.34 -39 11.33 rrcurveto
          11.33 -39 -46.83 5.67 -54.67 hhcurveto
          -116 -146 -20.67 -41.33 -176 hvcurveto
          140 261 rmoveto
          -26 156 145.67 -13 135.33 hhcurveto
          45 vlineto
          -135.33 -143.67 12.67 25.33 -152 hvcurveto
          endchar
        </CharString>
        <CharString name="cid00848" fdSelectIndex="0">
          234 435 rmoveto
          -42 423 vlineto
          1 -1 -474 -394 27 -34 68 56 49.67 40.67 31.33 25.33 rlinecurve
          31.33 25.33 26.5 20.17 21.67 15 21.67 15 13.83 8.33 6 1.67 rrcurveto
          1.67 6 8.33 0.83 10.67 hhcurveto
          16 13.17 -6.5 -13 10.33 hvcurveto
          10.33 -13 10.17 -25.5 10 -38 11.33 -42.67 14.67 -28.66 18 -14.67 rrcurveto
          -14.67 18 29.33 -7.33 40.67 hhcurveto
          36.67 39 5.33 10.67 41.33 hvcurveto
          -9 41 rlineto
          -10 -34.67 -35 -5 -35.33 hhcurveto
          -30 -20.83 5 10 -11.67 hvcurveto
          -11.67 10 -10.83 24.33 -10 38.67 -10.67 41.33 -11.5 28.5 -12.33 15.67 rrcurveto
          15.67 -12.33 -16.84 7.83 -21.33 hhcurveto
          -10 -7.67 -1 -2 -5.33 hvcurveto
          -1 1 216 182 rlineto
          46 vlineto
          -400 131 rmoveto
          -20.66 125.33 117.34 -10.34 109.33 hhcurveto
          42 vlineto
          -106 -115.67 10.33 20.67 -125.33 hvcurveto
          endchar
        </CharString>
        <CharString name="cid00849" fdSelectIndex="0">
          168 552 rmoveto
          -44 539 vlineto
          1 -1 -600 -504 28 -36 159.33 132.67 96.17 78.33 33 24 rlinecurve
          24 33 27.83 12 22.67 hhcurveto
          20 17 -9.17 -18.33 14 hvcurveto
          14 -18.33 13.33 -33.5 12.67 -48.67 14 -53.33 18 -35.84 22 -18.33 rrcurveto
          -18.33 22 35.67 -9.17 49.33 hhcurveto
          44.67 48.33 6.67 13.33 52 hvcurveto
          -9 43 rlineto
          -12.67 -44.67 -44.33 -6.33 -44 hhcurveto
          -38.67 -26.66 6.5 13 -14.67 hvcurveto
          -14.67 13 -14 31.17 -13.33 49.33 -15.33 57.33 -15.34 38.5 -15.33 19.67 rrcurveto
          19.67 -15.33 -20.67 9.83 -26 hhcurveto
          -8 -9 -1.66 -3.34 -10 hvcurveto
          -1 2 272 232 rlineto
          46 vlineto
          -497 171 rmoveto
          -26 156 145.67 -13 135.33 hhcurveto
          44 vlineto
          -131.33 -143.67 13 26 -156 hvcurveto
          endchar
        </CharString>
        <CharString name="cid00850" fdSelectIndex="0">
          200 521 rmoveto
          -39 201 -156 vlineto
          -72 -14.67 -56.17 -26.16 -40.33 -37.67 rrcurveto
          -40.33 -37.67 -20.17 -41.5 -45.33 vvcurveto
          -40 17.33 -35.5 34.67 -31 vhcurveto
          -31 34.67 39.66 -15.5 44.67 hhcurveto
          36 26.17 8 16 16.33 hvcurveto
          16.33 16 8.17 26 36 vvcurveto
          218 vlineto
          2.66 22 26.67 1.34 31.33 hhcurveto
          67.33 53.34 -13.5 -27 39.33 hvcurveto
          39.33 -27 19.67 -31.17 -35.33 vvcurveto
          -96.67 -62.67 -54.33 -125.33 -12 vhcurveto
          8 -42 74 6.67 56.17 21 38.33 35.33 rlinecurve
          38.33 35.33 19.17 48 60.67 vvcurveto
          46.67 -24 40.83 -48 35 vhcurveto
          35 -48 -64.33 17.5 -80.67 hhcurveto
          -31.33 -26.67 -1.33 -2.67 -22 hvcurveto
          149 227 39 -227 113 -45 -113 vlineto
          303 5 rmoveto
          48 -48 43.33 -53 38.67 -58 34 22 rcurveline
          -40.67 60.67 -44.33 54.33 -48 48 rrcurveto
          -334 -270 rmoveto
          -208 vlineto
          -22.67 -4.66 -16.16 -9.34 -9.67 vhcurveto
          -9.67 -9.33 -15.67 -4.83 -22 hhcurveto
          -30.67 -28.16 11.67 23.33 -25.67 hvcurveto
          -25.67 23.33 -12.83 25.67 28 vvcurveto
          34.67 16 31.83 32 29 vhcurveto
          32 29 45.33 21.17 58.67 13.33 rrcurveto
          endchar
        </CharString>
        <CharString name="cid00851" fdSelectIndex="0">
          127 658 rmoveto
          -41 253 -203 vlineto
          -90.67 -18 -70.5 -32.17 -50.33 -46.33 rrcurveto
          -50.33 -46.33 -25.17 -51.5 -56.67 vvcurveto
          -48.67 21.33 -43.5 42.67 -38.33 vhcurveto
          -38.33 42.67 48.66 -19.17 54.67 hhcurveto
          43.33 31.5 9.67 19.33 19.67 hvcurveto
          19.67 19.33 9.83 31.34 43.33 vvcurveto
          279 vlineto
          4 32 35 2 38 hhcurveto
          86.67 68.66 -17.33 -34.67 50.67 hvcurveto
          50.67 -34.67 25.33 -40.33 -46 vvcurveto
          -124.67 -80.33 -70 -160.67 -15.33 vhcurveto
          8 -43 92 8.67 69.83 26 47.67 43.33 rlinecurve
          47.67 43.33 23.83 59 74.67 vvcurveto
          58 -29.83 50.5 -59.67 43 vhcurveto
          43 -59.67 -80.16 21.5 -100.67 hhcurveto
          -37.33 -35 -2 -4 -32.67 hvcurveto
          195 278 41 -278 144 -47 -144 vlineto
          367 10 rmoveto
          61.33 -59.33 54.67 -65.67 48 -72 36 25 rcurveline
          -47.33 70.67 -56 66.66 -64.67 62.67 rrcurveto
          -399 -327 rmoveto
          -270 vlineto
          -29.33 -6.17 -20.84 -12.33 -12.33 vhcurveto
          -12.33 -12.33 -20.5 -6.17 -28.67 hhcurveto
          -40 -36.67 15 30 -33.33 hvcurveto
          -33.33 30 -16.67 33.33 36.67 vvcurveto
          45.33 20.83 41.67 41.67 38 vhcurveto
          41.67 38 59.16 27 76.67 16 rrcurveto
          endchar
        </CharString>
        <CharString name="cid00852" fdSelectIndex="0">
          108 547 rmoveto
          193 hlineto
          -51.33 -198 -67.67 -187 -84 -176 43 -18 rcurveline
          84.67 176.67 69.33 193 54 209.33 rrcurveto
          121 hlineto
          42 hlineto
          8.67 10.83 -0.67 -1.33 13 hvcurveto
          13 -1.33 8.83 -0.84 4.67 -0.33 4.67 -0.33 6.33 -2.67 8 -5 8 -5 4.83 -3.67 1.67 -2.33 1.67 -2.33 2.83 -6 4 -9.67 rrcurveto
          4 -9.67 2 -7.66 -5.67 vvcurveto
          -0.02 -5.67 0.67 -11 1.35 -16.33 1.31 -16.33 0.67 -13.5 0.02 -10.67 rrcurveto
          -52 vlineto
          -73.33 -5.83 -63.17 -11.67 -53 vhcurveto
          -11.67 -53 -13.5 -37.83 -15.33 -22.67 rrcurveto
          -22.67 -15.33 -16 -11.33 -16.67 hhcurveto
          -42 -58.67 17.67 35.33 -75.33 hvcurveto
          -16 -42 rlineto
          -38.67 81.33 66 -19.33 50.67 hhcurveto
          41.33 35.17 33 66 29 hvcurveto
          29 66 14.5 93.33 120.67 vvcurveto
          77 vlineto
          18 -1.5 19 -3 20 vhcurveto
          -3 20 -2.67 14.33 -2.33 8.67 -2.33 8.67 -5.5 9.33 -8.67 10 -8.66 10 -8.17 6.33 -7.67 2.67 -7.67 2.67 -12.66 2.83 -17.67 3 -17.67 2.99 -16.66 1.67 -15.67 0.34 -15.67 0.32 -22.5 0.16 -29.33 0.02 rrcurveto
          -103 hlineto
          15.33 64 14.34 70.33 13.33 76.67 -45 5 rcurveline
          -14 -76.67 -15.33 -72 -16.67 -67.33 rrcurveto
          -204 hlineto
          621 80 rmoveto
          77.33 -168 60.67 -168 44 -168 45 11 rcurveline
          -20.67 77.33 -27.5 86.5 -34.33 95.67 -34.33 95.67 -33.84 83.5 -33.33 71.33 rrcurveto
          endchar
        </CharString>
        <CharString name="cid00853" fdSelectIndex="0">
          658 752 rmoveto
          30 -45.33 32 -54.67 34 -64 39 20 rcurveline
          -36.67 68 -32 55 -27.33 42 rrcurveto
          93 19 rmoveto
          31.33 -47.33 33.34 -55.67 35.33 -64 39 20 rcurveline
          -28.67 54 -33.33 56.33 -38 58.67 rrcurveto
          -721 -267 rmoveto
          193 hlineto
          -51.33 -198 -67.67 -187 -84 -176 43 -18 rcurveline
          84.67 176.67 69.33 193 54 209.33 rrcurveto
          114 hlineto
          51 hlineto
          10 12.33 -1.17 -2.33 14.67 hvcurveto
          14.67 -2.33 9.5 -1.84 4.33 -1.33 4.33 -1.33 5.83 -5 7.34 -8.67 7.33 -8.67 4.16 -7.16 1.01 -5.67 1 -5.67 1.5 -11.66 2 -17.67 rrcurveto
          2 -17.67 1 -15.33 -13 vvcurveto
          -63.5 vlineto
          -56 -3.33 -50.33 -6.67 -44.67 vhcurveto
          -6.66 -44.67 -8.84 -35.33 -11 -26 -11 -26 -11.5 -19.83 -12 -13.67 rrcurveto
          -13.67 -12 -12 -6.83 -12 hhcurveto
          -41.33 -58.34 17.67 35.33 -75.33 hvcurveto
          -17 -42 rlineto
          -38.67 81.33 66.34 -19.33 51.33 hhcurveto
          41.33 35 33 66 28.67 hvcurveto
          28.67 66 14.33 93.33 120.67 vvcurveto
          77.5 vlineto
          17.67 -1.5 19 -3 20.33 vhcurveto
          -3 20.33 -2.67 14.34 -2.33 8.33 -2.33 8.33 -5.5 9.17 -8.67 10 -8.67 10 -8 6.33 -7.33 2.67 -7.33 2.67 -12.5 3 -17.67 3.33 -17.67 3.32 -16.66 1.67 -15.67 0.01 rrcurveto
          -67.5 hlineto
          -97 hlineto
          15.33 64 14.34 70.33 13.33 76.67 -45 5 rcurveline
          -14 -76.67 -15.33 -72 -16.67 -67.33 rrcurveto
          -204 hlineto
          800 -436 rmoveto
          44 15 -50.67 128.67 -63.33 128.33 -76 128 rlinecurve
          -42 -20 74 -126 62.67 -126.67 51.33 -127.33 rlinecurve
          endchar
        </CharString>
        <CharString name="cid00854" fdSelectIndex="0">
          551 672 rmoveto
          -164.67 -4.66 -137 -2.33 -109.33 -0.01 rrcurveto
          -41 vlineto
          144.67 139.66 2.33 4.67 134.67 hvcurveto
          12 -56.67 14 -49.33 16 -42 rrcurveto
          -5.33 -178 -165 -2.67 -152 hhcurveto
          -42 vlineto
          168.67 170.33 3 6 172 hvcurveto
          22 -52.67 27.33 -53.33 32.67 -54 -2 -1 rcurveline
          34 -84.67 -82 17 -79.33 hhcurveto
          -53.33 -45.67 -5.17 -10.33 -38 hvcurveto
          -38 -10.33 -28.5 -14 -19 -17.67 -19 -17.67 -13.67 -18.16 -8.33 -18.67 rrcurveto
          -8.33 -18.67 -4.17 -20 -21.33 vvcurveto
          -135.33 119.33 -67.67 238.67 82.67 79 6.67 13.33 75.33 vhcurveto
          -7 42 rlineto
          -13.33 -81.33 -76.67 -6.67 -72 hhcurveto
          -106 -77.83 13.33 26.67 -49.67 hvcurveto
          -49.67 26.67 -24.83 40.33 54 vvcurveto
          87.33 75.33 43.67 150.67 88 93 -22.33 -44.67 98 vhcurveto
          40 31 -42 64 -34.67 63 -27.33 62 rlinecurve
          6 146.67 76 3 5.33 hhcurveto
          -1 42 -53.33 -2.67 -81.34 -3.33 -109.33 -4 rlinecurve
          -18 46 -14.33 49 -10.67 52 88 2.67 89 4 90 5.33 -2 41 rcurveline
          -61.33 -3.33 -90.67 -3.67 -120 -4 -6.66 38.67 -5.34 42.66 -4 46.67 -47 -3 rcurveline
          2.67 -44.67 5 -42.33 7.33 -40 rrcurveto
          endchar
        </CharString>
        <CharString name="cid00855" fdSelectIndex="0">
          728 809 rmoveto
          30.67 -47.33 29.33 -49.67 28 -52 36 19 rcurveline
          -36 64.67 -29.33 50 -22.67 35.33 rrcurveto
          92 -2 rmoveto
          30.67 -48 30 -50.67 29.33 -53.33 36 19 rcurveline
          -24 44 -30 51 -36 58 rrcurveto
          -375 -58 rmoveto
          3.33 -49.33 4.67 -42 6 -34.67 rrcurveto
          -5.33 -147.33 -133.67 -2.67 -120 hhcurveto
          -41 vlineto
          141.33 136.34 2.33 4.67 131.33 hvcurveto
          11.33 -52 14.34 -49.33 17.33 -46.67 rrcurveto
          -5.33 -174.67 -162 -2.67 -149.33 hhcurveto
          -42 vlineto
          132 167.33 3 6 202.67 hvcurveto
          21.33 -50.67 27 -53.33 32.67 -56 -1 -1 rcurveline
          34 -84.67 -82 17 -79.33 hhcurveto
          -52 -44.83 -5.16 -10.34 -37.67 hvcurveto
          -37.67 -10.33 -28.33 -14 -19 -17.67 -19 -17.67 -13.67 -18.16 -8.33 -18.67 rrcurveto
          -8.33 -18.67 -4.17 -20 -21.33 vvcurveto
          -135.33 119.33 -67.67 238.67 82 78.67 6.67 13.33 75.33 vhcurveto
          -6 42 rlineto
          -13.33 -81.33 -76.67 -6.67 -72 hhcurveto
          -106 -77.83 13.33 26.67 -49.67 hvcurveto
          -49.67 26.67 -24.83 40.33 54 vvcurveto
          42 18.83 32.33 37.67 22.67 vhcurveto
          22.67 37.67 55.5 11.33 73.33 hhcurveto
          88 93 -22.33 -44.67 98 hvcurveto
          40 31 -43.33 65.33 -34.67 62.67 -26 60 rlinecurve
          104 4 79 3.33 54 2.67 -1 42 rcurveline
          -107.33 -5.33 -84.34 -3.67 -61.33 -2 -17.33 46.67 -14.34 49.66 -11.33 52.67 24 0.67 35.17 1.66 46.33 2.67 rrcurveto
          2.67 46.33 25.17 1.33 4 hhcurveto
          -2 41 -85.33 -4 -62.34 -2.67 -39.33 -1.33 rlinecurve
          -5.33 28.67 -5 42.33 -4.67 56 rrcurveto
          endchar
        </CharString>
        <CharString name="cid00856" fdSelectIndex="0">
          711 757 rmoveto
          -31 36 -130 -107.33 -128.67 -96.34 -127.33 -85.33 rlinecurve
          -49.33 -33.33 -31.34 -23.34 -13.33 -13.33 rrcurveto
          -13.33 -13.33 -6.67 -18 -22.67 vvcurveto
          -21.33 6.17 -17.17 12.33 -13 vhcurveto
          12.33 -13 28.17 -21.83 44 -30.67 132.67 -90.67 141.66 -112 150.67 -133.33 33 35 rcurveline
          -148 131.33 -143.33 113.34 -138.67 95.33 -34.67 23.33 -21.66 16 -8.67 8.67 rrcurveto
          -8.67 8.67 -4.33 10 11.33 vvcurveto
          12.67 5.17 11.16 10.33 9.67 vhcurveto
          10.33 9.67 24.84 17.83 39.33 26 123.33 82 129.34 96.67 135.33 111.33 rrcurveto
          endchar
        </CharString>
        <CharString name="cid00857" fdSelectIndex="0">
          609 552 rmoveto
          37.33 -58 35.34 -59.67 33.33 -61.33 42 21 rcurveline
          -26.67 50 -35.66 60.33 -44.67 70.67 rrcurveto
          101 21 rmoveto
          40.67 -64 36 -60.67 31.33 -57.33 42 21 rcurveline
          -32 58.67 -36.33 61.33 -40.67 64 rrcurveto
          -132 146 rmoveto
          -29 38 -136 -114 -128.67 -98.67 -121.33 -83.33 rlinecurve
          -48.67 -33.33 -31 -23.67 -13.33 -14 rrcurveto
          -13.33 -14 -6.67 -18.67 -23.33 vvcurveto
          -22 6 -17.67 12 -13.33 vhcurveto
          12 -13.33 28 -22 44 -30.67 138 -98 141.67 -114.67 145.33 -131.33 32 36 rcurveline
          -149.33 136 -142.67 115.67 -136 95.33 -34.67 24 -21.66 16.33 -8.67 8.67 rrcurveto
          -8.67 8.67 -4.33 10.33 12 vvcurveto
          12.67 5.17 11.33 10.33 10 vhcurveto
          10.33 10 24.84 18.67 39.33 27.33 120 82 128.33 98.33 136.67 114.67 rrcurveto
          endchar
        </CharString>
        <CharString name="cid00858" fdSelectIndex="0">
          363 577 rmoveto
          -44 360 -165 vlineto
          -48 -1.17 -40.17 -2.33 -32.33 vhcurveto
          -2.33 -32.33 -4.84 -29 -7.33 -25.67 -7.33 -25.67 -8.5 -20.66 -9.67 -15.67 -9.67 -15.67 -14.33 -14.16 -19 -12.67 -19 -12.67 -19.67 -10.16 -20.33 -7.67 -20.33 -7.67 -27.17 -8.5 -34 -9.33 14 -43 rcurveline
          55.33 14.67 43.67 15.83 32 17 32 17 26.17 24.5 20.33 32 20.33 32 13.5 38 6.67 44 rrcurveto
          6.67 44 3.33 58.67 73.33 vvcurveto
          165 172 44 -172 196 -47 -196 vlineto
          -510 181 rmoveto
          -48 7 rlineto
          -33.33 -126 -16.67 -135 -144 vvcurveto
          -144 16.67 -135 33.33 -126 vhcurveto
          48 7 rlineto
          -33.33 124 -16.67 132.67 141.33 vvcurveto
          141.33 16.67 132.67 33.33 124 vhcurveto
          endchar
        </CharString>
        <CharString name="cid00859" fdSelectIndex="0">
          755 816 rmoveto
          27.33 -46.67 26.67 -50.33 26 -54 37 14 rcurveline
          -20.67 44 -26.66 51 -32.67 58 rrcurveto
          165 -151 rmoveto
          37 14 -21.33 46.67 -27.34 52.33 -33.33 58 rlinecurve
          -37 -16 31.33 -53.33 27.34 -51.67 23.33 -50 rlinecurve
          -849 -331 rmoveto
          -142 17 -135 34 -128 vhcurveto
          47 7 rlineto
          -32.67 121.33 -16.33 132.67 144 vvcurveto
          144 16.33 132.67 32.67 121.33 vhcurveto
          -47 7 rlineto
          -34 -128 -17 -135 -142 vvcurveto
          240 215 rmoveto
          -43 329 -164 vlineto
          -48 -1.17 -40.17 -2.33 -32.33 vhcurveto
          -2.33 -32.33 -4.84 -29 -7.33 -25.67 -7.33 -25.67 -8.5 -20.66 -9.67 -15.67 -9.66 -15.67 -14.34 -14.16 -19 -12.67 -19 -12.67 -19.67 -10.16 -20.33 -7.67 -20.33 -7.67 -27.17 -8.5 -34 -9.33 14 -43 rcurveline
          55.33 14.67 43.67 15.83 32 17 32 17 26 24.5 20 32 20 32 13.33 38 6.67 44 rrcurveto
          6.67 44 3.33 58.67 73.33 vvcurveto
          164 204 43 -204 198 -46 -198 vlineto
          endchar
        </CharString>
        <CharString name="cid00860" fdSelectIndex="0">
          225 662 rmoveto
          560 45 -560 hlineto
          622 -692 rmoveto
          -10 45 -39.33 -11.33 -51.5 -9.84 -63.67 -8.33 rlinecurve
          -8.33 -63.67 -58.16 -4.17 -52.67 hhcurveto
          -99.33 -78.84 14.83 29.67 -58.33 hvcurveto
          -58.33 29.67 -29.17 39.83 50 vvcurveto
          50 41.33 64.67 82.67 79.33 vhcurveto
          -34 30 rlineto
          -92.67 -90 -46.33 -76 -62 vvcurveto
          -62 33.67 -49.67 67.33 -37.33 vhcurveto
          -37.33 67.33 90.67 -18.67 114 hhcurveto
          56 60.67 4 8 65.33 hvcurveto
          65.33 8 52.34 10 39.33 12 rrcurveto
          endchar
        </CharString>
        <CharString name="cid00861" fdSelectIndex="0">
          662 549 rmoveto
          30 -45.33 32 -54.67 34 -64 39 20 rcurveline
          -33.33 60.67 -32.34 55 -31.33 49.33 rrcurveto
          94 19 rmoveto
          24 -36.67 33 -56 42 -75.33 39 20 rcurveline
          -32 60 -33 56.33 -34 52.67 rrcurveto
          -618 72 rmoveto
          560 45 -560 hlineto
          622 -712 rmoveto
          -10 45 -39.33 -11.33 -51.5 -9.84 -63.67 -8.33 rlinecurve
          -8.33 -63.67 -58.16 -4.17 -52.67 hhcurveto
          -99.33 -78.84 14.83 29.67 -58.33 hvcurveto
          -58.33 29.67 -29.17 39.83 50 vvcurveto
          50 41.33 64.67 82.67 79.33 vhcurveto
          -34 30 rlineto
          -92.67 -90 -46.33 -76 -62 vvcurveto
          -62 33.67 -49.67 67.33 -37.33 vhcurveto
          -37.33 67.33 90.67 -18.67 114 hhcurveto
          56 60.67 4 8 65.33 hvcurveto
          65.33 8 52.34 10 39.33 12 rrcurveto
          endchar
        </CharString>
        <CharString name="cid00862" fdSelectIndex="0">
          591 651 rmoveto
          -5.33 -174 -161.33 -2.67 -148.67 hhcurveto
          -43 vlineto
          151.33 164.34 2.66 5.34 177.33 hvcurveto
          22 -99.33 33 -86.34 44 -73.33 -1 -1 rcurveline
          40 -76.67 -83.66 20 -90.67 hhcurveto
          -89.33 -69.34 -18.17 -36.33 -49.33 hvcurveto
          -49.33 -36.33 -24.67 -50.17 -64 vvcurveto
          -24.67 3.33 -23.16 6.67 -21.67 vhcurveto
          6.67 -21.67 11.83 -21.33 17 -21 17 -21 21.83 -18 26.67 -15 26.67 -15 35 -12.17 43.33 -9.33 rrcurveto
          -9.33 43.33 49.67 -4.67 56 hhcurveto
          80.67 80 7.33 14.67 79.33 hvcurveto
          -8 43 rlineto
          -14.67 -78.67 -77.33 -7.33 -76 hhcurveto
          -211.33 -105.67 64.67 129.33 51.33 20.5 40 41 28.67 hvcurveto
          28.67 41 57.83 14.33 74.67 hhcurveto
          50.67 51.16 -7.67 -15.33 51.67 hvcurveto
          51.67 -15.33 44.5 -20.67 37.33 -26 40 26 rcurveline
          -62 90.67 -43 101.33 -24 112 113.33 4 83 3.33 52.67 2.67 -2 43 rcurveline
          -56 -2.66 -85.33 -3.33 -114.67 -4.01 -6.66 38 -5.67 47 -4.67 56 -47 -3 rcurveline
          4 -48.67 6 -46.66 8 -44.67 rrcurveto
          endchar
        </CharString>
        <CharString name="cid00863" fdSelectIndex="0">
          734 815 rmoveto
          32.67 -50.67 29.33 -49.33 26 -48 36 19 rcurveline
          -33.33 60.67 -29.34 49.66 -25.33 38.67 rrcurveto
          92 -1 rmoveto
          28 -43.33 30 -51 32 -58.67 37 19 rcurveline
          -26.67 49.33 -30 51.34 -33.33 53.33 rrcurveto
          -315 -228 rmoveto
          -5.33 -174.67 -162.33 -2.67 -150 hhcurveto
          -43 vlineto
          152.67 165.33 2.66 5.34 178 hvcurveto
          22 -92 32 -81.33 42 -70.67 -1 -1 rcurveline
          40 -76.67 -83.66 20 -90.67 hhcurveto
          -89.33 -69.34 -18.17 -36.33 -49.33 hvcurveto
          -49.33 -36.33 -24.67 -50.17 -64 vvcurveto
          -24.67 3.33 -23.16 6.67 -21.67 vhcurveto
          6.67 -21.67 11.83 -21.33 17 -21 17 -21 21.83 -18 26.67 -15 26.67 -15 35 -12.17 43.33 -9.33 rrcurveto
          -9.33 43.33 49.67 -4.67 56 hhcurveto
          80.67 80 7.33 14.67 79.33 hvcurveto
          -8 43 rlineto
          -14.67 -78.67 -77.33 -7.33 -76 hhcurveto
          -211.33 -105.67 64.67 129.33 51.33 20.5 40 41 28.67 hvcurveto
          28.67 41 57.83 14.33 74.67 hhcurveto
          50.67 51.16 -7.67 -15.33 51.67 hvcurveto
          51.67 -15.33 44.5 -20.67 37.33 -26 40 26 rcurveline
          -58.67 84.67 -42 96.33 -25.33 108 112 4 82 3.33 52 2.67 -2 43 rcurveline
          -55.33 -2.66 -84.34 -3.34 -113.33 -4 -9.33 50.67 -6.67 52 -4 53.33 -47 -3 rcurveline
          3.33 -46.67 7 -51.66 10.67 -56.67 rrcurveto
          endchar
        </CharString>
        <CharString name="cid00864" fdSelectIndex="0">
          278 771 rmoveto
          -49 1 rlineto
          -7.33 -174 -3.67 -152.33 -130.67 vvcurveto
          -138 19.67 -95.67 39.33 -53.33 vhcurveto
          -53.33 39.33 70.34 -26.67 101.33 hhcurveto
          84.67 77.16 30.5 61 69.67 hvcurveto
          69.67 61 55.5 86.83 41.33 112.67 -44 17 rcurveline
          -38 -102.67 -50 -79.33 -62 -56 rrcurveto
          -56 -62 -68 -28 -74 hhcurveto
          -40.67 -33 4 8 -25.33 hvcurveto
          -25.33 8 -22.34 15.33 -19.33 22.67 -19.33 22.67 -13.84 32.5 -8.33 42.33 rrcurveto
          -8.33 42.33 -4.17 54.84 67.33 vvcurveto
          120.67 3.33 152 6.67 183.33 vhcurveto
          endchar
        </CharString>
        <CharString name="cid00865" fdSelectIndex="0">
          548 721 rmoveto
          33.33 -51.33 35 -59.67 36.67 -68 42 21 rcurveline
          -28 52.67 -35.33 60 -42.67 67.33 rrcurveto
          100 21 rmoveto
          45.33 -70.67 36.34 -60.66 27.33 -50.67 41 21 rcurveline
          -32 58.67 -36.33 61.33 -40.67 64 rrcurveto
          -528 -15 rmoveto
          -6.67 -158 -3.33 -152.33 -146.67 vvcurveto
          -138 19.67 -95.67 39.33 -53.33 vhcurveto
          -53.33 39.33 70.34 -26.67 101.33 hhcurveto
          84.67 77 30.5 61 69.33 hvcurveto
          69.33 61 55.34 86.83 41.33 112.67 -43 17 rcurveline
          -38 -102.67 -50 -79.33 -62 -56 rrcurveto
          -56 -62 -68 -28 -74 hhcurveto
          -40.67 -33 4 8 -25.33 hvcurveto
          -25.33 8 -22.5 15.33 -19.67 22.67 -19.67 22.67 -14 32.5 -8.33 42.33 rrcurveto
          -8.33 42.33 -4.17 54.84 67.33 vvcurveto
          102 3.67 152 7.33 202 vhcurveto
          endchar
        </CharString>
        <CharString name="cid00866" fdSelectIndex="0">
          613 267 rmoveto
          2 -1 -0.02 -2.67 0.17 -3.66 0.35 -4.67 rlinecurve
          0.31 -4.67 0.17 -3.33 0.02 -2 -1.33 -70 -24.34 -56.83 -47.33 -43.67 -47.33 -43.67 -69 -27.83 -90.67 -12 7 -44 rcurveline
          111.33 17.33 80.84 35 50.33 52.67 rrcurveto
          50.33 52.67 25.17 75 97.33 vvcurveto
          39.33 -4.67 37.67 -9.33 36 vhcurveto
          240 276 42 -276 140 -47 -140 -523 -42 523 -135 vlineto
          -2 -1 rlineto
          39.33 -39.33 -48.34 19.67 -57.33 hhcurveto
          -52.67 -44.16 -17.83 -35.67 -35.67 hvcurveto
          -35.67 -35.67 -17.83 -43.83 -52 vvcurveto
          -52 17.83 -43.83 35.67 -35.67 vhcurveto
          -35.67 35.67 44.16 -17.83 52.67 hhcurveto
          36.67 32.5 7.5 15 28.33 hvcurveto
          28.33 15 20.84 20.5 13.33 26 rrcurveto
          -299 101 rmoveto
          39.33 14 33.5 28 27.67 vhcurveto
          27.67 28 34.33 13.83 40.67 hhcurveto
          40.67 34.33 -13.83 -27.67 28 hvcurveto
          28 -27.67 14 -33.5 -39.33 vvcurveto
          -39.33 -14 -33.34 -28 -27.33 vhcurveto
          -27.33 -28 -34.33 -13.67 -40.67 hhcurveto
          -40.67 -34.33 13.67 27.33 -28 hvcurveto
          -28 27.33 -14 33.34 39.33 vvcurveto
          endchar
        </CharString>
        <CharString name="cid00867" fdSelectIndex="0">
          698 500 rmoveto
          32 -48.67 32 -54.33 32 -60 39 19 rcurveline
          -39.33 72 -32 55.33 -24.67 38.67 rrcurveto
          93 18 rmoveto
          31.33 -47.33 33.34 -55.67 35.33 -64 39 20 rcurveline
          -28.67 54 -33.33 56.33 -38 58.67 rrcurveto
          -296 -295 rmoveto
          2 -1 -0.02 -2.67 0.17 -3.66 0.35 -4.67 rlinecurve
          0.32 -4.67 0.16 -3.33 0.02 -2 -1.33 -70 -24.34 -56.83 -47.33 -43.67 -47.33 -43.67 -69 -27.83 -90.67 -12 7 -44 rcurveline
          111.33 17.33 80.84 35 50.33 52.67 rrcurveto
          50.33 52.67 25.17 75 97.33 vvcurveto
          39.33 -4.67 37.67 -9.33 36 vhcurveto
          240 298 42 -298 140 -47 -140 -502 -42 502 -135 vlineto
          -2 -1 rlineto
          39.33 -39.33 -48.34 19.67 -57.33 hhcurveto
          -52.67 -44.16 -17.83 -35.67 -35.67 hvcurveto
          -35.67 -35.67 -17.83 -43.83 -52 vvcurveto
          -52 17.83 -43.83 35.67 -35.67 vhcurveto
          -35.67 35.67 44.16 -17.83 52.67 hhcurveto
          36.67 32.5 7.5 15 28.33 hvcurveto
          28.33 15 20.84 20.5 13.33 26 rrcurveto
          -299 101 rmoveto
          39.33 14 33.5 28 27.67 vhcurveto
          27.67 28 34.33 13.83 40.67 hhcurveto
          40.67 34.33 -13.83 -27.67 28 hvcurveto
          28 -27.67 14 -33.5 -39.33 vvcurveto
          -39.33 -14 -33.34 -28 -27.33 vhcurveto
          -27.33 -28 -34.33 -13.67 -40.67 hhcurveto
          -40.67 -34.33 13.67 27.33 -28 hvcurveto
          -28 27.33 -14 33.34 39.33 vvcurveto
          endchar
        </CharString>
        <CharString name="cid00868" fdSelectIndex="0">
          242 772 rmoveto
          -203 vlineto
          -37.33 -0.65 -55.34 -0.33 -73.33 -0.02 rrcurveto
          -43 vlineto
          73.33 55.34 0.33 0.67 37.33 hvcurveto
          -326 vlineto
          -50.67 3.83 -39.66 7.67 -28.67 vhcurveto
          7.67 -28.67 15.66 -23.5 23.67 -18.33 23.67 -18.33 30.66 -12.17 37.67 -6 rrcurveto
          -6 37.67 51.83 -3 66 hhcurveto
          105.33 92.67 6.67 13.33 80 hvcurveto
          -5 44 rlineto
          -13.33 -82 -91 -6.67 -100 hhcurveto
          -46.67 -37.66 1.5 3 -28.67 hvcurveto
          -28.67 3 -24.66 5.17 -20.67 7.33 -20.67 7.33 -15.33 11.34 -10 15.33 -10 15.33 -7 18.17 -4 21 rrcurveto
          -4 21 -2 27.5 34 vvcurveto
          326 vlineto
          158.67 2 142 3.33 125.33 4.67 rrcurveto
          -165 vlineto
          -43.33 -1.67 -25.17 -3.33 -7 vhcurveto
          -7 -3.33 -12.34 -3.5 -21.33 hhcurveto
          -18 -30.67 5 10 -43.33 hvcurveto
          -43.33 10 -33.67 9.67 -24 9.33 -14 -42 rcurveline
          24.67 -10.67 36 -10.66 47.33 -10.67 rrcurveto
          -10.67 47.33 35 -5.33 22.67 hhcurveto
          34.67 22.33 7.67 15.33 10 hvcurveto
          10 15.33 5 34 52.67 vvcurveto
          174 vlineto
          73.33 2.67 54.67 2.33 36 2 -2 43 rcurveline
          -162 -6 rlineto
          218 -46 -220 vlineto
          -125.33 -4.66 -142 -3.34 -158.67 -2 rrcurveto
          202 vlineto
          endchar
        </CharString>
        <CharString name="cid00869" fdSelectIndex="0">
          218 762 rmoveto
          -206 vlineto
          -17.33 -26 -0.17 -0.33 -34.67 hvcurveto
          -0.33 -34.67 -25.66 -0.17 -16.67 hhcurveto
          -43 155 -322 vlineto
          -50.67 3.83 -39.66 7.67 -28.67 vhcurveto
          7.67 -28.67 15.83 -23.5 24 -18.33 24 -18.33 30.83 -12.17 37.67 -6 rrcurveto
          -6 37.67 51.83 -3 66 hhcurveto
          105.33 92.67 6.67 13.33 80 hvcurveto
          -5 44 rlineto
          -13.33 -82 -91 -6.67 -100 hhcurveto
          -46.67 -37.66 1.5 3 -28.67 hvcurveto
          -28.67 3 -24.66 5.17 -20.67 7.33 -20.67 7.33 -15.33 11.34 -10 15.33 -10 15.33 -7 18.17 -4 21 rrcurveto
          -4 21 -2 27.5 34 vvcurveto
          323 vlineto
          183.33 2.67 137 3 90.67 3.33 rrcurveto
          -163 vlineto
          0.02 -42.67 -1.84 -25 -3.68 -7.33 rrcurveto
          -7.33 -3.67 -12.5 -3.67 -21.33 hhcurveto
          -18 -30.5 5.17 10.33 -43 hvcurveto
          -43 10.33 -33.83 9.84 -24.67 9.33 -14 -43 rcurveline
          24 -10.67 36 -10.5 48 -10.33 rrcurveto
          -10.33 48 35.33 -5.17 22.67 hhcurveto
          34.67 22.33 7.5 15 10 hvcurveto
          10 15 5 33.83 52.67 vvcurveto
          172 vlineto
          42 1.33 63 2.67 84 4 -2 43 rcurveline
          -82.67 -4 -62.33 -2.67 -42 -1.33 rrcurveto
          223 -46 -224 vlineto
          -121.33 -4.66 -137 -3.34 -152.67 -2 rrcurveto
          206 vlineto
          485 59 rmoveto
          29.33 -52.67 26 -50.66 22.67 -48.67 39 14 rcurveline
          -25.33 54.67 -26.67 51.33 -28 48 rrcurveto
          84 3 rmoveto
          28 -49.33 27 -52 26 -54.67 39 14 rcurveline
          -21.33 46 -27 52.33 -32.67 58.67 rrcurveto
          endchar
        </CharString>
        <CharString name="cid00870" fdSelectIndex="0">
          235 745 rmoveto
          -43 444 -2 vlineto
          -236.67 -179.33 -201.33 -95.67 -166 -12 3 -43 rcurveline
          481 36 rlineto
          -2 vlineto
          -75.33 -32.67 -56.17 -38.16 -37 -43.67 rrcurveto
          -37 -43.67 -18.5 -46.5 -49.33 vvcurveto
          -26 5 -23.67 10 -21.33 vhcurveto
          10 -21.33 16.83 -20.17 23.67 -19 23.67 -19 34.5 -15 45.33 -11 rrcurveto
          -11 45.33 54.34 -5.5 63.33 hhcurveto
          57.33 48 3.67 7.33 38.67 hvcurveto
          -6 44 rlineto
          -7.33 -42 -46 -3.67 -50 hhcurveto
          -188 -94 51 102 52 24.5 48.33 49 44.67 hvcurveto
          49 44.67 70.83 38 92.67 31.33 234 17 rcurveline
          -3 43 -613 -45 -1 2 137.33 48 156.67 91 176 134 rlinecurve
          42 vlineto
          endchar
        </CharString>
        <CharString name="cid00871" fdSelectIndex="0">
          202 745 rmoveto
          -43 433 vlineto
          1 -2 -236.67 -178.67 -198 -95.66 -159.33 -12.67 rlinecurve
          3 -43 480 36 1 -2 -75.33 -32.67 -56.17 -38.16 -37 -43.67 rlinecurve
          -37 -43.67 -18.5 -46.5 -49.33 vvcurveto
          -26 5 -23.67 10 -21.33 vhcurveto
          10 -21.33 16.67 -20.17 23.33 -19 23.33 -19 34.34 -15 45.33 -11 rrcurveto
          -11 45.33 54.34 -5.5 63.33 hhcurveto
          58 48.33 3.67 7.33 38.67 hvcurveto
          -6 44 rlineto
          -7.33 -42 -46.33 -3.67 -50.67 hhcurveto
          -187.33 -93.67 51 102 52 24.5 48.33 49 44.67 hvcurveto
          49 44.67 70.83 38 92.67 31.33 233 17 rcurveline
          -2 43 -613 -45 -1 2 125.33 44 153.34 91 181.33 138 rlinecurve
          42 vlineto
          28 -54 rmoveto
          34 -60.67 26.33 -50.66 18.67 -40.67 38 14 rcurveline
          -28.67 60.67 -26.33 51.33 -24 42 rrcurveto
          84 3 rmoveto
          23.33 -41.33 26.67 -52 30 -62.67 39 14 rcurveline
          -21.33 46 -27 52.33 -32.67 58.67 rrcurveto
          endchar
        </CharString>
        <CharString name="cid00872" fdSelectIndex="0">
          875 442 rmoveto
          43 vlineto
          -134.67 -132.33 -9.33 -18.67 -130 hvcurveto
          4 -44 rlineto
          19.33 133.33 131 9.67 128.67 hhcurveto
          15 -404 rmoveto
          -13.33 -74 -68.33 -6.67 -62.67 hhcurveto
          -69.33 -56 11 22 -42.67 hvcurveto
          -42.67 22 -21.33 28.33 34.67 vvcurveto
          33.33 33.67 39 67.33 44.67 vhcurveto
          -29 31 rlineto
          -78.67 -52.67 -39.33 -50.33 -48 vvcurveto
          -46 25.67 -37.83 51.33 -29.67 vhcurveto
          -29.67 51.33 67 -14.83 82.67 hhcurveto
          66 70.33 6.67 13.33 74.67 hvcurveto
          -781 630 rmoveto
          160 hlineto
          -51.33 -241.33 -63 -220 -74.67 -198.67 45 -12 rcurveline
          78 208 64 224 50 240 rrcurveto
          379 43 -370 hlineto
          7.33 34.67 8.34 43.66 9.33 52.67 -47 6 rcurveline
          -7.33 -42 -8.67 -45.67 -10 -49.33 rrcurveto
          -169 hlineto
          endchar
        </CharString>
        <CharString name="cid00873" fdSelectIndex="0">
          701 792 rmoveto
          30.67 -47.33 29.33 -49.67 28 -52 36 19 rcurveline
          -36 64.67 -29.33 50 -22.67 35.33 rrcurveto
          92 -2 rmoveto
          30.67 -48 30 -50.67 29.33 -53.33 37 19 rcurveline
          -24 44 -30 51 -36 58 rrcurveto
          -398 -383 rmoveto
          4 -44 rlineto
          19.33 133.33 131 9.67 128.67 hhcurveto
          43 vlineto
          -134.67 -132.33 -9.33 -18.67 -130 hvcurveto
          418 -462 rmoveto
          -6 43 rlineto
          -13.33 -74 -68.33 -6.67 -62.67 hhcurveto
          -69.33 -56 11 22 -42.67 hvcurveto
          -42.67 22 -21.33 28.33 34.67 vvcurveto
          33.33 33.67 39 67.33 44.67 vhcurveto
          -29 31 rlineto
          -78.67 -52.67 -39.33 -50.66 -48.67 vvcurveto
          -46 25.67 -37.67 51.33 -29.33 vhcurveto
          -29.33 51.33 67 -14.67 82.67 hhcurveto
          66 70.33 6.67 13.33 74.67 hvcurveto
          -781 630 rmoveto
          160 hlineto
          -51.33 -241.33 -63 -220 -74.67 -198.67 45 -12 rcurveline
          78 208 64 224 50 240 rrcurveto
          372 43 -363 hlineto
          7.33 34.67 8.34 43.66 9.33 52.67 -47 6 rcurveline
          -7.33 -42 -8.67 -45.67 -10 -49.33 rrcurveto
          -169 hlineto
          endchar
        </CharString>
        <CharString name="cid00874" fdSelectIndex="0">
          107 607 rmoveto
          230 hlineto
          -26.67 -98.67 -42 -104.33 -57.33 -110 40 -22 rcurveline
          38.67 26.67 49.16 22.5 59.67 18.33 rrcurveto
          18.33 59.67 53.83 9.17 48 hhcurveto
          151.33 75.67 -54.67 -109.33 -59.33 -27.83 -47.34 -55.67 -35.33 hvcurveto
          -35.33 -55.67 -74.5 -17.67 -93.33 hhcurveto
          -70.67 -76.33 7.33 14.67 -82 hvcurveto
          -7 -43 rlineto
          -14.67 77.33 78.67 -7.33 80 hhcurveto
          108 86.17 21.67 43.33 64.33 hvcurveto
          64.33 43.33 32.17 57.34 71.33 vvcurveto
          68 -23 51.67 -46 35.33 vhcurveto
          35.33 -46 -68 17.67 -90 hhcurveto
          -41.33 -46.84 -7 -14 -52.33 hvcurveto
          -52.33 -14 -46.17 -17.33 -40 -20.67 -2 1 rcurveline
          46 95.33 34.33 89.67 22.67 84 rrcurveto
          509 43 -498 hlineto
          10.67 41.33 9.33 46.67 8 52 -46 5 rcurveline
          -10.67 -60 -9.66 -48.33 -8.67 -36.67 rrcurveto
          -241 hlineto
          endchar
        </CharString>
        <CharString name="cid00875" fdSelectIndex="0">
          736 810 rmoveto
          32.67 -50.67 29.33 -49.33 26 -48 36 19 rcurveline
          -33.33 60.67 -29.34 49.66 -25.33 38.67 rrcurveto
          92 -1 rmoveto
          28 -43.33 30 -51 32 -58.67 37 19 rcurveline
          -26.67 49.33 -30 51.34 -33.33 53.33 rrcurveto
          -804 -264 rmoveto
          226 hlineto
          -27.33 -97.33 -40.67 -100.34 -54 -103.33 40 -22 rcurveline
          38.67 26.67 49.16 22.5 59.67 18.33 rrcurveto
          18.33 59.67 53.83 9.17 48 hhcurveto
          151.33 75.67 -54.67 -109.33 -59.33 -27.83 -47.34 -55.67 -35.33 hvcurveto
          -35.33 -55.67 -74.5 -17.67 -93.33 hhcurveto
          -70.67 -76.33 7.33 14.67 -82 hvcurveto
          -7 -43 rlineto
          -14.67 77.33 78.67 -7.33 80 hhcurveto
          108 86.17 21.67 43.33 64.33 hvcurveto
          64.33 43.33 32.17 57.34 71.33 vvcurveto
          68 -23 51.67 -46 35.33 vhcurveto
          35.33 -46 -68 17.67 -90 hhcurveto
          -41.33 -46.84 -7 -14 -52.33 hvcurveto
          -52.33 -14 -46.17 -17.33 -40 -20.67 -2 1 rcurveline
          42 87.33 33 85.67 24 84 rrcurveto
          513 43 -501 hlineto
          11.33 45.33 10.34 50.67 9.33 56 -46 5 rcurveline
          -8 -51.33 -10.67 -52.34 -13.33 -53.33 rrcurveto
          -238 hlineto
          endchar
        </CharString>
        <CharString name="cid00876" fdSelectIndex="0">
          173 474 rmoveto
          11 -44 rlineto
          40.67 150 112.67 20.33 75.33 hhcurveto
          86.67 64.16 -17.17 -34.33 41.67 hvcurveto
          41.67 -34.33 20.83 -52.5 -70.67 vvcurveto
          -167.33 -153 -83.67 -306 vhcurveto
          3 -45 rlineto
          165.33 125.5 25.5 51 85.67 hvcurveto
          85.67 51 42.83 74.17 97.33 vvcurveto
          168 -100 84 -200 -80.67 -117.66 -21 -42 -154.67 vhcurveto
          endchar
        </CharString>
        <CharString name="cid00877" fdSelectIndex="0">
          93 599 rmoveto
          11 -46 rlineto
          51.33 188.67 141.33 25.67 94 hhcurveto
          110.67 82 -22 -44 53.33 hvcurveto
          53.33 -44 26.67 -67.33 -90.67 vvcurveto
          -213.33 -193.33 -106.67 -386.67 vhcurveto
          3 -47 rlineto
          205.33 156 31.67 63.33 106.67 hvcurveto
          106.67 63.33 53.33 91.67 120 vvcurveto
          208.67 -124.33 104.33 -248.67 -100 -146.33 -26.33 -52.67 -192.67 vhcurveto
          endchar
        </CharString>
        <CharString name="cid00878" fdSelectIndex="0">
          714 795 rmoveto
          32.67 -50.67 29.33 -49.33 26 -48 36 19 rcurveline
          -33.33 60.67 -29.34 49.66 -25.33 38.67 rrcurveto
          92 -1 rmoveto
          28 -43.33 30 -51 32 -58.67 37 19 rcurveline
          -26.67 49.33 -30 51.34 -33.33 53.33 rrcurveto
          -800 -245 rmoveto
          12 -46 rlineto
          51.33 188.67 141.33 25.67 94 hhcurveto
          110.67 82 -22 -44 53.33 hvcurveto
          53.33 -44 26.67 -67.33 -90.67 vvcurveto
          -213.33 -193.33 -106.67 -386.67 vhcurveto
          2 -47 rlineto
          205.33 156.17 31.67 63.33 107 hvcurveto
          107 63.33 53.5 91.67 120 vvcurveto
          208.67 -124.67 104.33 -249.33 -100 -146.33 -26.33 -52.67 -192.67 vhcurveto
          endchar
        </CharString>
        <CharString name="cid00879" fdSelectIndex="0">
          312 278 rmoveto
          -94 31.5 -74.67 63 -55.33 vhcurveto
          -55.33 63 85.5 -27.67 108 hhcurveto
          44 45 3.67 7.33 46 hvcurveto
          -6 45 rlineto
          -6.67 -40 -42.33 -3.33 -44.67 hhcurveto
          -92 -73.33 23.67 47.33 -54.67 hvcurveto
          -54.67 47.33 -27.33 64.34 81.33 vvcurveto
          102.67 47.83 85.66 95.67 68.67 vhcurveto
          95.67 68.67 132.5 41.33 169.33 14 -2 45 rcurveline
          -13.33 -274 -268.33 -6.67 -262.67 hhcurveto
          -45 vlineto
          184 185.33 4 8 186.67 hvcurveto
          -2 vlineto
          -107.33 -33.33 -83.67 -49.34 -60 -65.33 rrcurveto
          -60 -65.33 -30 -75.34 -85.33 vvcurveto
          endchar
        </CharString>
        <CharString name="cid00880" fdSelectIndex="0">
          685 495 rmoveto
          32 -48.67 32 -54.33 32 -60 39 19 rcurveline
          -35.33 65.33 -32.34 55.34 -29.33 45.33 rrcurveto
          94 18 rmoveto
          38 -59.33 33.33 -55.67 28.67 -52 39 20 rcurveline
          -28.67 54 -33.33 56.33 -38 58.67 rrcurveto
          -564 -291 rmoveto
          -97.33 31.5 -76.84 63 -56.33 vhcurveto
          -56.33 63 85.5 -28.17 108 hhcurveto
          44 45 3.67 7.33 46 hvcurveto
          -6 45 rlineto
          -6.67 -40 -42.33 -3.33 -44.67 hhcurveto
          -92.67 -73.5 24.33 48.67 -54.33 hvcurveto
          -54.33 48.67 -27.17 66.66 84.67 vvcurveto
          106 47.83 88.33 95.67 70.67 vhcurveto
          95.67 70.67 132.5 42.33 169.33 14 -2 45 rcurveline
          -14 -287.33 -268.34 -7 -249.33 hhcurveto
          -45 vlineto
          166.67 185.66 4.33 8.67 204.67 hvcurveto
          -2 vlineto
          -108.67 -33.33 -84.16 -50.34 -59.67 -67.33 rrcurveto
          -59.67 -67.33 -29.83 -78.34 -89.33 vvcurveto
          endchar
        </CharString>
        <CharString name="cid00881" fdSelectIndex="0">
          268 775 rmoveto
          19.33 -119.33 25.34 -118.34 31.33 -117.33 rrcurveto
          -126 -68.67 -63 -79 -89.33 vvcurveto
          -70.67 32.33 -54 64.67 -37.33 vhcurveto
          -37.33 64.67 93.66 -18.67 122.67 hhcurveto
          91.33 101 7.33 14.67 110.67 hvcurveto
          -5 45 rlineto
          -14.67 -110 -99.33 -7.33 -88.67 hhcurveto
          -218.67 -109.33 58.33 116.67 138.67 207.67 117.33 415.33 96 hvcurveto
          -10 44 -179.33 -40.67 -143 -46 -106.67 -51.33 rlinecurve
          -29.33 111.33 -24 113.34 -18.67 115.33 rrcurveto
          endchar
        </CharString>
        <CharString name="cid00882" fdSelectIndex="0">
          618 769 rmoveto
          30 -45.33 32 -54.67 34 -64 39 20 rcurveline
          -36.67 68 -32 55 -27.33 42 rrcurveto
          93 19 rmoveto
          34.67 -54.67 33.33 -56 32 -57.33 39 20 rcurveline
          -28.67 54 -33.33 56.33 -38 58.67 rrcurveto
          19 -328 rmoveto
          -10 44 -178 -40 -141.33 -43.33 -104.67 -46.67 rlinecurve
          -30 114 -25.67 119 -21.33 124 -49 -8 rcurveline
          20.67 -125.33 26.66 -123.67 32.67 -122 rrcurveto
          -128.67 -65.33 -64.33 -77 -88.67 vvcurveto
          -138.67 126 -69.33 252 91.33 101 7.33 14.67 110.67 vhcurveto
          -5 45 rlineto
          -14.67 -110 -99.33 -7.33 -88.67 hhcurveto
          -218.67 -109.33 54.33 108.67 66.67 49.83 60.83 99.67 55 hvcurveto
          99.67 55 157.83 52.17 216 49.33 rrcurveto
          endchar
        </CharString>
        <CharString name="cid00883" fdSelectIndex="0">
          929 593 rmoveto
          6 44 rlineto
          13.33 -80 -91.67 6.67 -103.33 hhcurveto
          -417 vlineto
          23.33 -57.33 -53.67 11.67 -50 hhcurveto
          -64.67 -49.83 -13.33 -26.67 -35 hvcurveto
          -35 -26.67 -17.5 -37.33 -48 vvcurveto
          -50 17.83 -39.17 35.67 -28.33 vhcurveto
          -28.33 35.67 49.5 -14.17 63.33 hhcurveto
          76 53.67 15 30 31.33 hvcurveto
          31.33 30 15.67 51.67 73.33 vvcurveto
          7 vlineto
          59.33 -32.67 65.34 -43.66 71.33 -54.67 29 34 rcurveline
          -83.33 64.67 -75 48.66 -66.67 32.67 rrcurveto
          393 vlineto
          80 -1.33 74 -6.34 68 -11.33 rrcurveto
          -852 20 rmoveto
          177 hlineto
          -54 -160 -65.67 -164.67 -77.33 -169.33 42 -17 rcurveline
          80 176.67 67.33 170.33 54.67 164 rrcurveto
          214 44 -200 hlineto
          17.33 54.67 15 49.66 12.67 44.67 -44 8 rcurveline
          -14 -50.67 -16 -52.33 -18 -54 rrcurveto
          -191 hlineto
          583 -463 rmoveto
          -31 vlineto
          -60.67 -11.33 -41.5 -22.67 -22.33 vhcurveto
          -22.33 -22.67 -42.33 -11.17 -62 hhcurveto
          -49.33 -38.17 10.33 20.67 -27 hvcurveto
          -27 20.67 -13.5 29 37.33 vvcurveto
          72.67 51.67 36.33 103.33 51.33 53.67 -12.67 -25.33 56 vhcurveto
          endchar
        </CharString>
        <CharString name="cid00884" fdSelectIndex="0">
          442 625 rmoveto
          422 44 -422 hlineto
          -219 89 rmoveto
          -48 7 rlineto
          -33.33 -126 -16.67 -135 -144 vvcurveto
          -144 16.67 -135 33.33 -126 vhcurveto
          48 7 rlineto
          -33.33 124 -16.67 132.67 141.33 vvcurveto
          141.33 16.67 132.67 33.33 124 vhcurveto
          657 -680 rmoveto
          -19.33 -75.33 -72.67 -9.67 -70 hhcurveto
          -76 -59.83 11.83 23.67 -43.67 hvcurveto
          -43.67 23.67 -21.83 32.5 41.33 vvcurveto
          22.67 10.33 26.33 20.67 30 vhcurveto
          20.67 30 28 28.33 35.33 26.67 -32 31 rcurveline
          -40.67 -30.67 -32.16 -33 -23.67 -35.33 rrcurveto
          -23.67 -35.33 -11.83 -32 -28.67 vvcurveto
          -54 26.5 -43.17 53 -32.33 vhcurveto
          -32.33 53 71.5 -16.17 90 hhcurveto
          75.33 75.34 10 20 75.33 hvcurveto
          endchar
        </CharString>
        <CharString name="cid00885" fdSelectIndex="0">
          199 757 rmoveto
          12.67 -58.67 15.66 -66 18.67 -73.33 -51.33 -36 -40 -45.33 -28.67 -54.67 rrcurveto
          -28.67 -54.67 -14.33 -60 -65.33 vvcurveto
          -74.67 15.83 -58.66 31.67 -42.67 vhcurveto
          -42.67 31.67 37.16 -21.33 42.67 hhcurveto
          59.33 66.5 48.67 97.33 73.67 hvcurveto
          73.67 97.33 69.16 142.34 64.67 187.33 65.33 -20.67 51.5 -35 37.67 -49.33 rrcurveto
          37.67 -49.33 18.83 -58.67 -68 vvcurveto
          -46 -3.67 -41.33 -7.33 -36.67 vhcurveto
          40.67 -50 -52.33 20.33 -54.67 hhcurveto
          -47.33 -38 -11.83 -23.67 -28.67 hvcurveto
          -28.67 -23.67 -14.33 -31.5 -39.33 vvcurveto
          -40 14.67 -32.83 29.33 -25.67 vhcurveto
          -25.67 29.33 37 -12.83 44.67 hhcurveto
          80 59.67 42.67 85.33 39.33 hvcurveto
          24 -26.67 17.66 -20.66 11.34 -14.67 33 26 rcurveline
          -26 33.33 -23 26.67 -20 20 rrcurveto
          14 44.67 7 52.66 60.67 vvcurveto
          78.67 -21.67 67.83 -43.33 57 vhcurveto
          -43.33 57 -59.34 40.17 -75.33 23.33 17.33 52 17.34 58.67 17.33 65.33 -44 10 rcurveline
          -18.66 -67.33 -17.34 -58 -16 -48.67 rrcurveto
          6 -30.67 -33.33 3 -36 hhcurveto
          -88 -78.33 -19 -38 -68.67 hvcurveto
          -18 68 -14.67 61 -11.33 54 rrcurveto
          165 -588 rmoveto
          -44 131.33 -36.33 120 -28.67 108.67 rrcurveto
          38 64 74.33 19 84.67 hhcurveto
          28 28.33 -2.67 -5.33 28.67 hvcurveto
          -61.33 -175.33 -66.34 -136.34 -71.33 -97.33 rrcurveto
          -32 -41 rmoveto
          -58 -49.33 -44 -29 -38.67 hhcurveto
          -30 -26.5 17.33 34.67 -23 hvcurveto
          -23 34.67 -11.5 47 59.33 vvcurveto
          54.67 11.33 50.5 22.67 46.33 vhcurveto
          22.67 46.33 32 39.17 41.33 32 32 -118.67 38.67 -125 45.33 -131.33 rrcurveto
          462 -11 rmoveto
          -79.33 -28 -48.67 -39.67 -69.33 hhcurveto
          -33.33 -27 8.83 17.67 -20.67 hvcurveto
          -20.66 17.67 -10.34 22.83 28 vvcurveto
          26.67 10.16 21.33 20.34 16 vhcurveto
          16 20.33 27.17 8 34 hhcurveto
          51.33 48.67 -21.33 -42.67 46 hvcurveto
          endchar
        </CharString>
        <CharString name="cid00886" fdSelectIndex="0">
          77 612 rmoveto
          -42 211 -131 vlineto
          -58.67 -63.33 -74.66 -90 -90.67 -116.67 34 -29 rcurveline
          68 88 63.33 77 58.67 66 rrcurveto
          -424 45 474 vlineto
          74.67 79.33 62.83 54.84 51 30.33 rrcurveto
          30.33 51 47.83 15.17 44.67 hhcurveto
          128.67 64.33 -100.33 -200.67 -48.67 -5 -46.66 -10 -44.67 hvcurveto
          53.33 -55.33 -58.67 26.67 -62 hhcurveto
          -51.33 -41.17 -13 -26 -31 hvcurveto
          -31 -26 -15.5 -34.67 -43.33 vvcurveto
          -44 16 -36 32 -28 vhcurveto
          -28 32 40.67 -14 49.33 hhcurveto
          88 65 43 86 42 hvcurveto
          8 -9.33 17.33 -21.34 26.67 -33.33 33 28 rcurveline
          -29.33 38 -22.34 27.33 -15.33 16.67 rrcurveto
          16.67 52 8.33 59.33 66.67 vvcurveto
          114.67 -20.17 86.5 -40.33 58.33 vhcurveto
          58.33 -40.33 -59.17 29.17 -78 hhcurveto
          -48.67 -50 -13.83 -27.67 -51.33 hvcurveto
          -51.33 -27.67 -61.34 -49.83 -71.33 -72 rrcurveto
          297 -45 -171 vlineto
          541 -469 rmoveto
          -82 -31.33 -54 -41 -76.67 hhcurveto
          -36.67 -30 10 20 -23.33 hvcurveto
          -23.33 20 -11.67 25.67 31.33 vvcurveto
          30 11.33 24.17 22.67 18.33 vhcurveto
          18.33 22.67 30.33 9.17 38 hhcurveto
          28.67 26.16 -5.67 -11.33 23.67 hvcurveto
          23.67 -11.33 27.83 -22.34 32 -33.33 rrcurveto
          endchar
        </CharString>
        <CharString name="cid00887" fdSelectIndex="0">
          603 28 rmoveto
          8 -45 94 8 74.5 37.67 55 67.33 rlinecurve
          55 67.33 27.5 88 108.67 vvcurveto
          104 -35.5 85.67 -71 67.33 vhcurveto
          67.33 -71 -90.17 33.67 -109.33 hhcurveto
          -134.67 -109.83 -38.67 -77.33 -85 hvcurveto
          -85 -77.33 -42.5 -100 -122.67 vvcurveto
          -81.33 19 -68.67 38 -56 vhcurveto
          -56 38 41.67 -28 45.33 hhcurveto
          136.67 90 220.33 440.67 43.33 hvcurveto
          5 hlineto
          95.33 78.84 -29.5 -59 62.33 hvcurveto
          62.33 -59 31.17 -74.83 -90.67 vvcurveto
          -95.33 -23.67 -77.17 -47.33 -59 vhcurveto
          -47.33 -59 -65.34 -33.5 -83.33 -8 rrcurveto
          -116 643 rmoveto
          -8.67 -83.33 -10.16 -75.17 -11.67 -67 -11.67 -67 -12.33 -55.17 -13 -43.33 -13 -43.33 -13.33 -36.84 -13.67 -30.33 -13.67 -30.33 -13.83 -23 -14 -15.67 -14 -15.67 -12.83 -11 -11.67 -6.33 rrcurveto
          -6.33 -11.67 -11.5 -3.17 -11.33 hhcurveto
          -30.67 -30.16 23.5 47 -29.67 hvcurveto
          -29.67 47 -14.83 57.83 68.67 vvcurveto
          101.33 32.67 84.17 65.33 67 vhcurveto
          65.33 67 86.34 38.83 107.33 10.67 rrcurveto
          endchar
        </CharString>
        <CharString name="cid00888" fdSelectIndex="0">
          924 565 rmoveto
          43 -183 174 -47 -174 -326 -43 326 -324 vlineto
          24 -48 -47.33 12 -46.67 hhcurveto
          -66.67 -51.33 -13.17 -26.33 -36 hvcurveto
          -36 -26.33 -18 -37.5 -48.67 vvcurveto
          -53.33 18.17 -41.34 36.33 -29.33 vhcurveto
          -29.33 36.33 51.17 -14.67 66 hhcurveto
          64 47.5 15.67 31.33 31 hvcurveto
          31 31.33 15.5 48.67 66 vvcurveto
          10 vlineto
          38 -26.67 50 -43.33 62 -60 32 33 rcurveline
          -72 69.33 -60.67 50.34 -49.33 31.33 rrcurveto
          351 vlineto
          -542 193 rmoveto
          -45 7 rlineto
          -34 -128 -17 -135 -142 vvcurveto
          -142 17 -135 34 -128 vhcurveto
          45 7 rlineto
          -32.67 121.33 -16.33 132.67 144 vvcurveto
          144 16.33 132.67 32.67 121.33 vhcurveto
          495 -568 rmoveto
          -38 vlineto
          -53.33 -11.33 -38.67 -22.67 -24 vhcurveto
          -24 -22.67 -36.33 -12 -50 hhcurveto
          -51.33 -39.5 10.67 21.33 -27.67 hvcurveto
          -27.67 21.33 -13.83 31 40.67 vvcurveto
          71.33 53.33 35.67 106.67 46.67 47.66 -14 -28 48.67 vhcurveto
          endchar
        </CharString>
        <CharString name="cid00889" fdSelectIndex="0">
          750 815 rmoveto
          27.33 -49.33 26 -51 24.67 -52.67 39 15 rcurveline
          -24 50.67 -26.67 51 -29.33 51.33 rrcurveto
          84 3 rmoveto
          28 -49.33 27 -52 26 -54.67 39 14 rcurveline
          -23.33 50 -27 52.67 -30.67 55.33 rrcurveto
          -570 -254 rmoveto
          -43 324 -319 vlineto
          22.67 -45.33 -46.34 11.33 -47.33 hhcurveto
          -66.67 -51.33 -13.17 -26.33 -36 hvcurveto
          -36 -26.33 -18 -37.5 -48.67 vvcurveto
          -53.33 18.17 -41.34 36.33 -29.33 vhcurveto
          -29.33 36.33 51.17 -14.67 66 hhcurveto
          62 46.33 15.67 31.33 30.67 hvcurveto
          30.67 31.33 15.33 48.67 66 vvcurveto
          13 vlineto
          42 -28.67 51.33 -44.33 60.67 -60 32 33 rcurveline
          -72 70 -62 51.33 -52 32.67 rrcurveto
          345 200 43 -200 177 -46 -177 vlineto
          -478 153 rmoveto
          -46 7 rlineto
          -33.33 -126 -16.67 -135 -144 vvcurveto
          -144 16.67 -135 33.33 -126 vhcurveto
          46 7 rlineto
          -32.67 121.33 -16.33 132.67 144 vvcurveto
          144 16.33 132.67 32.67 121.33 vhcurveto
          478 -566 rmoveto
          -40 vlineto
          -53.33 -11.17 -38.67 -22.33 -24 vhcurveto
          -24 -22.33 -35.5 -12 -48.67 hhcurveto
          -51.33 -39.5 10.67 21.33 -27.67 hvcurveto
          -27.67 21.33 -13.83 31 40.67 vvcurveto
          71.33 53.33 35.67 106.67 46.67 46.66 -13.33 -26.67 46.67 vhcurveto
          endchar
        </CharString>
        <CharString name="cid00890" fdSelectIndex="0">
          755 735 rmoveto
          -32.67 11.83 -28.16 23.67 -23.67 vhcurveto
          -23.67 23.67 28.16 -11.83 32.67 hhcurveto
          32.67 28.16 11.83 23.67 23.67 hvcurveto
          23.67 23.67 11.83 28.16 32.67 vvcurveto
          32.67 -11.83 28.16 -23.67 23.67 vhcurveto
          23.67 -23.67 -28.16 11.83 -32.67 hhcurveto
          -32.67 -28.16 -11.83 -23.67 -23.67 hvcurveto
          -23.67 -23.67 -11.83 -28.16 -32.67 vvcurveto
          -404 -143 rmoveto
          -44 317 -317 vlineto
          24 -48 -47.33 12 -46.67 hhcurveto
          -66.67 -51.33 -13.17 -26.33 -36 hvcurveto
          -36 -26.33 -18 -37.5 -48.67 vvcurveto
          -53.33 18.17 -41.34 36.33 -29.33 vhcurveto
          -29.33 36.33 51.17 -14.67 66 hhcurveto
          64 47.33 15.67 31.33 30.67 hvcurveto
          30.67 31.33 15.33 48.67 66 vvcurveto
          10 vlineto
          38 -26.67 50 -43.33 62 -60 33 33 rcurveline
          -70.67 68 -61 50.33 -51.33 32.67 rrcurveto
          344 200 44 -200 180 -46 -180 vlineto
          -534 163 rmoveto
          -34 -128 -17 -135 -142 vvcurveto
          -142 17 -135 34 -128 vhcurveto
          45 7 rlineto
          -32.67 121.33 -16.33 132.67 144 vvcurveto
          144 16.33 132.67 32.67 121.33 vhcurveto
          778 -13 rmoveto
          -22.66 -8 -19.34 -16 -16 vhcurveto
          -16 -16 -19.33 -8 -22.67 hhcurveto
          -22.66 -19.34 8 16 -16 hvcurveto
          -16 16 -8 19.33 22.67 vvcurveto
          22.67 8 19.33 16 16 vhcurveto
          16 16 19.33 8 22.67 hhcurveto
          22.67 19.33 -8 -16 16 hvcurveto
          16 -16 8 -19.33 -22.67 vvcurveto
          -289 -555 rmoveto
          -38 vlineto
          -53.33 -11.5 -38.67 -23 -24 vhcurveto
          -24 -23 -36.5 -12 -50 hhcurveto
          -51.33 -39.5 10.67 21.33 -27.67 hvcurveto
          -27.67 21.33 -13.83 31 40.67 vvcurveto
          71.33 53.33 35.67 106.67 47.33 48 -14 -28 48.67 vhcurveto
          endchar
        </CharString>
        <CharString name="cid00891" fdSelectIndex="0">
          98 708 rmoveto
          -43 285 vlineto
          1 -2 -71.33 -50.67 -56.67 -62.16 -42 -73.67 rlinecurve
          -42 -73.67 -21 -74.83 -76 vvcurveto
          -94.67 26.67 -72.83 53.33 -51 vhcurveto
          -51 53.33 75.67 -25.5 98 hhcurveto
          100 79.5 30.33 60.67 59 hvcurveto
          59 60.67 29.5 81.66 102.67 vvcurveto
          96 -21.67 105.33 -43.33 114.67 vhcurveto
          2 1 68 -75.33 71 -65.67 74 -56 rlinecurve
          27 35 -52 39.33 -53.17 46.5 -54.33 53.67 rlinecurve
          -54.33 53.67 -44.17 49.16 -34 44.67 -36 -27 rcurveline
          69.33 -137.33 34.67 -135.34 -133.33 vvcurveto
          -93.33 -25.17 -73.67 -50.33 -54 vhcurveto
          -54 -50.33 -68.17 -27 -86 hhcurveto
          -84 -64.17 21.5 43 -44.33 hvcurveto
          -44.33 43 -22.17 62.83 82.67 vvcurveto
          78.67 23.83 77.16 47.67 75.67 vhcurveto
          47.67 75.67 62.16 59.83 76.67 44 rrcurveto
          44 vlineto
          endchar
        </CharString>
        <CharString name="cid00892" fdSelectIndex="0">
          708 785 rmoveto
          32 -48.67 32 -54.33 32 -60 39 19 rcurveline
          -39.33 72 -32 55.33 -24.67 38.67 rrcurveto
          93 18 rmoveto
          31.33 -47.33 33.34 -55.67 35.33 -64 39 20 rcurveline
          -28.67 54 -33.33 56.33 -38 58.67 rrcurveto
          -791 -140 rmoveto
          -43 285 vlineto
          1 -2 -71.33 -50.67 -56.67 -62.33 -42 -74 rlinecurve
          -42 -74 -21 -75 -76 vvcurveto
          -94.67 26.67 -72.83 53.33 -51 vhcurveto
          -51 53.33 75.67 -25.5 98 hhcurveto
          100 79.5 29.5 59 59 hvcurveto
          59 59 29.5 78.83 98.67 vvcurveto
          92 -22.33 100 -44.67 108 vhcurveto
          2 1 69.33 -78 71.67 -67 74 -56 rlinecurve
          27 36 -52 39.33 -53.17 46.5 -54.33 53.67 rlinecurve
          -54.33 53.67 -44.17 49.16 -34 44.67 -36 -28 rcurveline
          69.33 -134.67 34.67 -128.33 -122 vvcurveto
          -90 -25.17 -71 -50.33 -52 vhcurveto
          -52 -50.33 -68.17 -26 -86 hhcurveto
          -84 -64.17 21.5 43 -44.33 hvcurveto
          -44.33 43 -22.17 62.83 82.67 vvcurveto
          78.67 23.83 77.16 47.67 75.67 vhcurveto
          47.67 75.67 62.16 59.83 76.67 44 rrcurveto
          44 vlineto
          endchar
        </CharString>
        <CharString name="cid00893" fdSelectIndex="0">
          740 723 rmoveto
          -32.67 11.67 -28.16 23.33 -23.67 vhcurveto
          -23.67 23.33 28.34 -11.83 33.33 hhcurveto
          33.33 28.34 11.83 23.67 23.33 hvcurveto
          23.33 23.67 11.67 28.16 32.67 vvcurveto
          32.67 -11.67 28.16 -23.33 23.67 vhcurveto
          23.67 -23.33 -28.34 11.83 -33.33 hhcurveto
          -33.33 -28.34 -11.83 -23.67 -23.33 hvcurveto
          -23.33 -23.67 -11.67 -28.16 -32.67 vvcurveto
          -655 -16 rmoveto
          -43 285 vlineto
          1 -2 -71.33 -50.67 -56.67 -62.33 -42 -74 rlinecurve
          -42 -74 -21 -75 -76 vvcurveto
          -94.67 26.67 -72.83 53.33 -51 vhcurveto
          -51 53.33 75.67 -25.5 98 hhcurveto
          100 79.5 29.5 59 59 hvcurveto
          59 59 29.5 78.83 98.67 vvcurveto
          92 -22.33 100 -44.67 108 vhcurveto
          1 1 68 -76.67 72 -67 76 -57.33 rlinecurve
          26 36 -52 38.67 -53 46.16 -54 53.67 rlinecurve
          -54 53.67 -44 49.5 -34 45.33 -36 -28 rcurveline
          68.67 -133.33 34.33 -128.34 -123.33 vvcurveto
          -90 -25 -71 -50 -52 vhcurveto
          -52 -50 -68 -26 -86 hhcurveto
          -84 -64.17 21.5 43 -44.33 hvcurveto
          -44.33 43 -22.17 62.83 82.67 vvcurveto
          78.67 23.83 77.16 47.67 75.67 vhcurveto
          47.67 75.67 62.16 59.83 76.67 44 rrcurveto
          44 vlineto
          498 16 rmoveto
          -22.67 -8 -19.16 -16 -15.67 vhcurveto
          -15.66 -16 -19.33 -7.84 -22.67 hhcurveto
          -22.66 -19.34 7.83 15.67 -16 hvcurveto
          -16 15.67 -8 19.16 22.67 vvcurveto
          22.67 8 19.33 16 16 vhcurveto
          16 16 19.33 8 22.67 hhcurveto
          22.67 19.33 -8 -16 16 hvcurveto
          16 -16 8 -19.33 -22.67 vvcurveto
          endchar
        </CharString>
        <CharString name="cid00894" fdSelectIndex="0">
          243 737 rmoveto
          -44 314 vlineto
          1 -2 -48.67 -20 -37.16 -24.17 -25.67 -28.33 rlinecurve
          -25.67 -28.33 -12.83 -30.5 -32.67 vvcurveto
          -31.33 8.83 -31 17.67 -30.67 vhcurveto
          17.67 -30.67 30.16 -37 42.67 -43.33 43.33 -44 29 -35.5 14.67 -27 rrcurveto
          14.67 -27 7.33 -27.17 -27.33 vvcurveto
          -39.33 -16.67 -32.34 -33.33 -25.33 vhcurveto
          -25.33 -33.33 -42.34 -12.67 -51.33 hhcurveto
          -48 -50 13 26 -52 hvcurveto
          -18 -41 rlineto
          -28.67 50.67 56.33 -14.33 62 hhcurveto
          66.67 54.5 16.83 33.67 42.33 hvcurveto
          42.33 33.67 21.17 43.16 52.67 vvcurveto
          34 -8.5 32.33 -17 30.67 vhcurveto
          -17 30.67 -30.83 38 -44.67 45.33 -40 40.67 -28.17 34.16 -16.33 27.67 rrcurveto
          -16.33 27.67 -8.17 27.16 26.67 vvcurveto
          41.33 26.67 37.17 53.33 33 vhcurveto
          53.33 33 69 17.17 84.67 1.33 rrcurveto
          44 vlineto
          12 -326 rmoveto
          68.67 -103.33 52 -110.34 35.33 -117.33 43 13 rcurveline
          -37.33 122 -53 113 -68.67 104 rrcurveto
          -571 -17 rmoveto
          -44 11 -32 -118 -45.67 -110 -59.33 -102 rlinecurve
          40 -19 63.33 110 47 112.67 30.67 115.33 rlinecurve
          endchar
        </CharString>
        <CharString name="cid00895" fdSelectIndex="0">
          230 727 rmoveto
          -44 314 -2 vlineto
          -48.67 -19.33 -37 -24 -25.33 -28.67 rrcurveto
          -25.33 -28.67 -12.67 -30.66 -32.67 vvcurveto
          -31.33 8.67 -31.17 17.33 -31 vhcurveto
          17.33 -31 30 -36.83 42.67 -42.67 43.33 -44 29.17 -35.5 15 -27 rrcurveto
          15 -27 7.5 -27.17 -27.33 vvcurveto
          -39.33 -16.83 -32.34 -33.67 -25.33 vhcurveto
          -25.33 -33.67 -42.5 -12.67 -51.33 hhcurveto
          -47.33 -49.67 13 26 -52 hvcurveto
          -18 -41 rlineto
          -28.67 50.67 56.33 -14.33 62 hhcurveto
          66.67 54.5 16.83 33.67 42.33 hvcurveto
          42.33 33.67 21.17 43.16 52.67 vvcurveto
          33.33 -8.67 32 -17.33 30.67 vhcurveto
          -17.33 30.67 -31 38.33 -44.67 46 -40 40.67 -28 34.16 -16 27.67 rrcurveto
          -16 27.67 -8 27.16 26.67 vvcurveto
          39.33 24.67 35.84 49.33 32.33 vhcurveto
          49.33 32.33 64.67 17.84 80 3.33 rrcurveto
          46 vlineto
          12 71 rmoveto
          34 -60 29.67 -55.67 25.33 -51.33 40 15 rcurveline
          -26.67 54.67 -29.66 56.33 -32.67 58 rrcurveto
          93 16 rmoveto
          33.33 -57.33 30.67 -57 28 -56.67 41 16 rcurveline
          -22.67 48 -30.66 57.67 -38.67 67.33 rrcurveto
          -152 -448 rmoveto
          68.67 -103.33 52 -110.34 35.33 -117.33 43 13 rcurveline
          -37.33 122 -53 113 -68.67 104 rrcurveto
          -571 -17 rmoveto
          -44 11 -32 -118 -45.67 -110 -59.33 -102 rlinecurve
          40 -19 63.33 110 47 112.67 30.67 115.33 rlinecurve
          endchar
        </CharString>
        <CharString name="cid00896" fdSelectIndex="0">
          757 401 rmoveto
          68.67 -103.33 52 -110.34 35.33 -117.33 43 13 rcurveline
          -37.33 122 -53 113 -68.67 104 rrcurveto
          -615 -6 rmoveto
          -32 -118 -45.67 -110 -59.33 -102 40 -19 rcurveline
          63.33 110 47 112.67 30.67 115.33 rrcurveto
          654 297 rmoveto
          -22.67 -8 -19.16 -16 -15.67 vhcurveto
          -15.66 -16 -19.33 -7.84 -22.67 hhcurveto
          -22.67 -19.16 7.83 15.67 -15.67 hvcurveto
          -15.66 15.67 -7.84 19.16 22.67 vvcurveto
          22.67 7.83 19.33 15.67 16 vhcurveto
          16 15.67 19.16 8 22.67 hhcurveto
          22.67 19.33 -8 -16 16 hvcurveto
          16 -16 8 -19.33 -22.67 vvcurveto
          38 hmoveto
          33.33 -11.67 28.34 -23.33 23.33 vhcurveto
          23.33 -23.33 -28.34 11.67 -33.33 hhcurveto
          -28.67 -25.33 -9 -18 -22 hvcurveto
          -22 -18 -13.67 -22.67 -5.33 -27.33 rrcurveto
          -441 -44 314 -2 hlineto
          -48.67 -19.33 -37 -24 -25.33 -28.67 rrcurveto
          -25.33 -28.67 -12.67 -30.66 -32.67 vvcurveto
          -31.33 8.67 -31.17 17.33 -31 vhcurveto
          17.33 -31 30 -36.83 42.67 -42.67 43.33 -44 29.17 -35.5 15 -27 rrcurveto
          15 -27 7.5 -27.17 -27.33 vvcurveto
          -39.33 -16.83 -32.34 -33.67 -25.33 vhcurveto
          -25.33 -33.67 -42.5 -12.67 -51.33 hhcurveto
          -47.33 -49.67 13 26 -52 hvcurveto
          -18 -41 rlineto
          -28.67 50.67 56.33 -14.33 62 hhcurveto
          66.67 54.5 16.83 33.67 42.33 hvcurveto
          42.33 33.67 21.17 43.16 52.67 vvcurveto
          33.33 -8.67 32 -17.33 30.67 vhcurveto
          -17.33 30.67 -31 38.33 -44.67 46 -40 40.67 -28 34.16 -16 27.67 rrcurveto
          -16 27.67 -8 27.16 26.67 vvcurveto
          35.33 20.67 33 41.33 30.67 vhcurveto
          41.33 30.67 54.67 19.66 68 8.67 5.33 -28 13.67 -23 22 -18 rrcurveto
          -18 22 25.33 -9 28.67 hhcurveto
          33.33 28.34 11.67 23.33 23.33 hvcurveto
          23.33 23.33 11.67 28.34 33.33 vvcurveto
          endchar
        </CharString>
        <CharString name="cid00897" fdSelectIndex="0">
          81 191 rmoveto
          49.33 56 66.34 78 83.33 100 40.67 50 27.33 31.33 14 12.67 rrcurveto
          12.67 14 15.67 6.33 17.33 hhcurveto
          16.67 15.66 -5.5 -11 14.67 hvcurveto
          14.67 -11 31.33 -28.17 48 -45.33 128 -122 123.67 -113.33 119.33 -104.67 33 38 rcurveline
          -124 108.67 -119.67 109.33 -115.33 110 -59.33 56.67 -39.34 35 -19.33 13.33 rrcurveto
          13.33 -19.33 -22.34 6.67 -25.33 hhcurveto
          -26.67 -22.83 -7.83 -15.67 -19 hvcurveto
          -19 -15.67 -33.83 -37.83 -48.67 -60 -52 -63.33 -65 -75.67 -78 -88 rrcurveto
          endchar
        </CharString>
        <CharString name="cid00898" fdSelectIndex="0">
          591 691 rmoveto
          37.33 -58 35.34 -59.67 33.33 -61.33 41 21 rcurveline
          -28 52.67 -35.33 60 -42.67 67.33 rrcurveto
          100 21 rmoveto
          45.33 -70.67 36.34 -60.66 27.33 -50.67 41 21 rcurveline
          -35.33 65.33 -36 61.34 -36.67 57.33 rrcurveto
          -729 -543 rmoveto
          36 -33 49.33 56 66.34 78 83.33 100 rlinecurve
          40.67 50 27.33 31.33 14 12.67 rrcurveto
          12.67 14 15.67 6.33 17.33 hhcurveto
          16.67 15.66 -5.5 -11 14.67 hvcurveto
          14.67 -11 31.33 -28.17 48 -45.33 128 -122 123.67 -113.33 119.33 -104.67 33 38 rcurveline
          -124 108.67 -119.67 109.33 -115.33 110 -59.33 56.67 -39.34 35 -19.33 13.33 rrcurveto
          13.33 -19.33 -22.34 6.67 -25.33 hhcurveto
          -26.67 -22.83 -7.83 -15.67 -19 hvcurveto
          -19 -15.67 -33.83 -37.83 -48.67 -60 -52 -63.33 -65 -75.67 -78 -88 rrcurveto
          endchar
        </CharString>
        <CharString name="cid00899" fdSelectIndex="0">
          760 713 rmoveto
          24 20.5 -8.33 -16.67 17 hvcurveto
          17 -16.67 8.5 -20.33 -24 vvcurveto
          -24 -8.5 -20.5 -17 -17 vhcurveto
          -17 -17 -20.5 -8.5 -24 hhcurveto
          -24 -20.5 8.5 17 -17 hvcurveto
          -17 17 -8.5 20.5 24 vvcurveto
          24 8.5 20.33 17 16.67 vhcurveto
          16.67 17 20.5 8.33 24 hhcurveto
          -679 -532 rmoveto
          49.33 56 66.34 78 83.33 100 40.67 50 27.33 31.33 14 12.67 rrcurveto
          12.67 14 15.67 6.33 17.33 hhcurveto
          16.67 15.66 -5.5 -11 14.67 hvcurveto
          14.67 -11 31.33 -28.17 48 -45.33 128 -122 123.67 -113.33 119.33 -104.67 33 38 rcurveline
          -124 108.67 -119.67 109.33 -115.33 110 -59.33 56.67 -39.34 35 -19.33 13.33 rrcurveto
          13.33 -19.33 -22.34 6.67 -25.33 hhcurveto
          -26.67 -22.83 -7.83 -15.67 -19 hvcurveto
          -19 -15.67 -33.83 -37.83 -48.67 -60 -52 -63.33 -65 -75.67 -78 -88 rrcurveto
          842 413 rmoveto
          34.67 -12.33 29.66 -24.67 24.67 vhcurveto
          24.67 -24.67 -30 12.33 -35.33 hhcurveto
          -35.33 -30 -12.33 -24.67 -24.67 hvcurveto
          -24.67 -24.67 -12.33 -29.66 -34.67 vvcurveto
          -35.33 12.5 -30 25 -24.67 vhcurveto
          -24.67 25 29.83 -12.33 34.67 hhcurveto
          34.67 29.83 12.33 24.67 25 hvcurveto
          25 24.67 12.5 30 35.33 vvcurveto
          endchar
        </CharString>
        <CharString name="cid00900" fdSelectIndex="0">
          923 691 rmoveto
          43 -547 -43 315 -185 -315 -43 315 -240 vlineto
          21.33 -44.67 -46 10.67 -47.33 hhcurveto
          -39.33 -33.5 -4.33 -8.67 -27.67 hvcurveto
          -27.67 -8.67 -20.66 -11.66 -13.67 -14.67 -13.67 -14.67 -9.66 -14.83 -5.67 -15 rrcurveto
          -5.67 -15 -2.83 -16.17 -17.33 vvcurveto
          -50 17.5 -38.83 35 -27.67 vhcurveto
          -27.67 35 49.17 -13.83 63.33 hhcurveto
          122.67 61.66 62.67 125.33 0.67 hvcurveto
          40.67 -28 51 -43.67 61.33 -59.33 33 32 rcurveline
          -73.33 70.67 -62 50.66 -50.67 30.67 rrcurveto
          266 185 43 -185 185 vlineto
          -539 67 rmoveto
          -45 7 rlineto
          -34 -128 -17 -135 -142 vvcurveto
          -142 17 -135 34 -128 vhcurveto
          45 7 rlineto
          -32.67 121.33 -16.33 132.67 144 vvcurveto
          144 16.33 132.67 32.67 121.33 vhcurveto
          492 -585 rmoveto
          -22 vlineto
          -53.33 -11.17 -38.67 -22.33 -24 vhcurveto
          -24 -22.33 -35.84 -12 -49.33 hhcurveto
          -48.67 -37.16 9.83 19.67 -25.67 hvcurveto
          -25.67 19.67 -12.83 28.5 37.33 vvcurveto
          65.33 50.33 32.67 100.67 45.33 46.67 -13 -26 48 vhcurveto
          endchar
        </CharString>
        <CharString name="cid00901" fdSelectIndex="0">
          750 805 rmoveto
          15.33 -28 14.34 -27 13.33 -26 rrcurveto
          -438 -43 315 -185 -315 -43 315 -240 hlineto
          21.33 -44.67 -46 10.67 -47.33 hhcurveto
          -39.33 -33.5 -4.33 -8.67 -27.67 hvcurveto
          -27.67 -8.67 -20.66 -11.66 -13.67 -14.67 -13.67 -14.67 -9.66 -14.83 -5.67 -15 rrcurveto
          -5.67 -15 -2.83 -16.17 -17.33 vvcurveto
          -50 17.5 -38.83 35 -27.67 vhcurveto
          -27.67 35 49.17 -13.83 63.33 hhcurveto
          122.67 61.66 62.67 125.33 0.67 hvcurveto
          40.67 -28 51 -43.67 61.33 -59.33 33 32 rcurveline
          -73.33 70.67 -62 50.66 -50.67 30.67 rrcurveto
          266 195 43 -195 185 98 vlineto
          0.67 -1.33 4.33 -9.67 8 -18 39 15 rcurveline
          -24 50.67 -26.67 51 -29.33 51.33 rrcurveto
          84 3 rmoveto
          28 -49.33 27 -52 26 -54.67 39 14 rcurveline
          -23.33 50 -27 52.67 -30.67 55.33 rrcurveto
          -721 -91 rmoveto
          -45 7 rlineto
          -34 -128 -17 -135 -142 vvcurveto
          -142 17 -135 34 -128 vhcurveto
          45 7 rlineto
          -32.67 121.33 -16.33 132.67 144 vvcurveto
          144 16.33 132.67 32.67 121.33 vhcurveto
          481 -585 rmoveto
          -22 vlineto
          -53.33 -11.17 -38.67 -22.33 -24 vhcurveto
          -24 -22.33 -35.84 -12 -49.33 hhcurveto
          -48.67 -37.16 9.83 19.67 -25.67 hvcurveto
          -25.67 19.67 -12.83 28.5 37.33 vvcurveto
          65.33 50.33 32.67 100.67 45.33 46.67 -13 -26 48 vhcurveto
          endchar
        </CharString>
        <CharString name="cid00902" fdSelectIndex="0">
          750 730 rmoveto
          -6 -398 -43 315 -185 -315 -43 315 -240 vlineto
          21.33 -44.67 -46 10.67 -47.33 hhcurveto
          -39.33 -33.5 -4.33 -8.67 -27.67 hvcurveto
          -27.67 -8.67 -20.66 -11.66 -13.67 -14.67 -13.67 -14.67 -9.66 -14.83 -5.67 -15 rrcurveto
          -5.67 -15 -2.83 -16.17 -17.33 vvcurveto
          -50 17.5 -38.83 35 -27.67 vhcurveto
          -27.67 35 49.17 -13.83 63.33 hhcurveto
          122.67 61.66 62.67 125.33 0.67 hvcurveto
          40.67 -28 51 -43.67 61.33 -59.33 32 32 rcurveline
          -74.67 71.33 -61.66 50.67 -48.67 30 rrcurveto
          266 195 43 -195 185 47 vlineto
          10 -21.33 14.67 -17.17 19.33 -13 rrcurveto
          -13 19.33 21.67 -6.5 24 hhcurveto
          33.33 28.34 11.67 23.33 23.33 hvcurveto
          23.33 23.33 11.67 28.34 33.33 vvcurveto
          33.33 -11.67 28.34 -23.33 23.33 vhcurveto
          23.33 -23.33 -28.34 11.67 -33.33 hhcurveto
          -33.33 -28.34 -11.67 -23.33 -23.33 hvcurveto
          -23.33 -23.33 -11.67 -28.34 -33.33 vvcurveto
          -561 18 rmoveto
          -45 7 rlineto
          -34 -128 -17 -135 -142 vvcurveto
          -142 17 -135 34 -128 vhcurveto
          45 7 rlineto
          -32.67 121.33 -16.33 132.67 144 vvcurveto
          144 16.33 132.67 32.67 121.33 vhcurveto
          763 -18 rmoveto
          -22.66 -8 -19.34 -16 -16 vhcurveto
          -16 -16 -19.33 -8 -22.67 hhcurveto
          -22.66 -19.34 8 16 -16 hvcurveto
          -16 16 -8 19.33 22.67 vvcurveto
          22.67 8 19.33 16 16 vhcurveto
          16 16 19.33 8 22.67 hhcurveto
          22.67 19.33 -8 -16 16 hvcurveto
          16 -16 8 -19.33 -22.67 vvcurveto
          -285 -567 rmoveto
          -22 vlineto
          -52.67 -11.33 -38.5 -22.67 -24.33 vhcurveto
          -24.33 -22.67 -36 -12.17 -49.33 hhcurveto
          -48.67 -37.16 9.83 19.67 -25.67 hvcurveto
          -25.67 19.67 -12.83 28.5 37.33 vvcurveto
          65.33 50.67 32.67 101.33 45.33 46.67 -13 -26 48 vhcurveto
          endchar
        </CharString>
        <CharString name="cid00903" fdSelectIndex="0">
          593 800 rmoveto
          -46 -122 -422 -43 422 -157 -390 -43 390 -203 hlineto
          26 -58 -52.33 13 -46.67 hhcurveto
          -40.67 -34.66 -4.67 -9.33 -28.67 hvcurveto
          -28.67 -9.33 -21.33 -12.34 -14 -15.33 -14 -15.33 -10 -15.67 -6 -16 rrcurveto
          -6 -16 -3 -17 -18 vvcurveto
          -50.67 18.67 -40.5 37.33 -30.33 vhcurveto
          -30.33 37.33 50.34 -15.17 63.33 hhcurveto
          71.33 51.5 15.83 31.67 31.67 hvcurveto
          31.67 31.67 16.16 52.5 0.67 73.33 66 -37.33 76.33 -56 86.67 -74.67 30 34 rcurveline
          -99.33 84 -86.34 61.33 -73.33 38.67 rrcurveto
          225 250 43 -250 157 282 43 -282 vlineto
          -46 -493 rmoveto
          -15 vlineto
          -64 -11.5 -44.67 -23 -25.33 vhcurveto
          -25.33 -23 -40.83 -12.67 -58.67 hhcurveto
          -48.67 -38.5 11.17 22.33 -28.33 hvcurveto
          -28.33 22.33 -14.17 30.17 38 vvcurveto
          70.67 53.67 35.33 107.33 44.67 51.33 -14.33 -28.67 58 vhcurveto
          endchar
        </CharString>
        <CharString name="cid00904" fdSelectIndex="0">
          274 -17 rmoveto
          30 25.33 9.67 19.33 20.67 hvcurveto
          20.67 19.33 20.33 39.67 20 60 20 60 18.33 84.67 16.67 109.33 88.67 -3.33 86.66 -16 84.67 -28.67 -5.33 -80 -10.34 -62.33 -15.33 -44.67 -15.33 -44.67 -19 -32.83 -22.67 -21 -22.67 -21 -34.33 -21.83 -46 -22.67 24 -40 rcurveline
          38 18.67 29.83 17.33 21.67 16 21.67 16 20 21.83 18.33 27.67 18.33 27.67 13.84 34 9.33 40.33 9.33 40.33 7 51.5 4.67 62.67 51.33 -20 52 -26.33 52.67 -32.67 22 39 rcurveline
          -54.67 34.67 -58.33 29 -62 23.33 rrcurveto
          4 78 2 96 114 vvcurveto
          -47 hlineto
          0.01 -132 -1.33 -90.33 -2.68 -48.67 -84 26.67 -85.67 15 -87.33 3.33 8.67 59.33 10.66 87.67 12.67 116 rrcurveto
          43 -358 -43 310 vlineto
          -14 -130 -10.33 -87.33 -6.67 -44.67 -104.67 -2.67 -84.5 -22 -64.33 -41.33 rrcurveto
          -64.33 -41.33 -32.17 -47.34 -53.33 vvcurveto
          -56.67 22.17 -54 44.33 -51.33 vhcurveto
          -51.33 44.33 44.17 -25.67 44 hhcurveto
          144 403 rmoveto
          -21.33 -134.67 -22 -93 -22.67 -51.33 rrcurveto
          -51.33 -22.67 -26 -25.67 -29.33 hhcurveto
          -31.33 -33 21.17 42.33 -34.67 hvcurveto
          -34.67 42.33 -17.33 42.84 43.33 vvcurveto
          41.33 27 37 54 32.67 vhcurveto
          54 32.67 71.33 17.66 88.67 2.67 rrcurveto
          endchar
        </CharString>
        <CharString name="cid00905" fdSelectIndex="0">
          95 670 rmoveto
          -43 225 -142 vlineto
          -2 -1 rlineto
          35.33 -24 -31 17.67 -38 hhcurveto
          -41.33 -34.17 -14.17 -28.33 -27 hvcurveto
          -27 -28.33 -13.5 -45.84 -63.33 vvcurveto
          -64 13.5 -46 27 -28 vhcurveto
          -28 27 34.17 -14 41.33 hhcurveto
          30 26 9.33 18.67 22 hvcurveto
          2 -1 -6 -22.67 -8.33 -26.33 -10.67 -30 rlinecurve
          -12 -33.33 -6 -24 -14.67 vvcurveto
          -38.67 19.33 -26 38.67 -13.33 vhcurveto
          -13.33 38.67 76.66 -6.67 114.67 hhcurveto
          112 75.5 9.67 19.33 39 hvcurveto
          39 19.33 19.5 36.67 54 vvcurveto
          64 -16.33 85.67 -32.67 107.33 vhcurveto
          -45 -11 rlineto
          31.33 -105.33 15.67 -79.67 -54 vvcurveto
          -26 -5 -19.67 -10 -13.33 vhcurveto
          -10 -13.33 -22.33 -10.5 -34.67 -7.67 rrcurveto
          -7.67 -34.67 -52 -3.83 -69.33 hhcurveto
          -72 -53.67 3 6 -35.33 hvcurveto
          -35.33 6 -21.67 7.33 -8 8.67 rrcurveto
          -8 8.67 -4 13 17.33 vvcurveto
          11.33 5.33 21.67 10.67 32 vhcurveto
          26 78 13 72.67 67.33 vvcurveto
          275 198 43 -198 132 -47 -132 vlineto
          372 -19 rmoveto
          83.33 -51.33 75.34 -53 67.33 -54.67 26 36 rcurveline
          -71.33 57.33 -76 53.67 -80.67 50 rrcurveto
          -591 -332 rmoveto
          92 35.67 46 71.33 27.33 21.84 -12.33 -24.67 16.33 vhcurveto
          16.33 -24.67 8.17 -33.66 -42.67 vvcurveto
          -48.67 -7.17 -35.33 -14.33 -22 vhcurveto
          -22 -14.33 -22.84 -11 -31.33 hhcurveto
          -71.33 -35.67 46.33 92.67 hvcurveto
          endchar
        </CharString>
        <CharString name="cid00906" fdSelectIndex="0">
          219 757 rmoveto
          12 -58.67 14.67 -62.33 17.33 -66 -56.67 -35.33 -44.16 -46.17 -31.67 -57 rrcurveto
          -31.67 -57 -15.83 -63.17 -69.33 vvcurveto
          -73.33 15.83 -58.17 31.67 -43 vhcurveto
          -43 31.67 37.16 -21.5 42.67 hhcurveto
          61.33 68.17 47 94 75 hvcurveto
          75 94 71.5 143 68 192 65.33 -20 51.17 -33.67 37 -47.33 rrcurveto
          37 -47.33 18.5 -56.34 -65.33 vvcurveto
          -82.67 -25 -68 -50 -53.33 vhcurveto
          -50 -53.33 -66.67 -30.67 -83.33 -8 9 -44 rcurveline
          94.67 9.33 75.83 35.5 57 61.67 rrcurveto
          57 61.67 28.5 77.83 94 vvcurveto
          76 -21.33 65.67 -42.67 55.33 vhcurveto
          -42.67 55.33 -59 39.34 -75.33 23.33 24 72.67 18 59 12 45.33 -45 11 rcurveline
          -12 -45.33 -18 -59 -24 -72.67 -36.67 7.33 -37 3.66 -37.33 0.01 rrcurveto
          -78 -72 -15.67 -31.33 -66 hvcurveto
          -17.33 67.33 -13.67 57.67 -10 48 rrcurveto
          353 -182 rmoveto
          -60 -166.67 -63 -130.33 -66 -94 -42 119.33 -37 118 -32 116.67 rrcurveto
          30.67 59.33 68 15.33 76.67 hhcurveto
          34 32 -3 -6 30 hvcurveto
          -340 -61 rmoveto
          34.67 -126.67 39.66 -124 44.67 -121.33 rrcurveto
          -68 -56 -50 -34 -44 hhcurveto
          -30.67 -27.16 17.33 34.67 -23.67 hvcurveto
          -23.67 34.67 -11.83 47 59.33 vvcurveto
          58.67 13 53.66 26 48.67 vhcurveto
          26 48.67 36.33 40 46.67 31.33 rrcurveto
          endchar
        </CharString>
        <CharString name="cid00907" fdSelectIndex="0">
          127 607 rmoveto
          229 hlineto
          -2 -28.67 -3.66 -65.33 -5.34 -102 rrcurveto
          -240 -43 238 hlineto
          -3.33 -72 -1.67 -52.67 -33.33 vvcurveto
          -100.67 17.33 -67.66 34.67 -34.67 vhcurveto
          -34.67 34.67 67.33 -17.33 100 hhcurveto
          96 73.67 19.17 38.33 51.33 hvcurveto
          51.33 38.33 25.67 55.17 72 vvcurveto
          26.67 -4 30.66 -8 34.67 vhcurveto
          -45 -11 rlineto
          6.67 -28.67 3.33 -26 -23.33 vvcurveto
          -58.67 -21.33 -44.83 -42.67 -31 vhcurveto
          -31 -42.67 -62.33 -15.5 -82 hhcurveto
          -84.67 -55.33 13.17 26.33 -26 hvcurveto
          -26 26.33 -13 56.84 87.33 vvcurveto
          47.33 1.33 52.67 2.67 58 vhcurveto
          372 43 -370 hlineto
          5.33 102 3.67 65.33 2 28.67 rrcurveto
          414 43 -411 hlineto
          4.67 70.67 3.33 46.66 2 22.67 -49 2 rcurveline
          -1.33 -19.33 -1.67 -26.5 -2 -33.67 -2 -33.66 -1.33 -20.84 -0.67 -8 rrcurveto
          -232 hlineto
          endchar
        </CharString>
        <CharString name="cid00908" fdSelectIndex="0">
          504 611 rmoveto
          14 -47.33 12.67 -46 11.33 -44.67 -54 -16.67 -56.67 -19.33 -59.33 -22 -8 26 -17.67 56.67 -27.33 87.33 -44 -14 rcurveline
          6 -18 18 -57.33 30 -96.67 -9.33 -3.33 -26.17 -9.84 -43 -16.33 -43 -16.33 -35.17 -13.5 -27.33 -10.67 16 -40 rcurveline
          79.33 30.67 60.34 23 41.33 15.33 42 -140 39 -138 36 -136 45 12 rcurveline
          -38.67 144.67 -39.66 139.33 -40.67 134 60 22 56 19.33 52 16.67 2 -8.67 3 -12.33 4 -16 3.99 -16 3.67 -14.5 3.34 -13 3.33 -13 3 -11.83 2.67 -10.67 43 11 rcurveline
          -6 24.67 -9.67 39 -13.33 53.33 rrcurveto
          8 32.67 27 4 21.33 hhcurveto
          38.67 30 -10.67 -21.33 21.33 hvcurveto
          21.33 -21.33 10.67 -30 -38.67 vvcurveto
          -38 -11.67 -29.83 -23.33 -21.67 vhcurveto
          -21.67 -23.33 -32 -10.83 -40.67 hhcurveto
          -28.67 -34 4.67 9.33 -39.33 hvcurveto
          -6 -43 rlineto
          -9.33 37.33 37 -4.67 36.67 hhcurveto
          53.33 42.34 14.83 29.67 31.33 hvcurveto
          31.33 29.67 15.67 40.83 52 vvcurveto
          50 -14.83 39.67 -29.67 29.33 vhcurveto
          29.33 -29.67 -39.5 14.67 -49.33 hhcurveto
          -28 -32.33 -4.66 -9.34 -36.67 hvcurveto
          -4.66 18 -6.84 25.33 -9 32.67 -9 32.67 -5.5 20.66 -2 8.67 rrcurveto
          endchar
        </CharString>
        <CharString name="cid00909" fdSelectIndex="0">
          511 775 rmoveto
          19.33 -69.33 15.67 -58.67 12 -48 -50.67 -15.33 -73.33 -25 -96 -34.67 -10 32.67 -22.67 71.66 -35.33 110.67 -46 -14 rcurveline
          26.67 -80.67 23 -72.66 19.33 -64.67 -114.67 -43.33 -78 -29.67 -41.33 -16 16 -42 rcurveline
          47.33 18.67 77 29 106.67 39.33 54 -177.33 49.33 -173.67 44.67 -170 47 12 rcurveline
          -44 164 -50 175.33 -56 186.67 90 34 73 25.33 56 16.67 4.67 -19.33 6.66 -27.17 8.67 -35 8.67 -35 5.66 -22.5 2.67 -10 44 12 rcurveline
          -13.33 58 -12 50 -10.67 42 rrcurveto
          10.67 40 36 5.33 32 hhcurveto
          49.33 38.5 -13.83 -27.67 27.67 hvcurveto
          27.67 -27.67 13.83 -38.5 -49.33 vvcurveto
          -49.33 -14.83 -38.5 -29.67 -27.67 vhcurveto
          -27.67 -29.67 -41.16 -13.83 -52.67 hhcurveto
          -38.67 -43.33 6 12 -48 hvcurveto
          -7 -45 rlineto
          -12 46 46.67 -6 47.33 hhcurveto
          66 52 18.17 36.33 38 hvcurveto
          38 36.33 19 49.84 63.33 vvcurveto
          61.33 -18 48.67 -36 36 vhcurveto
          36 -36 -48.67 18 -61.33 hhcurveto
          -35.33 -41.34 -6 -12 -47.33 hvcurveto
          -13.33 53.33 -15.67 58.34 -18 63.33 rrcurveto
          endchar
        </CharString>
        <CharString name="cid00910" fdSelectIndex="0">
          545 530 rmoveto
          -76 -4.67 -65.83 -23.83 -55.67 -43 -55.67 -43 -41.16 -57.5 -26.67 -72 rrcurveto
          -1 261 -43 -467 42 hlineto
          114.67 30 94.66 60 74.67 vhcurveto
          60 74.67 77.67 41 95.33 7.33 rrcurveto
          -257 vlineto
          -33.33 -2 -29.67 -4 -26 vhcurveto
          -38 4 -35.17 11.67 -32.33 19.33 -32.33 19.33 -26.5 25 -20.67 30.67 -29 -30 rcurveline
          47.33 -71.33 67.67 -41 88 -10.67 -10 -29.33 -16.17 -23.84 -22.33 -18.33 -22.33 -18.33 -31.17 -16.5 -40 -14.67 19 -39 rcurveline
          48.67 16.67 37.83 20.5 27 24.33 27 24.33 19.17 32.17 11.33 40 83.33 1.33 64.34 19.5 45.33 37.67 rrcurveto
          45.33 37.67 22.67 53.16 68.67 vvcurveto
          68 -21 52.33 -42 36.67 vhcurveto
          -42 36.67 -61 20 -80 3.33 rrcurveto
          103 -46 vlineto
          46 -146 rmoveto
          64.67 -2.67 49.33 -16.16 34 -29.67 rrcurveto
          34 -29.67 17 -41.83 -54 vvcurveto
          -54 -17.5 -41.83 -35 -29.67 vhcurveto
          -35 -29.67 -50.83 -16.16 -66.67 -2.67 rrcurveto
          4 26.67 2 30 33.33 vvcurveto
          endchar
        </CharString>
        <CharString name="cid00911" fdSelectIndex="0">
          148 693 rmoveto
          -45 -583 44 hlineto
          146 38.67 120.33 77.33 94.67 vhcurveto
          77.33 94.67 99.67 51 122 7.33 rrcurveto
          -326 vlineto
          -44.67 -3 -39.33 -6 -34 vhcurveto
          -49.33 4.67 -45.84 14.83 -42.33 25 -42.33 25 -34.17 32.5 -26 40 -31 -31 rcurveline
          28 -43.33 37 -35.5 46 -27.67 46 -27.67 49.67 -16.5 53.33 -5.33 -12.67 -39.33 -20.66 -31.67 -28.67 -24 -28.67 -24 -40.33 -21.33 -52 -18.67 20 -41 rcurveline
          61.33 20.67 47.34 25.66 33.33 30.67 33.33 30.67 23.67 40.33 14 50 103.33 1.33 80 24 56.67 46.67 rrcurveto
          56.67 46.67 28.33 65.66 84.67 vvcurveto
          84.67 -26.17 65 -52.33 45.33 vhcurveto
          -52.33 45.33 -76.17 24.34 -100 3.33 rrcurveto
          132 -48 -133 vlineto
          -97.33 -5.33 -84.84 -31.34 -72.33 -57.33 -72.33 -57.33 -52.5 -78.67 -32.67 -100 rrcurveto
          -2 hlineto
          454 -160 rmoveto
          5.33 31.33 2.67 39.67 48 vvcurveto
          327 vlineto
          84 -3.33 64.17 -20.67 44.33 -38 rrcurveto
          44.33 -38 22.17 -53.67 -69.33 vvcurveto
          -69.33 -22.83 -53.84 -45.67 -38.33 vhcurveto
          -45.67 -38.33 -66.16 -20.5 -86.67 -2.67 rrcurveto
          endchar
        </CharString>
        <CharString name="cid00912" fdSelectIndex="0">
          799 477 rmoveto
          -267 149 -46 -405 hlineto
          10.67 -36 -34.67 5.33 -33.33 hhcurveto
          -66.67 -47.66 -13.5 -27 -28.67 hvcurveto
          -28.67 -27 -14.33 -32.5 -38 vvcurveto
          -41.33 14.33 -34.5 28.67 -27.67 vhcurveto
          -27.67 28.67 47.66 -13.83 66.67 hhcurveto
          51.33 37.84 14.17 28.33 24.33 hvcurveto
          24.33 28.33 12.17 43.84 59.33 vvcurveto
          31 vlineto
          69.33 -31.33 82.34 -53 95.33 -74.67 28 34 rcurveline
          -104.67 82 -91.66 57 -78.67 32 rrcurveto
          230 267 vlineto
          -313 -258 rmoveto
          -49 vlineto
          -46.67 -8.17 -33.83 -16.33 -21 vhcurveto
          -21 -16.33 -26.5 -10.5 -36.67 hhcurveto
          -93.33 -46.67 34.67 69.33 64 46.67 32 93.33 32 34.67 -6 -12 37.33 hvcurveto
          endchar
        </CharString>
        <CharString name="cid00913" fdSelectIndex="0">
          873 558 rmoveto
          44 -338 190 -48 -519 vlineto
          14.67 -46.67 -45 7.33 -43.33 hhcurveto
          -75.33 -57 -13.83 -27.67 -38.67 hvcurveto
          -38.67 -27.67 -19.33 -40.16 -52.67 vvcurveto
          -50.67 17.5 -42.33 35 -34 vhcurveto
          -34 35 58.83 -17 82.67 hhcurveto
          62.67 46.16 17.5 35 29.67 hvcurveto
          29.67 35 14.83 54.17 73.33 vvcurveto
          39 vlineto
          88.67 -37.33 106 -65.67 123.33 -94 29 37 rcurveline
          -135.33 101.33 -115.67 69.34 -96 37.33 rrcurveto
          301 vlineto
          -48 -331 rmoveto
          -57 vlineto
          -60.67 -10.67 -43.83 -21.33 -27 vhcurveto
          -27 -21.33 -34.34 -13.5 -47.33 hhcurveto
          -120 -60 45 90 78.67 60 39.33 120 40.67 45 -8 -16 49.33 hvcurveto
          endchar
        </CharString>
        <CharString name="cid00914" fdSelectIndex="0">
          267 581 rmoveto
          -48 5 -14 -103.33 -16.67 -106 -19.33 -108.67 rlinecurve
          43 -13 45.33 42 58 35.17 70.67 28.33 rlinecurve
          28.33 70.67 64 14.17 57.33 hhcurveto
          151.33 75.67 -57.67 -115.33 -148 -126.33 -74 -252.67 -50.67 -63.33 4 8 -76 hvcurveto
          -4 -44 rlineto
          -7.33 72 64.67 -3.67 57.33 hhcurveto
          288 144 88.33 176.67 70.67 -23.5 53.83 -47 37 hvcurveto
          37 -47 -68.5 18.5 -90 hhcurveto
          -58 -62.33 -12.33 -24.67 -66.67 hvcurveto
          -66.67 -24.67 -56 -31.33 -45.33 -38 -1 1 rcurveline
          15.33 87.33 13.67 88 12 88.67 rrcurveto
          21 164 rmoveto
          -6 -43 rlineto
          -20 149.33 146.34 -10 143.33 hhcurveto
          43 vlineto
          -142.67 -144.33 10 20 -146 hvcurveto
          endchar
        </CharString>
        <CharString name="cid00915" fdSelectIndex="0">
          598 733 rmoveto
          -68.67 -66 -27.33 -54.67 -63.33 hvcurveto
          -63.33 -54.67 -47 -72.33 -30.67 -90 rrcurveto
          -2 319 -48 -501 hlineto
          47 -1 9.33 120.67 39.67 102.83 70 85 rlinecurve
          85 70 73.33 42.5 76.67 hhcurveto
          60 45.83 -22.83 -45.67 31.67 hvcurveto
          31.67 -45.67 15.83 -66.83 -88 vvcurveto
          -142 -39 -103.83 -78 -65.67 vhcurveto
          -65.67 -78 -123.33 -32.83 -168.67 hhcurveto
          2 -45 rlineto
          183.33 135 37 74 86.67 hvcurveto
          86.67 74 43.33 114.67 155.33 vvcurveto
          101.33 -20.17 77.84 -40.33 54.33 vhcurveto
          54.33 -40.33 -57.17 27.17 -74 hhcurveto
          endchar
        </CharString>
        <CharString name="cid00916" fdSelectIndex="0">
          352 424 rmoveto
          427 269 -5 42 rlineto
          -587 -42 503 -2 hlineto
          -576 -371 20 -35 rlineto
          90.67 150.67 144.66 45.33 138.67 hhcurveto
          83.33 62.84 -15.17 -30.33 42.33 hvcurveto
          42.33 -30.33 21.17 -44.17 -58 vvcurveto
          -125.33 -69.33 -75.67 -138.67 -26 vhcurveto
          16 32.67 8 30.33 28 vvcurveto
          90.67 -68.33 45.33 -136.67 -68 -52 -12.67 -25.33 -36 vhcurveto
          -36 -25.33 -18 -30.67 -36 vvcurveto
          -100 92.33 -50 184.67 121.33 92.5 24.5 49 63.67 vhcurveto
          63.67 49 31.83 70.5 92 vvcurveto
          69.33 -24.83 53 -49.67 36.67 vhcurveto
          36.67 -49.67 -72.5 18.33 -95.33 hhcurveto
          -64.67 -75.33 -13 -26 -86 hvcurveto
          209 -414 rmoveto
          -2 -20 -21.33 -1 -22.67 hhcurveto
          -152.67 -76.33 35.67 71.33 24 13.83 20.83 27.67 17.67 hvcurveto
          17.67 27.67 39.5 8.83 51.33 hhcurveto
          108.67 54.33 -33 -66 -24.67 -10 -31.33 -20 -38 hvcurveto
          endchar
        </CharString>
        <CharString name="cid00917" fdSelectIndex="0">
          67 612 rmoveto
          -44 241 -162 vlineto
          -54 -50.67 -84 -83.33 -114 -116 32 -32 rcurveline
          99.33 102 73.34 73 47.33 44 rrcurveto
          -405 47 449 vlineto
          154 166 106.67 77 47.33 hhcurveto
          10.67 0.01 8.83 -2.33 7 -4.68 7 -4.67 6.33 -13 5.67 -21.33 rrcurveto
          5.67 -21.33 2.83 -30 -38.67 vvcurveto
          -36.67 -3.67 -50.66 -7.33 -64.67 vhcurveto
          -6.66 -60 -3.33 -51 -0.01 -42 rrcurveto
          -66 7.16 -46.83 14.34 -27.67 vhcurveto
          -27.67 14.33 23.84 -13.83 33.33 hhcurveto
          23.33 28.34 10.67 21.33 33.33 hvcurveto
          33.33 21.33 31.34 27.67 29.33 34 -28 32 rcurveline
          -28 -31.33 -26.83 -24.34 -25.67 -17.33 rrcurveto
          -17.33 -25.67 -20.5 -8.67 -15.33 hhcurveto
          -8 -6.67 1.33 2.67 -5.33 hvcurveto
          -5.33 2.67 -5.5 5.66 -5.67 8.67 -5.66 8.67 -4.33 14 -3.01 19.33 rrcurveto
          -3 19.33 -1.5 24.67 30 vvcurveto
          -0.01 35.33 3.67 50.67 7.34 66 7.32 66 3.67 51 0.01 36 rrcurveto
          66 -7.33 46.83 -14.67 27.67 vhcurveto
          27.67 -14.67 -24.33 13.83 -34 hhcurveto
          -58.67 -109.33 -72.67 -145.33 -160 hvcurveto
          343 -47 -180 vlineto
          endchar
        </CharString>
        <CharString name="cid00918" fdSelectIndex="0">
          342 410 rmoveto
          425 273 -5 43 rlineto
          -564 -43 482 -2 hlineto
          -568 -374 20 -36 72.67 43.33 74.66 34 76.67 24.67 rlinecurve
          24.67 76.67 69.33 12.33 62 hhcurveto
          169.33 84.67 -57.33 -114.67 -146 -117.33 -73 -234.67 -57.33 -60 3.67 7.33 -62.67 hvcurveto
          -2 -45 rlineto
          -7.33 64 61.33 -3.67 58.67 hhcurveto
          267.33 133.67 89 178 62 -22.5 50.67 -45 39.33 hvcurveto
          39.33 -45 -75.17 19.67 -105.33 hhcurveto
          -74.67 -77.66 -14.67 -29.33 -80.67 hvcurveto
          endchar
        </CharString>
        <CharString name="cid00919" fdSelectIndex="0">
          167 485 rmoveto
          -40 175 -100 vlineto
          -46.67 -49.33 -62.33 -74.34 -78 -99.33 33 -28 rcurveline
          59.33 75.33 51.34 62.34 43.33 49.33 rrcurveto
          -332 43 378 vlineto
          56.67 59.33 47.66 41 38.67 22.67 rrcurveto
          22.67 38.67 36.33 11.33 34 hhcurveto
          100 50 -78 -156 -68.67 -15.67 -53.83 -31.33 -39 hvcurveto
          -39 -31.33 -42.67 -19.5 -54 hhcurveto
          -35.33 -35 7.67 15.33 -34.67 hvcurveto
          -16 -40 rlineto
          -18 36.67 40.33 -9 44 hhcurveto
          67.33 53.67 23.67 47.33 40 hvcurveto
          40 47.33 20 64.34 81.33 vvcurveto
          185.33 -64.67 92.67 -129.33 -37.33 -38.34 -10.17 -20.33 -39.33 vhcurveto
          -39.33 -20.33 -46.34 -36.17 -53.33 -52 rrcurveto
          230 -43 -134 vlineto
          endchar
        </CharString>
        <CharString name="cid00920" fdSelectIndex="0">
          85 612 rmoveto
          -42 222 -130 vlineto
          -68 -72.67 -78 -93.66 -88 -114.67 34 -29 rcurveline
          81.33 104.67 66.67 81 52 57.33 rrcurveto
          -426 45 474 vlineto
          72 75.33 60.67 52.17 49.33 29 rrcurveto
          29 49.33 46.34 14.5 43.33 hhcurveto
          128.67 64.33 -99.67 -199.33 -86.67 -20.5 -68.5 -41 -50.33 hvcurveto
          -50.33 -41 -54.83 -25.17 -68.67 hhcurveto
          -46 -44.33 9.67 19.33 -42.67 hvcurveto
          -16 -42 rlineto
          -22 44.67 49.66 -11 54.67 hhcurveto
          83.33 66.34 29.33 58.67 49.33 hvcurveto
          49.33 58.67 24.67 79.66 100.67 vvcurveto
          230 -79.33 115 -158.67 -48 -48.83 -13 -26 -49.67 vhcurveto
          -49.67 -26 -58.83 -47 -68 -68 rrcurveto
          296 -45 -171 vlineto
          endchar
        </CharString>
        <CharString name="cid00921" fdSelectIndex="0">
          195 714 rmoveto
          332 hlineto
          -15.33 -61.33 -11.34 -44.67 -7.33 -28 -119.33 -8.67 -97.84 -39.16 -76.33 -69.67 rrcurveto
          -76.33 -69.67 -38.17 -85.16 -100.67 vvcurveto
          -62 16.17 -50.33 32.33 -38.67 vhcurveto
          -38.67 32.33 37.17 -19.33 42 hhcurveto
          24 21.5 7 14 19 hvcurveto
          19 14 20.83 26 22.67 38 22.67 38 24.16 55 25.67 72 25.67 72 28.16 92 30.67 112 rrcurveto
          9 hlineto
          97.33 79.67 -26.17 -52.33 62 hvcurveto
          62 -52.33 31 -67.17 -82 vvcurveto
          0.01 -31.33 -3.34 -31.34 -6.67 -31.33 rrcurveto
          46.67 -48.67 -54 23.33 -59.33 hhcurveto
          -46.67 -37.83 -12.33 -24.67 -29 hvcurveto
          -29 -24.67 -14.5 -32 -39.33 vvcurveto
          -40.67 15 -33.33 30 -26 vhcurveto
          -26 30 38 -13 46 hhcurveto
          58.67 50.5 25.67 51.33 42.33 hvcurveto
          42.33 51.33 21.17 73 94.67 vvcurveto
          94 -35 77.33 -70 60.67 vhcurveto
          -70 60.67 -89.67 30.66 -109.33 0.67 18 66.67 11.67 44 5.33 21.33 rrcurveto
          41 -381 vlineto
          652 -636 rmoveto
          -14 -36 -19.83 -27.83 -25.67 -19.67 rrcurveto
          -19.67 -25.67 -29.16 -9.83 -32.67 hhcurveto
          -33.33 -27.17 8.83 17.67 -21 hvcurveto
          -21 17.67 -10.5 23.16 28.67 vvcurveto
          27.33 10.16 21.5 20.34 15.67 vhcurveto
          15.67 20.33 27.5 7.83 34.67 hhcurveto
          54 49 -23.67 -47.33 44 hvcurveto
          -366 416 rmoveto
          -50.67 -184 -44 -128 -37.33 -72 rrcurveto
          -72 -37.33 -35.34 -36 -33.33 hhcurveto
          -29.33 -26.17 15.33 30.67 -23 hvcurveto
          -23 30.67 -11.5 39.33 48 vvcurveto
          86.67 32.67 73.66 65.33 60.67 vhcurveto
          65.33 60.67 84.34 35.66 103.33 10.67 rrcurveto
          endchar
        </CharString>
        <CharString name="cid00922" fdSelectIndex="0">
          212 747 rmoveto
          -42 469 vlineto
          1 -2 -563 -199 14 -38 rlineto
          49.33 160 142.33 24.67 124.67 hhcurveto
          54 44.83 -2.5 -5 35.67 hvcurveto
          35.67 -5 26.66 -7.17 17.67 -9.33 17.67 -9.33 12 -9.83 6.33 -10.34 6.33 -10.33 3.16 -12.17 0.01 -14 rrcurveto
          -41.33 -28 -32.84 -56 -24.33 vhcurveto
          -56 -24.33 -81.67 -13.5 -107.33 -2.67 rrcurveto
          27.33 18 13.67 20.67 23.33 vvcurveto
          56.67 -55 28.33 -110 -56 -44 -8.67 -17.33 -32 vhcurveto
          -32 -17.33 -16 -20.34 -23.33 vvcurveto
          -52 56.33 -32.67 112.67 -13.33 vhcurveto
          -88.67 -63.33 -95.66 -91.34 -102.67 -119.33 36 -28 rcurveline
          42.67 49.33 45.16 38.84 47.67 28.33 rrcurveto
          28.33 47.67 40.5 14.17 33.33 hhcurveto
          16.67 12.5 -5.17 -10.33 8.33 hvcurveto
          8.33 -10.33 9.5 -18.5 10.67 -26.67 12 -29.33 13.67 -22.5 15.33 -15.67 rrcurveto
          -15.67 15.33 21.34 -7.83 27.33 hhcurveto
          30.67 30.66 11 22 30.67 hvcurveto
          30.67 22 27 30.67 23.33 39.33 -32 27 rcurveline
          -72 -45.33 -47.34 -36 -49.33 hhcurveto
          -16 -12.33 5.5 11 -8.67 hvcurveto
          -8.67 11 -10.33 19.83 -12 28.67 -12 28.67 -12 21.33 -12 14 rrcurveto
          14 -12 -17 7 -22 hhcurveto
          -32.67 -41.33 -14.67 -29.33 -50 hvcurveto
          -1 1 60.67 57.33 57 46 53.33 34.67 rlinecurve
          37 hlineto
          131.33 100.84 16.17 32.33 70.33 hvcurveto
          70.33 32.33 35.17 45.17 58 vvcurveto
          88.67 -92 44.33 -184 -58.67 -63.66 -6.33 -12.67 -68.67 vhcurveto
          -1 2 410 146 rlineto
          38 vlineto
          -118 -560 rmoveto
          30.67 -25.33 35.33 -34.5 40 -43.67 40 -43.67 31.33 -38.83 22.67 -34 40 21 rcurveline
          -24 35.33 -32.17 39.67 -40.33 44 -40.33 44 -36.5 35.67 -32.67 27.33 rrcurveto
          -311 93 rmoveto
          -118.67 4.67 -59.33 19.66 34.67 vvcurveto
          11.33 11.33 10.5 22.67 9.67 vhcurveto
          9.67 22.67 32 4.83 41.33 hhcurveto
          77.33 38.67 -14.67 -29.33 -8.67 -3.5 -7.66 -7 -6.67 hvcurveto
          -7 -6.67 -14.83 -10 -22.67 -13.33 -0.67 -0.67 -4.33 -2.66 -8 -4.67 rrcurveto
          endchar
        </CharString>
        <CharString name="cid00923" fdSelectIndex="0">
          828 -15 rmoveto
          -5 43 rlineto
          -13.33 -80.67 -80.33 -6.67 -80 hhcurveto
          -62 -51.5 3.5 7 -41 hvcurveto
          -41 7 -30.17 10.17 -19.33 13.33 -19.33 13.33 -13.17 13.84 -7 14.33 rrcurveto
          -7 14.33 -3.5 17.17 20 vvcurveto
          80.67 90.33 65.33 180.67 50 vhcurveto
          8 -50 4 -67.67 -85.33 vvcurveto
          48 hlineto
          90.67 -4.67 71.33 -9.33 52 vhcurveto
          72.67 17.33 78.33 14.34 84 11.33 -5 42 rcurveline
          -90.67 -12 -79.66 -14 -68.67 -16 -12 46 -17.5 33.33 -23 20.67 rrcurveto
          20.67 -23 -30.17 10.33 -37.33 hhcurveto
          -59.33 -64.34 -30.33 -60.67 -69.33 hvcurveto
          -1 1 39.33 72 33.67 68 28 64 rlinecurve
          461 41 -443 hlineto
          7.33 17.33 15 38.67 22.67 60 -45 12 rcurveline
          -10 -29.33 -16.33 -42.67 -22.67 -56 rrcurveto
          -225 -41 207 hlineto
          -56.67 -128.67 -69.33 -122 -82 -115.33 38 -25 rcurveline
          54 76.67 53.17 58.33 52.33 40 rrcurveto
          40 52.33 48.5 20 44.67 hhcurveto
          26.67 21.83 -7.33 -14.67 17 hvcurveto
          17 -14.67 13.17 -26.33 9.33 -38 rrcurveto
          -208 -56 -104 -80.67 -105.33 vvcurveto
          -60 27.17 -43.83 54.33 -27.67 vhcurveto
          -27.67 54.33 87.5 -13.83 120.67 hhcurveto
          86 82 6.67 13.33 78 hvcurveto
          endchar
        </CharString>
        <CharString name="cid00924" fdSelectIndex="0">
          449 757 rmoveto
          -43 15 -115.33 -276.67 -106.67 -265.33 -98 -254 rlinecurve
          42 -16 58 149.33 53.5 106.67 49 64 rlinecurve
          64 49 50.83 32 52.67 hhcurveto
          26 20 -15 -30 14 hvcurveto
          14 -30 13.33 -46.33 12.67 -62.67 14.67 -75.33 18.16 -56.34 21.67 -37.33 rrcurveto
          -37.33 21.67 31.83 -18.67 42 hhcurveto
          100.67 78 103.67 207.33 55.33 hvcurveto
          -43 12 rlineto
          -186.67 -50.67 -63.33 -93.33 -76 hhcurveto
          -28.67 -22 15.83 31.67 -15.33 hvcurveto
          -15.33 31.67 -14 49.16 -12.67 66.67 -12.67 69.33 -16.66 52.84 -20.67 36.33 rrcurveto
          36.33 -20.67 -29.66 18.17 -38.67 hhcurveto
          -66 -61 -40.67 -81.33 -56 hvcurveto
          -2 1 52.67 133.33 63 153.34 73.33 173.33 rlinecurve
          endchar
        </CharString>
        <CharString name="cid00925" fdSelectIndex="0">
          192 485 rmoveto
          539 hlineto
          -25.33 -76 -55.67 -62.33 -86 -48.67 57 -77 rcurveline
          52 28.67 45.17 37.66 38.33 46.67 38.33 46.67 26.84 50.33 15.33 54 rrcurveto
          87 -645 vlineto
          40 -535 rmoveto
          50 -80 56.67 26 44 31.17 31.33 36.33 rlinecurve
          31.33 36.33 22.84 47.17 14.33 58 rrcurveto
          14.33 58 7.17 75.67 93.33 vvcurveto
          -100 hlineto
          -117.33 -12.17 -85.34 -24.33 -53.33 vhcurveto
          -24.33 -53.33 -45.17 -42 -66 -30.67 rrcurveto
          endchar
        </CharString>
        <CharString name="cid00926" fdSelectIndex="0">
          118 628 rmoveto
          687 hlineto
          -33.33 -103.33 -72.67 -82 -112 -60.67 57 -84 rcurveline
          66 35.33 57.33 46.84 48.67 58.33 48.67 58.33 34 63.17 19.33 68 rrcurveto
          92 -800 vlineto
          277 -180 rmoveto
          -101.33 -7.17 -82 -14.33 -62.67 vhcurveto
          -14.33 -62.67 -23 -50.5 -31.67 -38.33 -31.67 -38.33 -44.5 -31.84 -57.33 -25.33 50 -87 rcurveline
          70 31.33 54.83 38.67 39.67 46 39.67 46 29 59.83 18.33 73.67 rrcurveto
          18.33 73.67 9.17 94.83 116 vvcurveto
          endchar
        </CharString>
        <CharString name="cid00927" fdSelectIndex="0">
          170 309 rmoveto
          16 -92 105.33 15.33 101.67 28.67 98 42 rlinecurve
          -350 107 402 vlineto
          90 48.67 77.33 56.66 64.67 64.67 -61 70 rcurveline
          -71.33 -72 -89.34 -61.67 -107.33 -51.33 -107.33 -51.33 -110.34 -33.67 -113.33 -16 rrcurveto
          endchar
        </CharString>
        <CharString name="cid00928" fdSelectIndex="0">
          92 387 rmoveto
          16 -97 131.33 18.67 130.67 38 130 57.33 rlinecurve
          -452 112 507 vlineto
          118.67 65.33 98 72.67 77.33 80 -65 74 rcurveline
          -87.33 -91.33 -111.17 -78.5 -135 -65.67 -135 -65.67 -138.5 -42.83 -142 -20 rrcurveto
          endchar
        </CharString>
        <CharString name="cid00929" fdSelectIndex="0">
          192 249 rmoveto
          97 180 419 -60 hlineto
          -101.33 -30.67 -77.17 -61.33 -53 vhcurveto
          -61.33 -53 -95 -29.83 -128.67 -6.67 12 -90 rcurveline
          153.33 8.67 115.84 39.16 78.33 69.67 rrcurveto
          78.33 69.67 39.17 97.83 126 vvcurveto
          147 -264 121 -99 -121 -253 vlineto
          endchar
        </CharString>
        <CharString name="cid00930" fdSelectIndex="0">
          120 650 rmoveto
          -325 102 233 553 -83 vlineto
          -261.33 -161 -140 -322 -18.67 vhcurveto
          13 -95 188 10.67 142.83 49.16 97.67 87.67 rlinecurve
          97.67 87.67 48.83 122.5 157.33 vvcurveto
          175 -335 155 -105 -155 vlineto
          endchar
        </CharString>
        <CharString name="cid00931" fdSelectIndex="0">
          210 560 rmoveto
          -89 238 -382 -262 -89 628 89 -262 382 238 89 vlineto
          endchar
        </CharString>
        <CharString name="cid00932" fdSelectIndex="0">
          140 705 rmoveto
          -95 305 -500 -335 -95 780 95 -335 500 305 95 vlineto
          endchar
        </CharString>
        <CharString name="cid00933" fdSelectIndex="0">
          178 510 rmoveto
          -87 370 vlineto
          -114.67 -116 -123.66 -95 -132.67 -74 45 -78 rcurveline
          118.67 66.67 117.66 89 116.67 111.33 rrcurveto
          -230 vlineto
          -17.33 -2.17 -10.84 -4.33 -4.33 vhcurveto
          -4.33 -4.33 -10.84 -2.17 -17.33 hhcurveto
          -30.67 -39.33 2.67 5.33 -48 hvcurveto
          -6 -88 rlineto
          -5.33 51.33 44.67 -2.67 38 hhcurveto
          56 35 6.83 13.67 14 hvcurveto
          14 13.67 7 35.16 56.67 vvcurveto
          327 166 87 -166 121 -97 -121 vlineto
          endchar
        </CharString>
        <CharString name="cid00934" fdSelectIndex="0">
          100 642 rmoveto
          -92 476 vlineto
          -146.67 -152.67 -158.66 -124.33 -170.67 -96 47 -84 rcurveline
          160.67 91.33 151.66 117 142.67 142.67 rrcurveto
          -319 vlineto
          -23.33 -3 -14.67 -6 -6 vhcurveto
          -6 -6 -14.33 -3 -22.67 hhcurveto
          -40.67 -50.66 3.33 6.67 -60.67 hvcurveto
          -6 -94 rlineto
          -6.67 64.67 56 -3.33 47.33 hhcurveto
          64 40.17 8 16 16.33 hvcurveto
          16.33 16 8.17 40 64 vvcurveto
          428 215 92 -215 156 -103 -156 vlineto
          endchar
        </CharString>
        <CharString name="cid00935" fdSelectIndex="0">
          375 800 rmoveto
          -56 -1 -51.67 -2 -47.33 vhcurveto
          -252 -95 246 hlineto
          -12 -135.33 -25.33 -104.5 -38.67 -73.67 -38.67 -73.67 -59.33 -67.5 -80 -61.33 66 -73 rcurveline
          92 71.33 68.17 79.17 44.33 87 44.33 87 28.5 117.17 12.67 147.33 rrcurveto
          282 -35 hlineto
          -131.33 -3 -96.5 -6 -61.67 vhcurveto
          -6 -61.67 -9 -39.66 -12 -17.67 rrcurveto
          -17.67 -12 -18.67 -8.83 -25.33 hhcurveto
          -42.67 -53.33 3.33 6.67 -64 hvcurveto
          -9 -97 rlineto
          -8.67 80 66.33 -4.33 52.67 hhcurveto
          28 22.83 4 8 17.67 hvcurveto
          17.67 8 16.16 15.17 14.67 22.33 14.67 22.33 11 33.34 7.33 44.33 7.33 44.33 5.5 56.17 3.67 68 rrcurveto
          3.67 68 1.83 86.33 104.67 vvcurveto
          80 -386 vlineto
          2.66 64 1.34 51.67 39.33 vvcurveto
          endchar
        </CharString>
        <CharString name="cid00936" fdSelectIndex="0">
          675 797 rmoveto
          29.33 -51.33 26.67 -49 24 -46.67 74 37 rcurveline
          -25.33 50.67 -26.67 49.33 -28 48 rrcurveto
          68 -23 rmoveto
          34.67 -62 27.33 -50 20 -38 76 37 rcurveline
          -23.33 46.67 -27.34 50.33 -31.33 54 rrcurveto
          -528 -60 rmoveto
          -67.33 -1.33 -56.67 -2.67 -46 vhcurveto
          -251 -95 244 hlineto
          -8.67 -89.33 -15.16 -75.67 -21.67 -62 -21.67 -62 -26.66 -51.17 -31.67 -40.33 -31.67 -40.33 -42.16 -40.17 -52.67 -40 66 -73 rcurveline
          90.67 70 67.5 77.67 44.33 85.33 44.33 85.33 28.84 113.67 13.33 142 rrcurveto
          283 -20 hlineto
          -131.33 -3 -96.5 -6 -61.67 vhcurveto
          -6 -61.67 -9 -39.66 -12 -17.67 rrcurveto
          -17.67 -12 -18.67 -8.83 -25.33 hhcurveto
          -42.67 -53.33 3.33 6.67 -64 hvcurveto
          -9 -97 rlineto
          -8.67 80 66.33 -4.33 52.67 hhcurveto
          28 22.83 4 8 17.67 hvcurveto
          17.67 8 16.16 15.17 14.67 22.33 14.67 22.33 11 33.34 7.33 44.33 7.33 44.33 5.5 56.17 3.67 68 rrcurveto
          3.67 68 1.83 86.33 104.67 vvcurveto
          65 -386 vlineto
          2.66 46 1.34 56.67 67.33 vvcurveto
          endchar
        </CharString>
        <CharString name="cid00937" fdSelectIndex="0">
          410 782 rmoveto
          13 -163 -295 -11 4 -95 299 11 19 -234 -362 -12 4 -95 366 12 22 -265 110 8 -21 260 343 12 -4 95 -347 -12 -19 235 330 11 -4 95 -334 -12 -14 168 rlineto
          endchar
        </CharString>
        <CharString name="cid00938" fdSelectIndex="0">
          675 797 rmoveto
          29.33 -51.33 26.67 -49 24 -46.67 74 37 rcurveline
          -25.33 50.67 -26.67 49.33 -28 48 rrcurveto
          68 -23 rmoveto
          34.67 -62 27.33 -50 20 -38 76 37 rcurveline
          -23.33 46.67 -27.34 50.33 -31.33 54 rrcurveto
          -493 -78 rmoveto
          14 -173 -296 -11 4 -95 300 11 18 -224 -362 -12 4 -95 366 12 22 -265 110 8 -21 260 343 12 -4 95 -347 -12 -2 24.67 -3.17 37.33 -4.33 50 rlinecurve
          -4.33 50 -3.17 37.67 -2 25.33 36.67 1.33 55 1.84 73.33 2.33 73.33 2.33 55 1.83 36.67 1.34 -4 95 rcurveline
          -333 -12 -15 178 rlineto
          endchar
        </CharString>
        <CharString name="cid00939" fdSelectIndex="0">
          738 590 rmoveto
          -9.33 -174 -48.34 -127.17 -87.33 -80.33 -87.33 -80.33 -141 -49.5 -194.67 -18.67 15 -95 rcurveline
          232 19.33 168.83 64.67 105.67 110 rrcurveto
          105.67 110 52.83 168.67 227.33 vvcurveto
          20 -448 vlineto
          7.33 31.33 5 31.34 2.67 31.33 -102 7 rcurveline
          -9.33 -80.67 -23 -77.16 -36.67 -73.67 -36.67 -73.67 -48 -65.16 -59.33 -56.67 74 -65 rcurveline
          93.33 88 66.34 98.67 39.33 109.33 rrcurveto
          endchar
        </CharString>
        <CharString name="cid00940" fdSelectIndex="0">
          690 787 rmoveto
          28.67 -50 22.33 -40.67 16 -31.33 rrcurveto
          -387 hlineto
          6.67 29.33 5.66 34.67 4.67 40 -102 7 rcurveline
          -9.33 -80.67 -23 -77.16 -36.67 -73.67 -36.67 -73.67 -48 -65.16 -59.33 -56.67 74 -65 rcurveline
          89.33 84 65 95.33 40.67 106.67 rrcurveto
          356 hlineto
          -10.67 -170.67 -48.83 -124.66 -87 -78.67 -87 -78.67 -140.17 -48.66 -193.33 -18.67 15 -95 rcurveline
          232 19.33 168.83 64.67 105.67 110 rrcurveto
          105.67 110 52.83 168.67 227.33 vvcurveto
          5 vlineto
          34 17 -25.33 50.67 -26.67 49.33 -28 48 rlinecurve
          68 -23 rmoveto
          34.67 -62 27.33 -50 20 -38 76 37 rcurveline
          -23.33 46.67 -27.34 50.33 -31.33 54 rrcurveto
          endchar
        </CharString>
        <CharString name="cid00941" fdSelectIndex="0">
          925 645 rmoveto
          -611 hlineto
          10 40 7.67 46.33 5.33 52.67 -102 7 rcurveline
          -19.33 -166 -59.67 -142.67 -100 -119.33 83 -54 rcurveline
          65.33 74.67 48.67 80.33 32 86 rrcurveto
          292 hlineto
          -0.67 -155.33 -25.83 -115.34 -51 -75.33 -51 -75.33 -84.5 -49 -118 -22.67 30 -92 rcurveline
          142 27.33 103.5 59.84 65 92.33 65 92.33 32.83 135.17 0.67 178 rrcurveto
          240 hlineto
          endchar
        </CharString>
        <CharString name="cid00942" fdSelectIndex="0">
          915 625 rmoveto
          -614 hlineto
          12.67 49.33 8.66 49.67 4.67 50 -102 7 rcurveline
          -19.33 -166 -59.67 -142.67 -100 -119.33 83 -54 rcurveline
          62.67 72 47.33 77 32 82 rrcurveto
          296 hlineto
          -0.67 -154.67 -25.66 -113.5 -50.67 -72.33 -50.67 -72.33 -84.66 -47.5 -118.67 -22.67 30 -92 rcurveline
          142.67 27.33 103.66 58.34 64.67 89.33 64.67 89.33 32.66 133.34 0.67 177.33 rrcurveto
          240 hlineto
          -240 267 rmoveto
          29.33 -51.33 26.67 -49 24 -46.67 74 37 rcurveline
          -25.33 50.67 -26.67 49.33 -28 48 rrcurveto
          68 -23 rmoveto
          34.67 -62 27.33 -50 20 -38 76 37 rcurveline
          -23.33 46.67 -27.34 50.33 -31.33 54 rrcurveto
          endchar
        </CharString>
        <CharString name="cid00943" fdSelectIndex="0">
          140 705 rmoveto
          -95 605 -500 -605 -95 710 690 vlineto
          endchar
        </CharString>
        <CharString name="cid00944" fdSelectIndex="0">
          690 787 rmoveto
          16.67 -28 19.66 -35.67 22.67 -43.33 rrcurveto
          -649 -95 595 -485 -595 -95 700 650 hlineto
          44 22 -25.33 50.67 -26.67 49.33 -28 48 rlinecurve
          68 -23 rmoveto
          34.67 -62 27.33 -50 20 -38 76 37 rcurveline
          -23.33 46.67 -27.34 50.33 -31.33 54 rrcurveto
          endchar
        </CharString>
        <CharString name="cid00945" fdSelectIndex="0">
          235 780 rmoveto
          -175 -170 -95 170 -215 103 215 320 -60 vlineto
          -93.33 -11.83 -73 -23.67 -52.67 vhcurveto
          -23.67 -52.67 -39.5 -40 -55.33 -27.33 -55.33 -27.33 -79.34 -18.67 -103.33 -10 20 -95 rcurveline
          175.33 16 123.67 44.83 72 73.67 rrcurveto
          72 73.67 36 118.5 163.33 vvcurveto
          60 170 95 -170 175 -107 -175 -320 175 vlineto
          endchar
        </CharString>
        <CharString name="cid00946" fdSelectIndex="0">
          731 810 rmoveto
          20.67 -58 17.66 -52.67 14.67 -47.33 79 23 rcurveline
          -15.33 52.67 -17.67 53.33 -20 54 rrcurveto
          44 -9 rmoveto
          22 -59.33 18.33 -54 14.67 -48.67 81 23 rcurveline
          -14 46.67 -18.33 54.33 -22.67 62 rrcurveto
          -730 -80 rmoveto
          -175 -160 -95 160 -215 103 215 310 -60 vlineto
          -93.33 -11.83 -73 -23.67 -52.67 vhcurveto
          -23.67 -52.67 -39.5 -40 -55.33 -27.33 -55.33 -27.33 -79.34 -18.67 -103.33 -10 20 -95 rcurveline
          175.33 16 123.67 44.83 72 73.67 rrcurveto
          72 73.67 36 118.5 163.33 vvcurveto
          60 190 95 -190 175 -107 -175 -310 175 vlineto
          endchar
        </CharString>
        <CharString name="cid00947" fdSelectIndex="0">
          825 626 rmoveto
          -33.33 -188.67 -66.34 -136.16 -99.33 -83.67 -99.33 -83.67 -155.34 -50.83 -211.33 -18 15 -100 rcurveline
          230.67 20 173.33 59.67 116 99.33 116 99.33 76.67 155 37.33 210.67 rrcurveto
          -787 -94 rmoveto
          -19 -97 97.33 -17.33 109.34 -21 121.33 -24.67 rlinecurve
          19 97 -128.67 26 -109.33 21 -90 16 rlinecurve
          45 245 rmoveto
          -19 -97 94.67 -15.33 113.33 -21 132 -26.67 rlinecurve
          19 97 -132 26.67 -113.33 21 -94.67 15.33 rlinecurve
          endchar
        </CharString>
        <CharString name="cid00948" fdSelectIndex="0">
          815 616 rmoveto
          -33.33 -188.67 -66.34 -136.16 -99.33 -83.67 -99.33 -83.67 -155.34 -50.83 -211.33 -18 15 -100 rcurveline
          230.67 20 173.33 59.67 116 99.33 116 99.33 76.67 155 37.33 210.67 rrcurveto
          -240 188 rmoveto
          29.33 -51.33 26.67 -49 24 -46.67 74 37 rcurveline
          -25.33 50.67 -26.67 49.33 -28 48 rrcurveto
          68 -23 rmoveto
          34.67 -62 27.33 -50 20 -38 76 37 rcurveline
          -23.33 46.67 -27.34 50.33 -31.33 54 rrcurveto
          -765 -335 rmoveto
          -19 -97 97.33 -17.33 109.34 -21 121.33 -24.67 rlinecurve
          19 97 -128.67 26 -109.33 21 -90 16 rlinecurve
          45 245 rmoveto
          -19 -97 94.67 -15.33 113.33 -21 132 -26.67 rlinecurve
          19 97 -132 26.67 -113.33 21 -94.67 15.33 rlinecurve
          endchar
        </CharString>
        <CharString name="cid00949" fdSelectIndex="0">
          185 628 rmoveto
          514 hlineto
          -54 -111.33 -78.33 -104.17 -102.67 -97 -102.67 -97 -122 -84.5 -141.33 -72 47 -86 rcurveline
          146 70.67 131.33 90 116.67 109.33 95.33 -88 95.67 -93 96 -98 73 71 rcurveline
          -92 94 -96.33 93 -100.67 92 90 98.67 68.33 103.66 46.67 108.67 rrcurveto
          97 -630 vlineto
          endchar
        </CharString>
        <CharString name="cid00950" fdSelectIndex="0">
          165 618 rmoveto
          514 hlineto
          -54 -111.33 -78.33 -104.17 -102.67 -97 -102.67 -97 -122 -84.5 -141.33 -72 47 -86 rcurveline
          146 70.67 131.33 90 116.67 109.33 95.33 -88 95.67 -93 96 -98 73 71 rcurveline
          -92 94 -96.33 93 -100.67 92 90 98.67 68.33 103.66 46.67 108.67 rrcurveto
          44 vlineto
          49 25 -25.33 50.67 -26.67 49.33 -28 48 rlinecurve
          -74 -38 19.33 -33.33 15.34 -27.34 11.33 -21.33 rlinecurve
          -571 hlineto
          667 97 rmoveto
          34.67 -62 27.33 -50 20 -38 76 37 rcurveline
          -23.33 46.67 -27.34 50.33 -31.33 54 rrcurveto
          endchar
        </CharString>
        <CharString name="cid00951" fdSelectIndex="0">
          900 5 rmoveto
          -5 95 rlineto
          -16.67 -112.67 -117.66 -8.33 -122.67 hhcurveto
          -26 -20.5 0.5 1 -15 hvcurveto
          -15 1 -14 2.67 -13 4.33 -13 4.33 -9.5 5.34 -6 6.33 -6 6.33 -5.16 10 -4.34 13.67 -4.33 13.67 -2.67 14.66 -1 15.67 rrcurveto
          -1 15.67 -0.5 21.16 26.67 vvcurveto
          244 vlineto
          423 69 -48.67 -97.33 -68.33 -79.67 -88 -62 rlinecurve
          67 -76 57.33 41.33 51.5 50.34 45.67 59.33 rlinecurve
          45.67 59.33 33.83 61 22 62.67 -14 97 rcurveline
          -527 -85 rlineto
          198 -105 -215 vlineto
          -231 -38 14 -97 217 35 rlineto
          -247 vlineto
          -96.67 15.83 -63.83 31.67 -31 vhcurveto
          -31 31.67 63.5 -15.5 95.33 hhcurveto
          125.33 127.34 8.33 16.67 129.33 hvcurveto
          endchar
        </CharString>
        <CharString name="cid00952" fdSelectIndex="0">
          890 -5 rmoveto
          -5 95 rlineto
          -16.67 -112.67 -117.66 -8.33 -122.67 hhcurveto
          -26 -20.5 0.5 1 -15 hvcurveto
          -15 1 -14 2.67 -13 4.33 -13 4.33 -9.5 5.34 -6 6.33 -6 6.33 -5.16 10 -4.34 13.67 -4.33 13.67 -2.67 14.66 -1 15.67 rrcurveto
          -1 15.67 -0.5 21.16 26.67 vvcurveto
          224 vlineto
          423 69 -48.67 -97.33 -68.33 -79.67 -88 -62 rlinecurve
          67 -76 57.33 41.33 51.5 50.34 45.67 59.33 rlinecurve
          45.67 59.33 33.83 61 22 62.67 -14 97 rcurveline
          -527 -85 rlineto
          218 -105 -235 vlineto
          -231 -38 14 -97 217 35 rlineto
          -227 vlineto
          -96.67 15.83 -63.83 31.67 -31 vhcurveto
          -31 31.67 63.5 -15.5 95.33 hhcurveto
          125.33 127.34 8.33 16.67 129.33 hvcurveto
          -200 802 rmoveto
          29.33 -51.33 26.67 -49 24 -46.67 74 37 rcurveline
          -25.33 50.67 -26.67 49.33 -28 48 rrcurveto
          68 -23 rmoveto
          34.67 -62 27.33 -50 20 -38 76 37 rcurveline
          -23.33 46.67 -27.34 50.33 -31.33 54 rrcurveto
          endchar
        </CharString>
        <CharString name="cid00953" fdSelectIndex="0">
          785 743 rmoveto
          -5.33 -114.67 -12.84 -95.5 -20.33 -76.33 -20.33 -76.33 -32.34 -64.67 -44.33 -53 -44.33 -53 -55 -40.83 -65.67 -28.67 -65.67 -28.67 -83.5 -22.66 -101.33 -16.67 20 -97 rcurveline
          114 16.67 95.33 25.16 76.67 33.67 76.67 33.67 64 47.16 51.33 60.67 51.33 60.67 37.84 74 24.33 87.33 24.33 87.33 14.84 107.67 5.33 128 rrcurveto
          -782 -47 rmoveto
          62 -131.33 51.67 -114 41.33 -96.67 104 39 rcurveline
          -52 120 -52.67 115 -53.33 110 rrcurveto
          endchar
        </CharString>
        <CharString name="cid00954" fdSelectIndex="0">
          766 616 rmoveto
          -10 -91.33 -17 -77.17 -24 -63 -24 -63 -34.17 -53.33 -44.33 -43.67 -44.33 -43.67 -53.34 -34.5 -62.33 -25.33 -62.33 -25.33 -77.17 -20 -92 -14.67 23 -96 rcurveline
          206.67 30 151 63 95.33 96 95.33 96 58 150.67 20.67 205.33 rrcurveto
          -196 181 rmoveto
          29.33 -51.33 26.67 -49 24 -46.67 74 37 rcurveline
          -25.33 50.67 -26.67 49.33 -28 48 rrcurveto
          68 -23 rmoveto
          34.67 -62 27.33 -50 20 -38 76 37 rcurveline
          -23.33 46.67 -27.34 50.33 -31.33 54 rrcurveto
          -795 -160 rmoveto
          62 -131.33 51.67 -114 41.33 -96.67 104 39 rcurveline
          -52 120 -52.67 115 -53.33 110 rrcurveto
          endchar
        </CharString>
        <CharString name="cid00955" fdSelectIndex="0">
          305 791 rmoveto
          -9.33 -81.33 -22.67 -77.84 -36 -74.33 -36 -74.33 -46.67 -64.5 -57.33 -54.67 71 -65 rcurveline
          91.33 86 65.67 100.33 40 114.67 rrcurveto
          379 hlineto
          -4 -105.33 -16.67 -87.34 -29.33 -69.33 -95.33 48.67 -103.34 49 -111.33 49.33 -48 -92 rcurveline
          89.33 -39.33 102 -48.67 114.67 -58 -44 -57.33 -59.67 -44.34 -75.33 -31.33 -75.33 -31.33 -96 -21.34 -116.67 -11.33 15 -95 rcurveline
          232 19.33 168.83 64.67 105.67 110 rrcurveto
          105.67 110 52.83 168.67 227.33 vvcurveto
          40 -464 vlineto
          6.66 32.67 4.67 29.66 2.67 26.67 rrcurveto
          endchar
        </CharString>
        <CharString name="cid00956" fdSelectIndex="0">
          690 787 rmoveto
          12 -20.67 18.67 -34 25.33 -47.33 rrcurveto
          -385 hlineto
          6.67 32.67 4.66 29.66 2.67 26.67 -100 7 rcurveline
          -9.33 -81.33 -22.84 -77.84 -36.33 -74.33 -36.33 -74.33 -46.5 -64.5 -56.67 -54.67 71 -65 rcurveline
          91.33 86 65.67 100.33 40 114.67 rrcurveto
          369 hlineto
          -4 -104.67 -16 -86 -28 -67.33 -100 51.33 -100.67 47.67 -101.33 44 -48 -92 rcurveline
          92.67 -40.67 99.66 -47.33 106.67 -54 -43.33 -58.67 -59.84 -45.33 -76.33 -32 -76.33 -32 -96.84 -21.67 -117.33 -11.33 15 -95 rcurveline
          232 19.33 168.83 64.67 105.67 110 rrcurveto
          105.67 110 52.83 168.67 227.33 vvcurveto
          17 vlineto
          29 15 -25.33 50.67 -26.67 49.33 -28 48 rlinecurve
          68 -23 rmoveto
          34.67 -62 27.33 -50 20 -38 76 37 rcurveline
          -23.33 46.67 -27.34 50.33 -31.33 54 rrcurveto
          endchar
        </CharString>
        <CharString name="cid00957" fdSelectIndex="0">
          75 320 rmoveto
          403 hlineto
          -8.67 -85.33 -24.33 -63.34 -40 -41.33 -40 -41.33 -63 -29.34 -86 -17.33 30 -92 rcurveline
          109.33 20.67 81.34 38.83 53.33 57 53.33 57 32 84.5 10.67 112 rrcurveto
          339 95 -335 5 hlineto
          195 vlineto
          80 12.67 83 21 86 29.33 -30 92 rcurveline
          -92 -30.67 -92.83 -21.83 -93.67 -13 rrcurveto
          -13 -93.67 -116.83 -6.5 -140 hhcurveto
          -95 vlineto
          116 100.67 4 8 85.33 hvcurveto
          -182 vlineto
          -5 -407 vlineto
          endchar
        </CharString>
        <CharString name="cid00958" fdSelectIndex="0">
          693 725 rmoveto
          -78 -18.67 -77.5 -13 -77 -7.33 rrcurveto
          -7.33 -77 -100.17 -3.67 -123.33 hhcurveto
          -95 vlineto
          124.67 101.33 3.33 6.67 78 hvcurveto
          -180 vlineto
          -5 -409 -95 404 vlineto
          -8.67 -85.33 -24.16 -63.34 -39.67 -41.33 -39.67 -41.33 -62.83 -29.34 -86 -17.33 29 -92 rcurveline
          109.33 20.67 81.34 38.83 53.33 57 53.33 57 32 84.5 10.67 112 rrcurveto
          338 95 -334 5 hlineto
          192 vlineto
          42 6 49 9.66 56 13.34 rrcurveto
          -28 166 rmoveto
          29.33 -51.33 26.67 -49 24 -46.67 74 37 rcurveline
          -25.33 50.67 -26.67 49.33 -28 48 rrcurveto
          68 -23 rmoveto
          34.67 -62 27.33 -50 20 -38 76 37 rcurveline
          -23.33 46.67 -27.34 50.33 -31.33 54 rrcurveto
          endchar
        </CharString>
        <CharString name="cid00959" fdSelectIndex="0">
          724 577 rmoveto
          -2 -92.67 -8.33 -76.5 -14.67 -60.33 -14.67 -60.33 -24.66 -50.67 -34.67 -41 -34.67 -41 -43.5 -31.17 -52.33 -21.33 -52.33 -21.33 -67.5 -16.34 -82.67 -11.33 20 -92 rcurveline
          183.33 21.33 130.17 56.17 77 91 77 91 40.5 147.5 4 204 rrcurveto
          -652 -40 rmoveto
          25.33 -89.33 23.34 -88.67 21.33 -88 97 21 rcurveline
          -24 95.33 -24 88.67 -24 82 rrcurveto
          122 6 rmoveto
          27.33 -96 24 -91.67 20.67 -87.33 97 21 rcurveline
          -26 106.67 -24 91.66 -22 76.67 rrcurveto
          endchar
        </CharString>
        <CharString name="cid00960" fdSelectIndex="0">
          795 728 rmoveto
          -3.33 -116 -11.17 -96.17 -19 -76.33 -19 -76.33 -31.5 -64.5 -44 -52.67 -44 -52.67 -55.17 -40.16 -66.33 -27.67 -66.33 -27.67 -84.84 -21.16 -103.33 -14.67 19 -97 rcurveline
          152.67 20 121 37.17 89.33 54.33 89.33 54.33 66.5 78.84 43.67 103.33 43.67 103.33 23.83 136.34 4 169.33 rrcurveto
          -802 -48 rmoveto
          26.67 -90 29 -111 31.33 -132 105 23 rcurveline
          -34.67 137.33 -30 110.67 -25.33 84 rrcurveto
          170 13 rmoveto
          28.67 -101.33 30 -115 31.33 -128.67 105 22 rcurveline
          -28 118 -30 115 -32 112 rrcurveto
          endchar
        </CharString>
        <CharString name="cid00961" fdSelectIndex="0">
          780 615 rmoveto
          -10 -126.67 -24.5 -101 -39 -75.33 -39 -75.33 -56.33 -57.67 -73.67 -40 -73.67 -40 -100.16 -29 -126.67 -18 19 -97 rcurveline
          210.67 27.33 153.33 62.67 96 98 96 98 56.33 154.67 16.67 211.33 rrcurveto
          -210 180 rmoveto
          29.33 -51.33 26.67 -49 24 -46.67 74 37 rcurveline
          -25.33 50.67 -26.67 49.33 -28 48 rrcurveto
          68 -23 rmoveto
          34.67 -62 27.33 -50 20 -38 76 37 rcurveline
          -23.33 46.67 -27.34 50.33 -31.33 54 rrcurveto
          -805 -176 rmoveto
          26.67 -90 29 -111 31.33 -132 105 23 rcurveline
          -34.67 137.33 -30 110.67 -25.33 84 rrcurveto
          170 13 rmoveto
          28.67 -101.33 30 -115 31.33 -128.67 105 22 rcurveline
          -28 118 -30 115 -32 112 rrcurveto
          endchar
        </CharString>
        <CharString name="cid00962" fdSelectIndex="0">
          190 640 rmoveto
          620 95 -620 hlineto
          -115 -270 rmoveto
          -95 405 vlineto
          -0.67 -93.33 -20 -71.17 -39.33 -49 -39.33 -49 -68 -37.17 -96.67 -25.33 31 -95 rcurveline
          119.33 28.67 86.84 47.83 54.33 67 54.33 67 27.5 92.17 0.67 117.33 rrcurveto
          335 95 hlineto
          endchar
        </CharString>
        <CharString name="cid00963" fdSelectIndex="0">
          690 797 rmoveto
          29.33 -51.33 26.67 -49 24 -46.67 74 37 rcurveline
          -25.33 50.67 -26.67 49.33 -28 48 rrcurveto
          68 -23 rmoveto
          34.67 -62 27.33 -50 20 -38 76 37 rcurveline
          -23.33 46.67 -27.34 50.33 -31.33 54 rrcurveto
          -728 -220 rmoveto
          520 95 -520 hlineto
          -115 -270 rmoveto
          -95 405 vlineto
          -0.67 -93.33 -20 -71.17 -39.33 -49 -39.33 -49 -68 -37.17 -96.67 -25.33 31 -95 rcurveline
          119.33 28.67 86.84 47.83 54.33 67 54.33 67 27.5 92.17 0.67 117.33 rrcurveto
          335 95 hlineto
          endchar
        </CharString>
        <CharString name="cid00964" fdSelectIndex="0">
          240 770 rmoveto
          -820 110 426 vlineto
          170 -42 172.67 -53.67 175.33 -65.33 34 100 rcurveline
          -187.33 69.33 -184 56.34 -180.67 43.33 rrcurveto
          286 vlineto
          endchar
        </CharString>
        <CharString name="cid00965" fdSelectIndex="0">
          528 698 rmoveto
          38 -64 32.67 -58.67 27.33 -53.33 89 43 rcurveline
          -33.33 64.67 -32.34 59.33 -31.33 54 rrcurveto
          64 -4 rmoveto
          36 -60 33.33 -59.33 30.67 -58.67 90 44 rcurveline
          -30.67 60.67 -33.33 60 -36 59.33 rrcurveto
          -552 -25 rmoveto
          -820 110 426 vlineto
          170 -42 172.67 -53.67 175.33 -65.33 34 100 rcurveline
          -187.33 69.33 -184 56.34 -180.67 43.33 rrcurveto
          286 vlineto
          endchar
        </CharString>
        <CharString name="cid00966" fdSelectIndex="0">
          80 590 rmoveto
          -100 400 -25 vlineto
          -128.67 -22.67 -94 -45.33 -59.33 vhcurveto
          -45.33 -59.33 -81.34 -42 -117.33 -24.67 36 -97 rcurveline
          138.67 28.67 99 53 59.33 77.33 rrcurveto
          59.33 77.33 29.67 115.34 153.33 vvcurveto
          25 330 100 -330 195 -110 -195 vlineto
          endchar
        </CharString>
        <CharString name="cid00967" fdSelectIndex="0">
          170 602 rmoveto
          660 103 -660 hlineto
          -70 -690 rmoveto
          800 103 -800 hlineto
          endchar
        </CharString>
        <CharString name="cid00968" fdSelectIndex="0">
          170 635 rmoveto
          549 hlineto
          -27.33 -105.33 -52 -97.34 -76.67 -89.33 -88.67 66.67 -75 55.33 -61.33 44 -63 -83 rcurveline
          65.33 -46 71.67 -52.67 78 -59.33 -102 -92 -128 -72 -154 -52 40 -92 rcurveline
          175.33 62 142.67 81 110 100 76.67 -60 80 -65.67 83.33 -71.33 67 80 rcurveline
          -75.33 65.33 -78 64 -80.67 62.67 86.67 100.67 60.33 119 34 137.33 rrcurveto
          95 -658 vlineto
          endchar
        </CharString>
        <CharString name="cid00969" fdSelectIndex="0">
          135 655 rmoveto
          -95 613 vlineto
          -68.67 -81.33 -91.66 -71.34 -114.67 -61.33 -114.67 -61.33 -133 -48 -151.33 -34.67 25 -97 rcurveline
          122.67 28 114.33 37 106 46 rrcurveto
          -276 110 330 vlineto
          6 3 121.33 -83.33 99.67 -70.67 78 -58 rlinecurve
          66 78 -98.67 73.33 -90 64.67 -81.33 56 rlinecurve
          92.67 64.67 74 75.66 55.33 86.67 rrcurveto
          95 -323 145 -110 -145 vlineto
          endchar
        </CharString>
        <CharString name="cid00970" fdSelectIndex="0">
          820 740 rmoveto
          -115 10 -12 -138.67 -27 -113.83 -42 -89 rlinecurve
          -42 -89 -60.17 -71.67 -78.33 -54.33 -78.33 -54.33 -103.17 -42.5 -128 -30.67 38 -106 rcurveline
          212.67 51.33 156.16 85.17 99.67 119 99.67 119 59.83 174.83 20 230.67 rrcurveto
          endchar
        </CharString>
        <CharString name="cid00971" fdSelectIndex="0">
          695 727 rmoveto
          -102 -32 90.67 -226.67 75 -238.66 59.33 -250.67 rlinecurve
          112 22 -65.33 266.67 -78.34 242 -91.33 217.33 rlinecurve
          -425 -11 rmoveto
          -24 -245.33 -71.33 -228.67 -118.67 -212 101 -47 rcurveline
          126 222.67 74.33 242 22.67 261.33 rrcurveto
          endchar
        </CharString>
        <CharString name="cid00972" fdSelectIndex="0">
          568 735 rmoveto
          28.67 -48.67 29.66 -53.33 30.67 -58 81 39 rcurveline
          -19.33 38 -29.67 54.33 -40 70.67 rrcurveto
          67 -6 rmoveto
          32.67 -55.33 30.33 -54.34 28 -53.33 83 40 rcurveline
          -26.67 50.67 -30.33 55.33 -34 60 rrcurveto
          -144 -323 rmoveto
          56.67 -156.67 51 -174 45.33 -191.33 112 22 rcurveline
          -48 198 -53.33 177 -58.67 156 rrcurveto
          -500 184 rmoveto
          -24 -245.33 -71.33 -228.67 -118.67 -212 101 -47 rcurveline
          126 222.67 74.33 242 22.67 261.33 rrcurveto
          endchar
        </CharString>
        <CharString name="cid00973" fdSelectIndex="0">
          663 468 rmoveto
          52 -147.33 48.33 -166.34 44.67 -185.33 112 22 rcurveline
          -46 188.67 -51 169.33 -56 150 rrcurveto
          -507 207 rmoveto
          -24 -245.33 -71.33 -228.67 -118.67 -212 101 -47 rcurveline
          126 222.67 74.33 242 22.67 261.33 rrcurveto
          500 -19 rmoveto
          38.67 -13.67 33 -27.33 27.33 vhcurveto
          27.33 -27.33 -33 13.67 -38.67 hhcurveto
          -38.67 -33 -13.67 -27.33 -27.33 hvcurveto
          -27.33 -27.33 -13.67 -33 -38.67 vvcurveto
          -38.67 13.67 -33 27.33 -27.33 vhcurveto
          -27.33 27.33 33 -13.67 38.67 hhcurveto
          38.67 33 13.67 27.33 27.33 hvcurveto
          27.33 27.33 13.67 33 38.67 vvcurveto
          -75 hmoveto
          -18 -6.33 -15.33 -12.67 -12.67 vhcurveto
          -12.66 -12.67 -15.33 -6.34 -18 hhcurveto
          -18 -15.33 6.33 12.67 -12.67 hvcurveto
          -12.66 12.67 -6.34 15.33 18 vvcurveto
          18 6.33 15.33 12.67 12.67 vhcurveto
          12.67 12.67 15.33 6.33 18 hhcurveto
          18 15.33 -6.33 -12.67 12.67 hvcurveto
          12.67 -12.66 6.33 -15.34 -18 vvcurveto
          endchar
        </CharString>
        <CharString name="cid00974" fdSelectIndex="0">
          162 750 rmoveto
          -530 vlineto
          -92.67 17 -63.16 34 -33.67 vhcurveto
          -33.67 34 63 -16.83 92 hhcurveto
          146.67 153.33 5 10 160 hvcurveto
          -3 97 rlineto
          -9.33 -133.33 -150 -4.67 -166.67 hhcurveto
          -57.33 -37.67 9 18 -18 hvcurveto
          -18 18 -9 37.67 57.33 vvcurveto
          160 vlineto
          203.33 32.67 201.67 50.66 200 68.67 -29 95 rcurveline
          -193.33 -66.67 -192 -49 -190.67 -31.33 rrcurveto
          272 vlineto
          endchar
        </CharString>
        <CharString name="cid00975" fdSelectIndex="0">
          638 765 rmoveto
          28.67 -48.67 29.66 -53.33 30.67 -58 81 39 rcurveline
          -19.33 38 -29.67 54.33 -40 70.67 rrcurveto
          67 -6 rmoveto
          32.67 -55.33 30.33 -54.34 28 -53.33 83 40 rcurveline
          -26.67 50.67 -30.33 55.33 -34 60 rrcurveto
          -727 -104 rmoveto
          -530 vlineto
          -92.67 17 -63.16 34 -33.67 vhcurveto
          -33.67 34 63 -16.83 92 hhcurveto
          146.67 153.33 5 10 160 hvcurveto
          -3 97 rlineto
          -9.33 -133.33 -150 -4.67 -166.67 hhcurveto
          -57.33 -37.67 9 18 -18 hvcurveto
          -18 18 -9 37.67 57.33 vvcurveto
          140 vlineto
          203.33 32.67 201.67 50.66 200 68.67 -29 95 rcurveline
          -193.33 -66.67 -192 -49 -190.67 -31.33 rrcurveto
          292 vlineto
          endchar
        </CharString>
        <CharString name="cid00976" fdSelectIndex="0">
          142 740 rmoveto
          -530 vlineto
          -92.67 17 -63.16 34 -33.67 vhcurveto
          -33.67 34 63 -16.83 92 hhcurveto
          146.67 153.33 5 10 160 hvcurveto
          -3 97 rlineto
          -9.33 -133.33 -150 -4.67 -166.67 hhcurveto
          -57.33 -37.67 9 18 -18 hvcurveto
          -18 18 -9 37.67 57.33 vvcurveto
          140 vlineto
          203.33 32.67 201.67 50.66 200 68.67 -14 46 rcurveline
          29.33 8.67 24 16.66 18.67 24.67 rrcurveto
          18.67 24.67 9.33 28 31.33 vvcurveto
          38.67 -13.67 33 -27.33 27.33 vhcurveto
          27.33 -27.33 -33 13.67 -38.67 hhcurveto
          -38.67 -33 -13.67 -27.33 -27.33 hvcurveto
          -27.33 -27.33 -13.67 -33 -38.67 vvcurveto
          -50.67 21.67 -39.33 43.33 -28 vhcurveto
          -155.33 -48.67 -158.67 -38 -162 -27.33 rrcurveto
          292 vlineto
          616 -60 rmoveto
          -18 -6.33 -15.33 -12.67 -12.67 vhcurveto
          -12.66 -12.66 -15.34 -6.34 -18 hhcurveto
          -18 -15.33 6.33 12.67 -12.67 hvcurveto
          -12.66 12.67 -6.34 15.33 18 vvcurveto
          18 6.33 15.33 12.67 12.67 vhcurveto
          12.67 12.67 15.33 6.33 18 hhcurveto
          18 15.33 -6.33 -12.67 12.67 hvcurveto
          12.67 -12.66 6.33 -15.34 -18 vvcurveto
          endchar
        </CharString>
        <CharString name="cid00977" fdSelectIndex="0">
          125 710 rmoveto
          -100 643 vlineto
          -10.67 -172 -49.33 -128.67 -88 -85.33 -88 -85.33 -136 -52.34 -184 -19.33 19 -97 rcurveline
          222 22 163.67 69 105.33 116 rrcurveto
          105.33 116 52.67 171 226 vvcurveto
          20 vlineto
          endchar
        </CharString>
        <CharString name="cid00978" fdSelectIndex="0">
          764 835 rmoveto
          -74 -38 12 -20.67 18 -32.33 24 -44 rlinecurve
          -649 -100 643 hlineto
          -10.67 -172 -49.33 -128.67 -88 -85.33 -88 -85.33 -136 -52.34 -184 -19.33 19 -97 rcurveline
          220.67 22 163.16 68.5 105.67 115 105.67 115 53.16 169.83 0.67 224.67 -27.33 55.33 -28.67 53.34 -30 51.33 rrcurveto
          68 -23 rmoveto
          34.67 -62 27.33 -50 20 -38 76 37 rcurveline
          -23.33 46.67 -27.34 50.33 -31.33 54 rrcurveto
          endchar
        </CharString>
        <CharString name="cid00979" fdSelectIndex="0">
          738 600 rmoveto
          -10.67 -172 -49.33 -128.67 -88 -85.33 -88 -85.33 -136 -52.34 -184 -19.33 19 -97 rcurveline
          203.33 20.67 154.34 59.5 105.33 98.33 105.33 98.33 60.67 143.84 16 189.33 rrcurveto
          4 hlineto
          38.67 33 13.67 27.33 27.33 hvcurveto
          27.33 27.33 13.67 33 38.67 vvcurveto
          38.67 -13.67 33 -27.33 27.33 vhcurveto
          27.33 -27.33 -33 13.67 -38.67 hhcurveto
          -38.67 -33 -13.67 -27.33 -27.33 hvcurveto
          -27.33 -27.33 -13.67 -33 -38.67 vvcurveto
          -10 -615 -100 vlineto
          820 110 rmoveto
          -18 -6.33 -15.33 -12.67 -12.67 vhcurveto
          -12.66 -12.66 -15.34 -6.34 -18 hhcurveto
          -18 -15.33 6.33 12.67 -12.67 hvcurveto
          -12.66 12.67 -6.34 15.33 18 vvcurveto
          18 6.33 15.33 12.67 12.67 vhcurveto
          12.67 12.67 15.33 6.33 18 hhcurveto
          18 15.33 -6.33 -12.67 12.67 hvcurveto
          12.67 -12.66 6.33 -15.34 -18 vvcurveto
          endchar
        </CharString>
        <CharString name="cid00980" fdSelectIndex="0">
          314 403 rmoveto
          34.67 48 24 31.83 13.33 15.67 rrcurveto
          15.67 13.33 10.67 7.83 8 hhcurveto
          10.67 13.16 -7.33 -14.67 15.67 hvcurveto
          15.67 -14.67 30.5 -32 45.33 -49.33 131.33 -142.67 114 -120 96.67 -97.33 78 80 rcurveline
          -125.33 127.33 -113.67 118.67 -102 110 -66 71.33 -43.5 43.67 -21 16 rrcurveto
          16 -21 -26.5 8 -32 hhcurveto
          -31.33 -25.5 -9.33 -18.67 -19.67 hvcurveto
          -19.67 -18.67 -40.16 -51.66 -60.67 -84.67 -4.67 -6 -15 -20 -25.33 -34 -25.33 -34 -26.34 -35 -27.33 -36 -27.33 -36 -22 -28 -16.67 -20 84 -64 rcurveline
          48 60 66.33 88 84.67 116 rrcurveto
          endchar
        </CharString>
        <CharString name="cid00981" fdSelectIndex="0">
          596 708 rmoveto
          38 -64 32.67 -58.67 27.33 -53.33 89 43 rcurveline
          -28 54 -32.67 59.33 -37.33 64.67 rrcurveto
          65 -4 rmoveto
          36 -60 33.33 -59.33 30.67 -58.67 90 44 rcurveline
          -30.67 60.67 -33.33 60 -36 59.33 rrcurveto
          -526 -402 rmoveto
          34.67 48 24 31.83 13.33 15.67 rrcurveto
          15.67 13.33 10.67 7.83 8 hhcurveto
          10.67 13.16 -7.33 -14.67 15.67 hvcurveto
          15.67 -14.67 30.5 -32 45.33 -49.33 131.33 -142.67 114 -120 96.67 -97.33 78 80 rcurveline
          -125.33 127.33 -113.67 118.67 -102 110 -66 71.33 -43.5 43.67 -21 16 rrcurveto
          16 -21 -26.5 8 -32 hhcurveto
          -31.33 -25.5 -9.33 -18.67 -19.67 hvcurveto
          -19.67 -18.67 -40.16 -51.66 -60.67 -84.67 -4.67 -6 -15 -20 -25.33 -34 -25.33 -34 -26.34 -35 -27.33 -36 -27.33 -36 -22 -28 -16.67 -20 84 -64 rcurveline
          48 60 66.33 88 84.67 116 rrcurveto
          endchar
        </CharString>
        <CharString name="cid00982" fdSelectIndex="0">
          314 393 rmoveto
          34.67 48 24 31.83 13.33 15.67 rrcurveto
          15.67 13.33 10.67 7.83 8 hhcurveto
          10.67 13.16 -7.33 -14.67 15.67 hvcurveto
          15.67 -14.67 30.5 -32 45.33 -49.33 131.33 -142.67 114 -120 96.67 -97.33 78 80 rcurveline
          -125.33 127.33 -113.67 118.67 -102 110 -66 71.33 -43.5 43.67 -21 16 rrcurveto
          16 -21 -26.5 8 -32 hhcurveto
          -31.33 -25.5 -9.33 -18.67 -19.67 hvcurveto
          -19.67 -18.67 -40.16 -51.66 -60.67 -84.67 -4.67 -6 -15 -20 -25.33 -34 -25.33 -34 -26.34 -35 -27.33 -36 -27.33 -36 -22 -28 -16.67 -20 84 -64 rcurveline
          48 60 66.33 88 84.67 116 rrcurveto
          616 257 rmoveto
          41.33 -14.67 35.34 -29.33 29.33 vhcurveto
          29.33 -29.33 -35.34 14.67 -41.33 hhcurveto
          -41.33 -35.34 -14.67 -29.33 -29.33 hvcurveto
          -29.33 -29.33 -14.67 -35.34 -41.33 vvcurveto
          -41.33 14.66 -35.34 29.34 -29.33 vhcurveto
          -29.33 29.33 35.34 -14.67 41.33 hhcurveto
          41.33 35.34 14.67 29.33 29.33 hvcurveto
          29.33 29.33 14.67 35.34 41.33 vvcurveto
          -80 hmoveto
          -19.33 -6.83 -16.5 -13.67 -13.67 vhcurveto
          -13.66 -13.67 -16.5 -6.84 -19.33 hhcurveto
          -19.33 -16.5 6.83 13.67 -13.67 hvcurveto
          -13.66 13.67 -6.84 16.5 19.33 vvcurveto
          19.33 6.83 16.5 13.67 13.67 vhcurveto
          13.67 13.67 16.5 6.83 19.33 hhcurveto
          19.33 16.5 -6.83 -13.67 13.67 hvcurveto
          13.67 -13.67 6.83 -16.5 -19.33 vvcurveto
          endchar
        </CharString>
        <CharString name="cid00983" fdSelectIndex="0">
          412 56 rmoveto
          -33.33 -42.34 3.67 7.33 -51.33 hvcurveto
          -11 -94 rlineto
          -8.67 60.67 53.66 -4.33 46.67 hhcurveto
          56.67 35.83 7.83 15.67 15 hvcurveto
          15 15.67 7.5 37.16 58.67 vvcurveto
          470 345 95 -345 140 -110 -140 -365 -95 365 -456 vlineto
          -26 -1.83 -15.33 -3.67 -4.67 vhcurveto
          -4.67 -3.67 -12.5 -2.33 -21.33 hhcurveto
          -189 391 rmoveto
          -48.67 -115.33 -54 -114.67 -59.33 -114 96 -43 rcurveline
          60.67 115.33 55 117.67 49.33 120 rrcurveto
          356 hmoveto
          54 -109.33 54.33 -119.34 54.67 -129.33 98 40 rcurveline
          -52 122.67 -55 119.33 -58 116 rrcurveto
          endchar
        </CharString>
        <CharString name="cid00984" fdSelectIndex="0">
          445 535 rmoveto
          -436 vlineto
          -26 -1.83 -15.33 -3.67 -4.67 vhcurveto
          -4.67 -3.67 -12.5 -2.33 -21.33 hhcurveto
          -33.33 -42.34 3.67 7.33 -51.33 hvcurveto
          -11 -94 rlineto
          -8.67 60.67 53.66 -4.33 46.67 hhcurveto
          56.67 35.83 7.83 15.67 15 hvcurveto
          15 15.67 7.5 37.16 58.67 vvcurveto
          450 345 95 -345 160 -110 -160 -365 -95 vlineto
          610 262 rmoveto
          29.33 -51.33 26.67 -49 24 -46.67 74 37 rcurveline
          -25.33 50.67 -26.67 49.33 -28 48 rrcurveto
          68 -23 rmoveto
          34.67 -62 27.33 -50 20 -38 76 37 rcurveline
          -23.33 46.67 -27.34 50.33 -31.33 54 rrcurveto
          -695 -413 rmoveto
          -48.67 -115.33 -54 -114.67 -59.33 -114 96 -43 rcurveline
          60.67 115.33 55 117.67 49.33 120 rrcurveto
          356 -1 rmoveto
          56 -113.33 54.33 -119 52.67 -124.67 98 40 rcurveline
          -50 118 -55 119 -60 120 rrcurveto
          endchar
        </CharString>
        <CharString name="cid00985" fdSelectIndex="0">
          555 535 rmoveto
          345 44 hlineto
          26.67 10 21.66 17 16.67 24 rrcurveto
          16.67 24 8.33 26.67 29.33 vvcurveto
          38.67 -13.67 33 -27.33 27.33 vhcurveto
          27.33 -27.33 -33 13.67 -38.67 hhcurveto
          -38.67 -33 -13.67 -27.33 -27.33 hvcurveto
          -27.33 -27.33 -13.67 -33 -38.67 vvcurveto
          -29.33 8.33 -26.67 16.67 -24 vhcurveto
          -180 160 -110 -160 -365 -95 365 -436 hlineto
          -26 -1.83 -15.33 -3.67 -4.67 vhcurveto
          -4.67 -3.67 -12.5 -2.33 -21.33 hhcurveto
          -33.33 -42.34 3.67 7.33 -51.33 hvcurveto
          -11 -94 rlineto
          -8.67 60.67 53.66 -4.33 46.67 hhcurveto
          56.67 35.83 7.83 15.67 15 hvcurveto
          15 15.67 7.5 37.16 58.67 vvcurveto
          -342 352 rmoveto
          -48.67 -115.33 -54 -114.67 -59.33 -114 96 -43 rcurveline
          60.67 115.33 55 117.67 49.33 120 rrcurveto
          356 -1 rmoveto
          56 -113.33 54.33 -119 52.67 -124.67 98 40 rcurveline
          -50 118 -55 119 -60 120 rrcurveto
          151 268 rmoveto
          -18 -6.33 -15.33 -12.67 -12.67 vhcurveto
          -12.66 -12.66 -15.34 -6.34 -18 hhcurveto
          -18 -15.33 6.33 12.67 -12.67 hvcurveto
          -12.66 12.67 -6.34 15.33 18 vvcurveto
          18 6.33 15.33 12.67 12.67 vhcurveto
          12.67 12.67 15.33 6.33 18 hhcurveto
          18 15.33 -6.33 -12.67 12.67 hvcurveto
          12.67 -12.66 6.33 -15.34 -18 vvcurveto
          endchar
        </CharString>
        <CharString name="cid00986" fdSelectIndex="0">
          100 622 rmoveto
          684 hlineto
          -23.33 -66 -43.5 -65.17 -63.67 -64.33 -63.67 -64.33 -72.83 -52.5 -82 -40.67 -22.67 32 -41.33 56.33 -60 80.67 -90 -61 rcurveline
          94.67 -126.67 101.66 -145 108.67 -163.33 93 58 rcurveline
          -67.33 101.33 -40.34 60 -13.33 18.67 103.33 54 85.84 65 68.33 76 68.33 76 47.5 82.33 26.67 88.67 rrcurveto
          98 -798 vlineto
          endchar
        </CharString>
        <CharString name="cid00987" fdSelectIndex="0">
          125 149 rmoveto
          -5 -106 244 -8.67 249 -26.66 254 -44.67 rlinecurve
          11 106 -251.33 44.67 -251 26.66 -250.67 8.67 rlinecurve
          88 312 rmoveto
          -8 -106 188 -8 190.67 -20.67 193.33 -33.33 rlinecurve
          14 106 -190.67 33.33 -192.66 20.67 -194.67 8 rlinecurve
          -43 285 rmoveto
          -5 -104 216.67 -7.33 223 -20 229.33 -32.67 rlinecurve
          12 104 -217.33 31.33 -225.34 20 -233.33 8.67 rlinecurve
          endchar
        </CharString>
        <CharString name="cid00988" fdSelectIndex="0">
          375 761 rmoveto
          -54.67 -232.67 -67.33 -222 -80 -211.33 -47.33 -2.67 -34.34 -1.66 -21.33 -0.67 3 -95 rcurveline
          226 8 242 23.33 258 38.67 6 -12 7.83 -16.83 9.67 -21.67 9.67 -21.67 6.83 -15.5 4 -9.33 99 42 rcurveline
          -63.33 141.33 -69.34 144.67 -75.33 148 -96 -45 rcurveline
          30.67 -61.33 39.66 -81.34 48.67 -101.33 -141.33 -21.33 -155 -17.34 -168.67 -13.33 76 202 63.33 212.67 50.67 223.33 rrcurveto
          endchar
        </CharString>
        <CharString name="cid00989" fdSelectIndex="0">
          474 338 rmoveto
          -95.33 -114 -127 -99.67 -158.67 -85.33 62 -88 rcurveline
          167.33 87.33 135.34 105 103.33 122.67 93.33 -78.67 85 -75.66 76.67 -72.67 75 77 rcurveline
          -84 80 -88.33 78.33 -92.67 76.67 77.33 113.33 58.67 131 40 148.67 -107 22 rcurveline
          -38 -131.33 -52.33 -114.34 -66.67 -97.33 -91.33 73.33 -91 68.67 -90.67 64 -68 -81 rcurveline
          83.33 -58 92.34 -70 101.33 -82 rrcurveto
          endchar
        </CharString>
        <CharString name="cid00990" fdSelectIndex="0">
          160 730 rmoveto
          -98 200 -202 -285 -95 285 -120 vlineto
          -100 15.83 -65.83 31.67 -31.67 vhcurveto
          -31.67 31.67 65.83 -15.83 100 hhcurveto
          84 83.33 3.33 6.67 82.67 hvcurveto
          -3 97 rlineto
          -6 -68 -75.67 -3 -83.33 hhcurveto
          -66.67 -41.66 8.33 16.67 -16.67 hvcurveto
          -16.67 16.67 -8.33 41.66 66.67 vvcurveto
          117 450 95 -450 202 365 98 vlineto
          endchar
        </CharString>
        <CharString name="cid00991" fdSelectIndex="0">
          299 602 rmoveto
          29 -163 -186 -38 19 -94 184 38 72 -400 104 18 -72 403 289 58 -26 -78 -46.67 -69.33 -67.33 -60.67 rlinecurve
          76 -66 41.33 36 36.17 44.67 31 53.33 rlinecurve
          31 53.33 21.5 54.34 12 55.33 -19 94 rcurveline
          -396 -81 -29 160 rlineto
          endchar
        </CharString>
        <CharString name="cid00992" fdSelectIndex="0">
          260 762 rmoveto
          38 -210 -242 -50 20 -99 240 49 92 -508 109 19 -92 511 390 80 -14.67 -50.67 -23.33 -49.33 -32 -48 rlinecurve
          -32 -48 -37.67 -42.67 -43.33 -37.33 78 -72 rcurveline
          53.33 44 46.34 55.5 39.33 67 39.33 67 26.67 68.5 14 70 -20 99 rcurveline
          -502 -103 -37 207 rlineto
          endchar
        </CharString>
        <CharString name="cid00993" fdSelectIndex="0">
          245 560 rmoveto
          -89 353 vlineto
          -26 -382 rlineto
          -410 -89 676 89 -156 hlineto
          31 471 rlineto
          endchar
        </CharString>
        <CharString name="cid00994" fdSelectIndex="0">
          80 110 rmoveto
          -95 840 95 -197 vlineto
          43 595 rlineto
          -581 -95 458 hlineto
          -38 -500 rlineto
          endchar
        </CharString>
        <CharString name="cid00995" fdSelectIndex="0">
          197 568 rmoveto
          -88 488 -139 -446 -88 446 -172 -488 -89 595 576 vlineto
          endchar
        </CharString>
        <CharString name="cid00996" fdSelectIndex="0">
          125 715 rmoveto
          -95 623 -190 -573 -95 573 -235 -623 -95 735 710 vlineto
          endchar
        </CharString>
        <CharString name="cid00997" fdSelectIndex="0">
          105 478 rmoveto
          -96 667 vlineto
          -17.33 -108.67 -54.17 -80.16 -91 -51.67 -91 -51.67 -120.83 -30.5 -150.67 -9.33 16 -95 rcurveline
          414.67 26 207.33 167.67 309.33 vvcurveto
          20 vlineto
          -705 162 rmoveto
          640 95 -640 hlineto
          endchar
        </CharString>
        <CharString name="cid00998" fdSelectIndex="0">
          812 750 rmoveto
          -112 -268 hlineto
          -142.67 -30.33 -103.5 -60.67 -64.33 vhcurveto
          -60.67 -64.33 -108 -42.5 -155.33 -20.67 23 -99 rcurveline
          176 20.67 128 52.66 80 84.67 rrcurveto
          80 84.67 40 127.33 170 vvcurveto
          -624 -180 rmoveto
          110 445 -110 hlineto
          endchar
        </CharString>
        <CharString name="cid00999" fdSelectIndex="0">
          505 745 rmoveto
          -777 20 vlineto
          128.67 102.33 38.33 76.67 76 hvcurveto
          76 76.67 44.33 110.66 12.67 144.67 -100 13 rcurveline
          -19.33 -203.33 -83.34 -117.34 -147.33 -31.33 rrcurveto
          669 vlineto
          -375 hmoveto
          -200 vlineto
          -121.33 -5 -90.84 -10 -60.33 vhcurveto
          -10 -60.33 -17 -45.5 -24 -30.67 -24 -30.67 -38.67 -28.66 -53.33 -26.67 57 -90 rcurveline
          62.67 30 47.33 34.5 32 39 32 39 23.5 56.67 15 74.33 rrcurveto
          15 74.33 7.5 103.84 133.33 vvcurveto
          200 vlineto
          endchar
        </CharString>
        <CharString name="cid01000" fdSelectIndex="0">
          185 750 rmoveto
          -785 20 vlineto
          184.67 150 37.17 74.33 115.33 hvcurveto
          115.33 74.33 86.67 117.17 58 160 -97 39 rcurveline
          -45.33 -126.67 -64.34 -95.33 -83.33 -64 -83.33 -64 -109 -37.33 -134.67 -10.67 rrcurveto
          681 vlineto
          endchar
        </CharString>
        <CharString name="cid01001" fdSelectIndex="0">
          115 720 rmoveto
          -720 110 vlineto
          660 720 hlineto
          -660 -622 rmoveto
          524 550 -524 vlineto
          endchar
        </CharString>
        <CharString name="cid01002" fdSelectIndex="0">
          196 572 rmoveto
          -292 99 197 411 -71 vlineto
          -114 -30.83 -85 -61.67 -56 vhcurveto
          -61.67 -56 -101.16 -32.67 -140.67 -9.33 14 -92 rcurveline
          322.67 17.33 161.33 148.34 279.33 vvcurveto
          166 vlineto
          endchar
        </CharString>
        <CharString name="cid01003" fdSelectIndex="0">
          125 720 rmoveto
          -355 105 255 542 -95 vlineto
          -148 -39.83 -111.33 -79.67 -74.67 vhcurveto
          -79.67 -74.67 -127.5 -43 -175.33 -11.33 15 -97 rcurveline
          396.67 22.67 198.33 186.66 350.67 vvcurveto
          195 vlineto
          endchar
        </CharString>
        <CharString name="cid01004" fdSelectIndex="0">
          115 650 rmoveto
          -98 150 -344 -195 -98 552 -165 108 165 200 98 -200 344 165 98 -165 125 -108 -125 vlineto
          -250 -442 rmoveto
          344 250 -344 vlineto
          endchar
        </CharString>
        <CharString name="cid01005" fdSelectIndex="0">
          135 620 rmoveto
          638 hlineto
          -34 -101.33 -62.33 -85 -90.67 -68.67 74 -77 rcurveline
          56.67 46.67 45.83 49.66 35 52.67 35 52.67 28.17 61 21.33 69.33 rrcurveto
          95 -747 vlineto
          -30 -615 rmoveto
          -95 790 95 -353 420 -107 -420 vlineto
          endchar
        </CharString>
        <CharString name="cid01006" fdSelectIndex="0">
          125 720 rmoveto
          -95 635 vlineto
          -3.33 -66.67 -7.34 -59 -11.33 -51.33 rrcurveto
          -568 -93 540 hlineto
          -35.33 -90.67 -56.67 -68.33 -78 -46 -78 -46 -106 -30 -134 -14 16 -95 rcurveline
          222.67 22.67 160.66 67.83 98.67 113 98.67 113 50 177.17 1.33 241.33 rrcurveto
          20 vlineto
          endchar
        </CharString>
        <CharString name="cid01007" fdSelectIndex="0">
          138 646 rmoveto
          91.33 -44.67 101.34 -55 111.33 -65.33 53 93 rcurveline
          -92.67 55.33 -102.66 55 -112.67 54.67 rrcurveto
          638 -93 rmoveto
          -34 -172.67 -70.83 -131.66 -107.67 -90.67 -107.67 -90.67 -150.83 -54.66 -194 -18.67 15 -102 rcurveline
          432 38 250 213 68 388 rrcurveto
          endchar
        </CharString>
        <CharString name="cid01008" fdSelectIndex="0">
          690 797 rmoveto
          29.33 -51.33 26.67 -49 24 -46.67 74 37 rcurveline
          -25.33 50.67 -26.67 49.33 -28 48 rrcurveto
          68 -23 rmoveto
          34.67 -62 27.33 -50 20 -38 76 37 rcurveline
          -23.33 46.67 -27.34 50.33 -31.33 54 rrcurveto
          -798 -220 rmoveto
          -315 102 223 553 -73 vlineto
          -261.33 -161 -140 -322 -18.67 vhcurveto
          13 -95 188 10.67 142.83 49.16 97.67 87.67 rlinecurve
          97.67 87.67 48.83 122.5 157.33 vvcurveto
          165 -335 165 -105 -165 vlineto
          endchar
        </CharString>
        <CharString name="cid01009" fdSelectIndex="0">
          486 511 rmoveto
          2 38 1 40.33 42.67 vvcurveto
          -97 hlineto
          0.01 -56 -0.67 -40.33 -1.34 -24.67 rrcurveto
          -198 -90 191 hlineto
          -10 -102.67 -20 -79.66 -30 -56.67 -30 -56.67 -45.67 -52 -61.33 -47.33 62 -69 rcurveline
          72.67 56.67 54.16 62.66 35.67 68.67 35.67 68.67 23.16 92 10.67 115.33 rrcurveto
          208 -35 hlineto
          0.01 -95.33 -2.33 -70.84 -4.68 -46.33 -4.66 -46.33 -6.67 -29.5 -8.67 -12.67 rrcurveto
          -12.67 -8.67 -13.66 -6.33 -18.67 hhcurveto
          -23.33 -41.67 2.67 5.33 -60 hvcurveto
          -8 -91 rlineto
          -7.33 64.67 54.33 -3.67 44 hhcurveto
          38.67 28.66 10.17 20.33 18.67 hvcurveto
          18.67 20.33 14 43 9.33 65.67 9.33 65.67 4.66 100.83 0.01 136 rrcurveto
          77 vlineto
          endchar
        </CharString>
        <CharString name="cid01010" fdSelectIndex="0">
          839 512 rmoveto
          -477 hlineto
          8 33.33 6 36.34 4 39.33 -96 5 rcurveline
          -16.67 -130.67 -47.33 -113.33 -78 -96 78 -51 rcurveline
          50 56.67 38.33 62.66 26.67 68.67 rrcurveto
          218 hlineto
          -0.67 -119.33 -20 -88 -39.33 -56.67 -39.33 -56.67 -65.67 -37 -92 -17.33 27 -87 rcurveline
          114.67 21.33 83.66 47.17 52.67 73 52.67 73 26.66 106.83 0.67 140.67 rrcurveto
          185 hlineto
          endchar
        </CharString>
</ttFont>
